<ttFont>
    <TTGlyph name=".notdef" xMin="256" yMin="0" xMax="1280" yMax="1280">
      <contour>
        <pt x="256" y="0" on="1"/>
        <pt x="256" y="1280" on="1"/>
        <pt x="1280" y="1280" on="1"/>
        <pt x="1280" y="0" on="1"/>
      </contour>
      <contour>
        <pt x="288" y="32" on="1"/>
        <pt x="1248" y="32" on="1"/>
        <pt x="1248" y="1248" on="1"/>
        <pt x="288" y="1248" on="1"/>
      </contour>
    </TTGlyph>
    <TTGlyph name="ampersand" xMin="106" yMin="-47" xMax="1304" yMax="1452">
      <contour>
        <pt x="1009" y="684" on="1"/>
        <pt x="1173" y="684" on="1"/>
        <pt x="1173" y="492" on="0"/>
        <pt x="1054" y="309" on="1"/>
        <pt x="1304" y="0" on="1"/>
        <pt x="1081" y="0" on="1"/>
        <pt x="954" y="160" on="1"/>
        <pt x="854" y="61" on="0"/>
        <pt x="796" y="27" on="1"/>
        <pt x="681" y="-47" on="0"/>
        <pt x="526" y="-47" on="1"/>
        <pt x="288" y="-47" on="0"/>
        <pt x="174" y="121" on="1"/>
        <pt x="106" y="221" on="0"/>
        <pt x="106" y="360" on="1"/>
        <pt x="106" y="526" on="0"/>
        <pt x="212" y="635" on="1"/>
        <pt x="286" y="709" on="0"/>
        <pt x="438" y="797" on="1"/>
        <pt x="294" y="977" on="0"/>
        <pt x="276" y="1075" on="1"/>
        <pt x="272" y="1102" on="0"/>
        <pt x="272" y="1130" on="1"/>
        <pt x="272" y="1288" on="0"/>
        <pt x="405" y="1384" on="1"/>
        <pt x="499" y="1452" on="0"/>
        <pt x="622" y="1452" on="1"/>
        <pt x="806" y="1452" on="0"/>
        <pt x="901" y="1317" on="1"/>
        <pt x="931" y="1260" on="1"/>
        <pt x="950" y="1217" on="0"/>
        <pt x="954" y="1167" on="1"/>
        <pt x="956" y="1149" on="0"/>
        <pt x="956" y="1130" on="1"/>
        <pt x="956" y="989" on="0"/>
        <pt x="843" y="889" on="1"/>
        <pt x="784" y="836" on="0"/>
        <pt x="673" y="774" on="1"/>
        <pt x="946" y="440" on="1"/>
        <pt x="1009" y="552" on="0"/>
        <pt x="1009" y="676" on="1"/>
      </contour>
      <contour>
        <pt x="583" y="883" on="1"/>
        <pt x="749" y="987" on="0"/>
        <pt x="780" y="1063" on="1"/>
        <pt x="794" y="1094" on="0"/>
        <pt x="794" y="1135" on="1"/>
        <pt x="794" y="1241" on="0"/>
        <pt x="702" y="1288" on="1"/>
        <pt x="663" y="1309" on="0"/>
        <pt x="616" y="1309" on="1"/>
        <pt x="493" y="1309" on="0"/>
        <pt x="452" y="1206" on="1"/>
        <pt x="440" y="1174" on="0"/>
        <pt x="440" y="1133" on="1"/>
        <pt x="440" y="1065" on="0"/>
        <pt x="491" y="993" on="1"/>
      </contour>
      <contour>
        <pt x="856" y="281" on="1"/>
        <pt x="528" y="690" on="1"/>
        <pt x="335" y="567" on="0"/>
        <pt x="294" y="465" on="1"/>
        <pt x="278" y="424" on="0"/>
        <pt x="278" y="375" on="1"/>
        <pt x="278" y="242" on="0"/>
        <pt x="389" y="164" on="1"/>
        <pt x="460" y="113" on="0"/>
        <pt x="546" y="113" on="1"/>
        <pt x="684" y="113" on="0"/>
        <pt x="823" y="246" on="1"/>
        <pt x="839" y="262" on="0"/>
      </contour>
    </TTGlyph>
    <TTGlyph name="asterisk" xMin="450" yMin="903" xMax="1071" yMax="1493">
      <contour>
        <pt x="696" y="1493" on="1"/>
        <pt x="825" y="1493" on="1"/>
        <pt x="815" y="1264" on="1"/>
        <pt x="1032" y="1341" on="1"/>
        <pt x="1071" y="1221" on="1"/>
        <pt x="849" y="1159" on="1"/>
        <pt x="993" y="977" on="1"/>
        <pt x="888" y="903" on="1"/>
        <pt x="761" y="1094" on="1"/>
        <pt x="632" y="903" on="1"/>
        <pt x="530" y="977" on="1"/>
        <pt x="671" y="1159" on="1"/>
        <pt x="450" y="1221" on="1"/>
        <pt x="489" y="1341" on="1"/>
        <pt x="706" y="1264" on="1"/>
      </contour>
    </TTGlyph>
    <TTGlyph name="at" xMin="69" yMin="-290" xMax="1947" yMax="1518">
      <contour>
        <pt x="1361" y="1026" on="1"/>
        <pt x="1531" y="1026" on="1"/>
        <pt x="1347" y="453" on="1"/>
        <pt x="1322" y="381" on="0"/>
        <pt x="1322" y="350" on="1"/>
        <pt x="1322" y="295" on="0"/>
        <pt x="1382" y="268" on="1"/>
        <pt x="1402" y="260" on="0"/>
        <pt x="1425" y="260" on="1"/>
        <pt x="1556" y="260" on="0"/>
        <pt x="1664" y="408" on="1"/>
        <pt x="1769" y="553" on="0"/>
        <pt x="1769" y="731" on="1"/>
        <pt x="1769" y="977" on="0"/>
        <pt x="1570" y="1159" on="1"/>
        <pt x="1367" y="1348" on="0"/>
        <pt x="1079" y="1360" on="1"/>
        <pt x="1048" y="1360" on="1"/>
        <pt x="747" y="1360" on="0"/>
        <pt x="515" y="1151" on="1"/>
        <pt x="446" y="1081" on="1"/>
        <pt x="243" y="850" on="0"/>
        <pt x="243" y="559" on="1"/>
        <pt x="243" y="270" on="0"/>
        <pt x="458" y="72" on="1"/>
        <pt x="679" y="-133" on="0"/>
        <pt x="1011" y="-133" on="1"/>
        <pt x="1173" y="-133" on="0"/>
        <pt x="1406" y="-67" on="1"/>
        <pt x="1464" y="-204" on="1"/>
        <pt x="1234" y="-290" on="0"/>
        <pt x="1001" y="-290" on="1"/>
        <pt x="632" y="-290" on="0"/>
        <pt x="364" y="-71" on="1"/>
        <pt x="114" y="133" on="0"/>
        <pt x="75" y="434" on="1"/>
        <pt x="69" y="481" on="0"/>
        <pt x="69" y="528" on="1"/>
        <pt x="69" y="844" on="0"/>
        <pt x="264" y="1110" on="1"/>
        <pt x="321" y="1190" on="0"/>
        <pt x="393" y="1253" on="1"/>
        <pt x="614" y="1454" on="0"/>
        <pt x="923" y="1505" on="1"/>
        <pt x="999" y="1518" on="0"/>
        <pt x="1075" y="1518" on="1"/>
        <pt x="1415" y="1518" on="0"/>
        <pt x="1666" y="1311" on="1"/>
        <pt x="1904" y="1118" on="0"/>
        <pt x="1941" y="842" on="1"/>
        <pt x="1947" y="799" on="0"/>
        <pt x="1947" y="756" on="1"/>
        <pt x="1947" y="508" on="0"/>
        <pt x="1771" y="299" on="1"/>
        <pt x="1615" y="117" on="0"/>
        <pt x="1390" y="117" on="1"/>
        <pt x="1193" y="117" on="0"/>
        <pt x="1165" y="274" on="1"/>
        <pt x="1030" y="127" on="0"/>
        <pt x="874" y="127" on="1"/>
        <pt x="706" y="127" on="0"/>
        <pt x="610" y="268" on="1"/>
        <pt x="540" y="369" on="0"/>
        <pt x="540" y="502" on="1"/>
        <pt x="540" y="725" on="0"/>
        <pt x="702" y="897" on="1"/>
        <pt x="860" y="1067" on="0"/>
        <pt x="1066" y="1069" on="1"/>
        <pt x="1238" y="1069" on="0"/>
        <pt x="1316" y="891" on="1"/>
      </contour>
      <contour>
        <pt x="1054" y="938" on="1"/>
        <pt x="919" y="938" on="0"/>
        <pt x="817" y="793" on="1"/>
        <pt x="724" y="664" on="0"/>
        <pt x="724" y="500" on="1"/>
        <pt x="724" y="362" on="0"/>
        <pt x="821" y="293" on="1"/>
        <pt x="870" y="258" on="0"/>
        <pt x="927" y="258" on="1"/>
        <pt x="1046" y="258" on="0"/>
        <pt x="1136" y="391" on="1"/>
        <pt x="1204" y="489" on="0"/>
        <pt x="1236" y="662" on="1"/>
        <pt x="1245" y="707" on="0"/>
        <pt x="1247" y="741" on="1"/>
        <pt x="1247" y="755" on="1"/>
        <pt x="1247" y="856" on="0"/>
        <pt x="1163" y="909" on="1"/>
        <pt x="1113" y="938" on="0"/>
      </contour>
    </TTGlyph>
    <TTGlyph name="colon" xMin="225" yMin="0" xMax="438" yMax="1073">
      <contour>
        <pt x="438" y="213" on="1"/>
        <pt x="438" y="0" on="1"/>
        <pt x="225" y="0" on="1"/>
        <pt x="225" y="213" on="1"/>
      </contour>
      <contour>
        <pt x="438" y="1073" on="1"/>
        <pt x="438" y="860" on="1"/>
        <pt x="225" y="860" on="1"/>
        <pt x="225" y="1073" on="1"/>
      </contour>
    </TTGlyph>
    <TTGlyph name="comma" xMin="178" yMin="-301" xMax="393" yMax="213">
      <contour>
        <pt x="178" y="213" on="1"/>
        <pt x="393" y="213" on="1"/>
        <pt x="393" y="-32" on="1"/>
        <pt x="393" y="-301" on="0"/>
        <pt x="178" y="-301" on="1"/>
        <pt x="178" y="-223" on="1"/>
        <pt x="266" y="-219" on="0"/>
        <pt x="287" y="-155" on="1"/>
        <pt x="301" y="-116" on="0"/>
        <pt x="301" y="-36" on="1"/>
        <pt x="301" y="0" on="1"/>
        <pt x="178" y="0" on="1"/>
      </contour>
    </TTGlyph>
    <TTGlyph name="dollar" xMin="70" yMin="-258" xMax="1064" yMax="1577">
      <contour>
        <pt x="501" y="1577" on="1"/>
        <pt x="622" y="1577" on="1"/>
        <pt x="622" y="1466" on="1"/>
        <pt x="880" y="1448" on="0"/>
        <pt x="976" y="1257" on="1"/>
        <pt x="1015" y="1180" on="0"/>
        <pt x="1019" y="1083" on="1"/>
        <pt x="1019" y="1063" on="1"/>
        <pt x="858" y="1063" on="1"/>
        <pt x="856" y="1221" on="0"/>
        <pt x="739" y="1290" on="1"/>
        <pt x="698" y="1313" on="0"/>
        <pt x="649" y="1321" on="1"/>
        <pt x="636" y="1323" on="0"/>
        <pt x="622" y="1323" on="1"/>
        <pt x="622" y="813" on="1"/>
        <pt x="827" y="750" on="0"/>
        <pt x="890" y="715" on="1"/>
        <pt x="1064" y="616" on="0"/>
        <pt x="1064" y="399" on="1"/>
        <pt x="1064" y="186" on="0"/>
        <pt x="925" y="61" on="1"/>
        <pt x="903" y="41" on="0"/>
        <pt x="876" y="25" on="1"/>
        <pt x="776" y="-34" on="0"/>
        <pt x="622" y="-47" on="1"/>
        <pt x="622" y="-258" on="1"/>
        <pt x="501" y="-258" on="1"/>
        <pt x="501" y="-47" on="1"/>
        <pt x="186" y="-26" on="0"/>
        <pt x="98" y="213" on="1"/>
        <pt x="70" y="293" on="0"/>
        <pt x="70" y="390" on="1"/>
        <pt x="70" y="408" on="0"/>
        <pt x="71" y="426" on="1"/>
        <pt x="233" y="426" on="1"/>
        <pt x="247" y="274" on="0"/>
        <pt x="276" y="225" on="1"/>
        <pt x="280" y="219" on="0"/>
        <pt x="284" y="211" on="1"/>
        <pt x="356" y="113" on="0"/>
        <pt x="501" y="94" on="1"/>
        <pt x="501" y="651" on="1"/>
        <pt x="311" y="709" on="0"/>
        <pt x="243" y="758" on="1"/>
        <pt x="98" y="862" on="0"/>
        <pt x="98" y="1057" on="1"/>
        <pt x="98" y="1356" on="0"/>
        <pt x="384" y="1442" on="1"/>
        <pt x="438" y="1458" on="0"/>
        <pt x="501" y="1466" on="1"/>
      </contour>
      <contour>
        <pt x="501" y="829" on="1"/>
        <pt x="501" y="1321" on="1"/>
        <pt x="305" y="1294" on="0"/>
        <pt x="270" y="1139" on="1"/>
        <pt x="264" y="1110" on="0"/>
        <pt x="264" y="1077" on="1"/>
        <pt x="264" y="893" on="0"/>
      </contour>
      <contour>
        <pt x="622" y="633" on="1"/>
        <pt x="622" y="94" on="1"/>
        <pt x="747" y="109" on="0"/>
        <pt x="810" y="170" on="1"/>
        <pt x="896" y="252" on="0"/>
        <pt x="896" y="375" on="1"/>
        <pt x="896" y="500" on="0"/>
        <pt x="800" y="561" on="1"/>
        <pt x="741" y="598" on="0"/>
      </contour>
    </TTGlyph>
    <TTGlyph name="eight" xMin="74" yMin="0" xMax="1004" yMax="1500">
      <contour>
        <pt x="539" y="1350" on="1"/>
        <pt x="254" y="1350" on="0"/>
        <pt x="254" y="1100" on="1"/>
        <pt x="254" y="850" on="0"/>
        <pt x="539" y="850" on="1"/>
        <pt x="824" y="850" on="0"/>
        <pt x="824" y="1100" on="1"/>
        <pt x="824" y="1350" on="0"/>
      </contour>
      <contour>
        <pt x="539" y="700" on="1"/>
        <pt x="224" y="700" on="0"/>
        <pt x="224" y="425" on="1"/>
        <pt x="224" y="150" on="0"/>
        <pt x="539" y="150" on="1"/>
        <pt x="854" y="150" on="0"/>
        <pt x="854" y="425" on="1"/>
        <pt x="854" y="700" on="0"/>
      </contour>
      <contour>
        <pt x="237" y="780" on="1"/>
        <pt x="104" y="878" on="0"/>
        <pt x="104" y="1100" on="1"/>
        <pt x="104" y="1500" on="0"/>
        <pt x="539" y="1500" on="1"/>
        <pt x="974" y="1500" on="0"/>
        <pt x="974" y="1100" on="1"/>
        <pt x="974" y="878" on="0"/>
        <pt x="841" y="780" on="1"/>
        <pt x="1004" y="677" on="0"/>
        <pt x="1004" y="425" on="1"/>
        <pt x="1004" y="0" on="0"/>
        <pt x="539" y="0" on="1"/>
        <pt x="74" y="0" on="0"/>
        <pt x="74" y="425" on="1"/>
        <pt x="74" y="677" on="0"/>
      </contour>
    </TTGlyph>
    <TTGlyph name="equal" xMin="102" yMin="227" xMax="1093" yMax="723">
      <contour>
        <pt x="1093" y="723" on="1"/>
        <pt x="1093" y="580" on="1"/>
        <pt x="102" y="580" on="1"/>
        <pt x="102" y="723" on="1"/>
      </contour>
      <contour>
        <pt x="1093" y="371" on="1"/>
        <pt x="1093" y="227" on="1"/>
        <pt x="102" y="227" on="1"/>
        <pt x="102" y="371" on="1"/>
      </contour>
    </TTGlyph>
    <TTGlyph name="exclam" xMin="450" yMin="0" xMax="622" yMax="1493">
      <contour>
        <pt x="612" y="1493" on="1"/>
        <pt x="612" y="801" on="1"/>
        <pt x="572" y="344" on="1"/>
        <pt x="502" y="344" on="1"/>
        <pt x="462" y="801" on="1"/>
        <pt x="462" y="1493" on="1"/>
      </contour>
      <contour>
        <pt x="622" y="213" on="1"/>
        <pt x="622" y="0" on="1"/>
        <pt x="450" y="0" on="1"/>
        <pt x="450" y="213" on="1"/>
      </contour>
    </TTGlyph>
    <TTGlyph name="five" xMin="124" yMin="0" xMax="1039" yMax="1500">
      <contour>
        <pt x="1039" y="500" on="1"/>
        <pt x="1039" y="0" on="0"/>
        <pt x="602" y="0" on="1"/>
        <pt x="174" y="0" on="0"/>
        <pt x="124" y="397" on="1"/>
        <pt x="274" y="397" on="1"/>
        <pt x="324" y="150" on="0"/>
        <pt x="602" y="150" on="1"/>
        <pt x="889" y="150" on="0"/>
        <pt x="889" y="500" on="1"/>
        <pt x="889" y="850" on="0"/>
        <pt x="612" y="850" on="1"/>
        <pt x="410" y="850" on="0"/>
        <pt x="324" y="722" on="1"/>
        <pt x="179" y="722" on="1"/>
        <pt x="249" y="1500" on="1"/>
        <pt x="969" y="1500" on="1"/>
        <pt x="969" y="1350" on="1"/>
        <pt x="384" y="1350" on="1"/>
        <pt x="347" y="949" on="1"/>
        <pt x="454" y="1000" on="0"/>
        <pt x="612" y="1000" on="1"/>
        <pt x="1039" y="1000" on="0"/>
      </contour>
    </TTGlyph>
    <TTGlyph name="four" xMin="40" yMin="0" xMax="1040" yMax="1500">
      <contour>
        <pt x="698" y="1231" on="1"/>
        <pt x="221" y="519" on="1"/>
        <pt x="698" y="519" on="1"/>
      </contour>
      <contour>
        <pt x="698" y="1500" on="1"/>
        <pt x="848" y="1500" on="1"/>
        <pt x="848" y="519" on="1"/>
        <pt x="1040" y="519" on="1"/>
        <pt x="1040" y="369" on="1"/>
        <pt x="848" y="369" on="1"/>
        <pt x="848" y="0" on="1"/>
        <pt x="698" y="0" on="1"/>
        <pt x="698" y="369" on="1"/>
        <pt x="40" y="369" on="1"/>
        <pt x="40" y="519" on="1"/>
      </contour>
    </TTGlyph>
    <TTGlyph name="glyph139" xMin="-1350" yMin="-700" xMax="550" yMax="1500">
      <contour>
        <pt x="-150" y="-540" on="1"/>
        <pt x="-150" y="-600" on="0"/>
        <pt x="0" y="-600" on="1"/>
        <pt x="150" y="-600" on="0"/>
        <pt x="150" y="-540" on="1"/>
        <pt x="150" y="945" on="1"/>
        <pt x="0" y="983" on="0"/>
        <pt x="0" y="1068" on="1"/>
        <pt x="0" y="1400" on="1"/>
        <pt x="0" y="1500" on="0"/>
        <pt x="134" y="1500" on="1"/>
        <pt x="263" y="1500" on="1"/>
        <pt x="359" y="1500" on="0"/>
        <pt x="430" y="1481" on="1"/>
        <pt x="454" y="1475" on="0"/>
        <pt x="475" y="1475" on="1"/>
        <pt x="517" y="1475" on="0"/>
        <pt x="550" y="1500" on="1"/>
        <pt x="550" y="1239" on="1"/>
        <pt x="509" y="1184" on="0"/>
        <pt x="442" y="1184" on="1"/>
        <pt x="427" y="1184" on="0"/>
        <pt x="412" y="1186" on="1"/>
        <pt x="323" y="1200" on="0"/>
        <pt x="212" y="1200" on="1"/>
        <pt x="122" y="1200" on="0"/>
        <pt x="122" y="1148" on="1"/>
        <pt x="122" y="1095" on="1"/>
        <pt x="122" y="1050" on="0"/>
        <pt x="260" y="1050" on="1"/>
        <pt x="350" y="1050" on="1"/>
        <pt x="550" y="1050" on="0"/>
        <pt x="550" y="950" on="1"/>
        <pt x="550" y="-540" on="1"/>
        <pt x="550" y="-700" on="0"/>
        <pt x="200" y="-700" on="1"/>
        <pt x="-900" y="-700" on="1"/>
        <pt x="-1250" y="-700" on="0"/>
        <pt x="-1250" y="-540" on="1"/>
        <pt x="-1250" y="-300" on="1"/>
        <pt x="-1250" y="-220" on="0"/>
        <pt x="-1350" y="-220" on="1"/>
        <pt x="-1350" y="-100" on="1"/>
        <pt x="-1050" y="-100" on="1"/>
        <pt x="-850" y="-100" on="0"/>
        <pt x="-850" y="-220" on="1"/>
        <pt x="-850" y="-540" on="1"/>
        <pt x="-850" y="-600" on="0"/>
        <pt x="-700" y="-600" on="1"/>
        <pt x="-550" y="-600" on="0"/>
        <pt x="-550" y="-540" on="1"/>
        <pt x="-550" y="-300" on="1"/>
        <pt x="-550" y="-220" on="0"/>
        <pt x="-650" y="-220" on="1"/>
        <pt x="-650" y="-100" on="1"/>
        <pt x="-350" y="-100" on="1"/>
        <pt x="-150" y="-100" on="0"/>
        <pt x="-150" y="-220" on="1"/>
      </contour>
    </TTGlyph>
    <TTGlyph name="glyph144" xMin="-1350" yMin="-700" xMax="550" yMax="1500">
      <contour>
        <pt x="-550" y="-540" on="1"/>
        <pt x="-550" y="-600" on="0"/>
        <pt x="-450" y="-600" on="1"/>
        <pt x="-350" y="-600" on="0"/>
        <pt x="-350" y="-540" on="1"/>
        <pt x="-350" y="-300" on="1"/>
        <pt x="-350" y="-220" on="0"/>
        <pt x="-450" y="-220" on="1"/>
        <pt x="-450" y="-100" on="1"/>
        <pt x="-250" y="-100" on="1"/>
        <pt x="-50" y="-100" on="0"/>
        <pt x="-50" y="-220" on="1"/>
        <pt x="-50" y="-540" on="1"/>
        <pt x="-50" y="-600" on="0"/>
        <pt x="50" y="-600" on="1"/>
        <pt x="150" y="-600" on="0"/>
        <pt x="150" y="-540" on="1"/>
        <pt x="150" y="945" on="1"/>
        <pt x="0" y="983" on="0"/>
        <pt x="0" y="1068" on="1"/>
        <pt x="0" y="1400" on="1"/>
        <pt x="0" y="1500" on="0"/>
        <pt x="134" y="1500" on="1"/>
        <pt x="263" y="1500" on="1"/>
        <pt x="359" y="1500" on="0"/>
        <pt x="430" y="1481" on="1"/>
        <pt x="454" y="1475" on="0"/>
        <pt x="475" y="1475" on="1"/>
        <pt x="517" y="1475" on="0"/>
        <pt x="550" y="1500" on="1"/>
        <pt x="550" y="1239" on="1"/>
        <pt x="509" y="1184" on="0"/>
        <pt x="442" y="1184" on="1"/>
        <pt x="427" y="1184" on="0"/>
        <pt x="412" y="1186" on="1"/>
        <pt x="323" y="1200" on="0"/>
        <pt x="212" y="1200" on="1"/>
        <pt x="122" y="1200" on="0"/>
        <pt x="122" y="1148" on="1"/>
        <pt x="122" y="1095" on="1"/>
        <pt x="122" y="1050" on="0"/>
        <pt x="260" y="1050" on="1"/>
        <pt x="350" y="1050" on="1"/>
        <pt x="550" y="1050" on="0"/>
        <pt x="550" y="950" on="1"/>
        <pt x="550" y="-540" on="1"/>
        <pt x="550" y="-700" on="0"/>
        <pt x="200" y="-700" on="1"/>
        <pt x="-600" y="-700" on="1"/>
        <pt x="-850" y="-700" on="0"/>
        <pt x="-850" y="-540" on="1"/>
        <pt x="-850" y="-300" on="1"/>
        <pt x="-850" y="-200" on="0"/>
        <pt x="-950" y="-200" on="1"/>
        <pt x="-1050" y="-200" on="0"/>
        <pt x="-1050" y="-300" on="1"/>
        <pt x="-1050" y="-400" on="1"/>
        <pt x="-950" y="-400" on="0"/>
        <pt x="-950" y="-550" on="1"/>
        <pt x="-950" y="-700" on="0"/>
        <pt x="-1050" y="-700" on="1"/>
        <pt x="-1200" y="-700" on="1"/>
        <pt x="-1350" y="-700" on="0"/>
        <pt x="-1350" y="-600" on="1"/>
        <pt x="-1350" y="-300" on="1"/>
        <pt x="-1350" y="-100" on="0"/>
        <pt x="-1100" y="-100" on="1"/>
        <pt x="-800" y="-100" on="1"/>
        <pt x="-550" y="-100" on="0"/>
        <pt x="-550" y="-300" on="1"/>
      </contour>
    </TTGlyph>
    <TTGlyph name="glyph146" xMin="-2000" yMin="-700" xMax="-150" yMax="-50">
      <contour>
        <pt x="-884" y="-93" on="1"/>
        <pt x="-753" y="-50" on="0"/>
        <pt x="-650" y="-50" on="1"/>
        <pt x="-437" y="-50" on="1"/>
        <pt x="-150" y="-50" on="0"/>
        <pt x="-150" y="-157" on="1"/>
        <pt x="-150" y="-385" on="1"/>
        <pt x="-550" y="-385" on="1"/>
        <pt x="-550" y="-193" on="1"/>
        <pt x="-549" y="-191" on="0"/>
        <pt x="-549" y="-188" on="1"/>
        <pt x="-549" y="-157" on="0"/>
        <pt x="-650" y="-157" on="1"/>
        <pt x="-850" y="-157" on="1"/>
        <pt x="-850" y="-385" on="1"/>
        <pt x="-1250" y="-385" on="1"/>
        <pt x="-1250" y="-193" on="1"/>
        <pt x="-1250" y="-157" on="0"/>
        <pt x="-1300" y="-157" on="1"/>
        <pt x="-1350" y="-157" on="0"/>
        <pt x="-1443" y="-199" on="1"/>
        <pt x="-1547" y="-157" on="0"/>
        <pt x="-1700" y="-157" on="1"/>
        <pt x="-1800" y="-157" on="1"/>
        <pt x="-1879" y="-157" on="0"/>
        <pt x="-1879" y="-176" on="1"/>
        <pt x="-1878" y="-195" on="1"/>
        <pt x="-1877" y="-211" on="0"/>
        <pt x="-1790" y="-211" on="1"/>
        <pt x="-1700" y="-211" on="1"/>
        <pt x="-1550" y="-211" on="0"/>
        <pt x="-1550" y="-247" on="1"/>
        <pt x="-1550" y="-287" on="1"/>
        <pt x="-1450" y="-287" on="0"/>
        <pt x="-1450" y="-336" on="1"/>
        <pt x="-1450" y="-385" on="0"/>
        <pt x="-1550" y="-385" on="1"/>
        <pt x="-1800" y="-385" on="1"/>
        <pt x="-1950" y="-385" on="0"/>
        <pt x="-1950" y="-349" on="1"/>
        <pt x="-1950" y="-243" on="1"/>
        <pt x="-2000" y="-230" on="0"/>
        <pt x="-2000" y="-205" on="1"/>
        <pt x="-2000" y="-107" on="1"/>
        <pt x="-2000" y="-50" on="0"/>
        <pt x="-1800" y="-50" on="1"/>
        <pt x="-1700" y="-50" on="1"/>
        <pt x="-1555" y="-50" on="0"/>
        <pt x="-1443" y="-99" on="1"/>
        <pt x="-1337" y="-50" on="0"/>
        <pt x="-1200" y="-50" on="1"/>
        <pt x="-1100" y="-50" on="1"/>
        <pt x="-942" y="-50" on="0"/>
      </contour>
      <contour>
        <pt x="-1950" y="-420" on="1"/>
        <pt x="-1674" y="-420" on="1"/>
        <pt x="-1434" y="-420" on="0"/>
        <pt x="-1019" y="-610" on="0"/>
        <pt x="-784" y="-610" on="1"/>
        <pt x="-550" y="-610" on="0"/>
        <pt x="-550" y="-560" on="1"/>
        <pt x="-772" y="-560" on="1"/>
        <pt x="-772" y="-420" on="1"/>
        <pt x="-455" y="-420" on="1"/>
        <pt x="-150" y="-420" on="0"/>
        <pt x="-150" y="-532" on="1"/>
        <pt x="-150" y="-700" on="0"/>
        <pt x="-455" y="-700" on="1"/>
        <pt x="-1222" y="-700" on="1"/>
        <pt x="-1507" y="-588" on="0"/>
        <pt x="-1674" y="-588" on="1"/>
        <pt x="-1950" y="-588" on="1"/>
      </contour>
    </TTGlyph>
    <TTGlyph name="glyph150" xMin="-1350" yMin="-700" xMax="550" yMax="1500">
      <contour>
        <pt x="-850" y="-508" on="1"/>
        <pt x="-850" y="-619" on="1"/>
        <pt x="-800" y="-619" on="0"/>
        <pt x="-800" y="-563" on="1"/>
        <pt x="-800" y="-508" on="0"/>
      </contour>
      <contour>
        <pt x="550" y="-590" on="1"/>
        <pt x="550" y="-700" on="0"/>
        <pt x="400" y="-700" on="1"/>
        <pt x="150" y="-700" on="1"/>
        <pt x="150" y="-625" on="0"/>
        <pt x="-4" y="-600" on="0"/>
        <pt x="-100" y="-600" on="1"/>
        <pt x="-150" y="-600" on="1"/>
        <pt x="-150" y="-700" on="0"/>
        <pt x="-375" y="-700" on="1"/>
        <pt x="-600" y="-700" on="0"/>
        <pt x="-600" y="-590" on="1"/>
        <pt x="-600" y="-562" on="0"/>
        <pt x="-546" y="-510" on="0"/>
        <pt x="-498" y="-496" on="1"/>
        <pt x="-459" y="-484" on="0"/>
        <pt x="-417" y="-482" on="1"/>
        <pt x="-550" y="-454" on="1"/>
        <pt x="-550" y="-290" on="1"/>
        <pt x="-550" y="-236" on="0"/>
        <pt x="-600" y="-236" on="1"/>
        <pt x="-650" y="-236" on="0"/>
        <pt x="-743" y="-299" on="1"/>
        <pt x="-847" y="-236" on="0"/>
        <pt x="-1000" y="-236" on="1"/>
        <pt x="-1100" y="-236" on="1"/>
        <pt x="-1229" y="-236" on="0"/>
        <pt x="-1229" y="-264" on="1"/>
        <pt x="-1228" y="-293" on="1"/>
        <pt x="-1227" y="-318" on="0"/>
        <pt x="-1090" y="-318" on="1"/>
        <pt x="-1000" y="-318" on="1"/>
        <pt x="-850" y="-318" on="0"/>
        <pt x="-850" y="-372" on="1"/>
        <pt x="-850" y="-427" on="1"/>
        <pt x="-700" y="-427" on="0"/>
        <pt x="-700" y="-563" on="1"/>
        <pt x="-700" y="-700" on="0"/>
        <pt x="-850" y="-700" on="1"/>
        <pt x="-1100" y="-700" on="1"/>
        <pt x="-1250" y="-700" on="0"/>
        <pt x="-1250" y="-645" on="1"/>
        <pt x="-1250" y="-366" on="1"/>
        <pt x="-1350" y="-346" on="0"/>
        <pt x="-1350" y="-308" on="1"/>
        <pt x="-1350" y="-160" on="1"/>
        <pt x="-1350" y="-100" on="0"/>
        <pt x="-1100" y="-100" on="1"/>
        <pt x="-1000" y="-100" on="1"/>
        <pt x="-855" y="-100" on="0"/>
        <pt x="-743" y="-147" on="1"/>
        <pt x="-637" y="-100" on="0"/>
        <pt x="-500" y="-100" on="1"/>
        <pt x="-400" y="-100" on="1"/>
        <pt x="-150" y="-100" on="0"/>
        <pt x="-150" y="-181" on="1"/>
        <pt x="-150" y="-481" on="1"/>
        <pt x="-100" y="-481" on="1"/>
        <pt x="47" y="-481" on="0"/>
        <pt x="150" y="-514" on="1"/>
        <pt x="150" y="945" on="1"/>
        <pt x="0" y="983" on="0"/>
        <pt x="0" y="1068" on="1"/>
        <pt x="0" y="1400" on="1"/>
        <pt x="0" y="1500" on="0"/>
        <pt x="134" y="1500" on="1"/>
        <pt x="263" y="1500" on="1"/>
        <pt x="359" y="1500" on="0"/>
        <pt x="430" y="1481" on="1"/>
        <pt x="454" y="1475" on="0"/>
        <pt x="475" y="1475" on="1"/>
        <pt x="517" y="1475" on="0"/>
        <pt x="550" y="1500" on="1"/>
        <pt x="550" y="1239" on="1"/>
        <pt x="509" y="1184" on="0"/>
        <pt x="442" y="1184" on="1"/>
        <pt x="427" y="1184" on="0"/>
        <pt x="412" y="1186" on="1"/>
        <pt x="323" y="1200" on="0"/>
        <pt x="212" y="1200" on="1"/>
        <pt x="121" y="1200" on="0"/>
        <pt x="121" y="1149" on="1"/>
        <pt x="121" y="1148" on="1"/>
        <pt x="122" y="1095" on="1"/>
        <pt x="123" y="1050" on="0"/>
        <pt x="260" y="1050" on="1"/>
        <pt x="350" y="1050" on="1"/>
        <pt x="550" y="1050" on="0"/>
        <pt x="550" y="950" on="1"/>
      </contour>
    </TTGlyph>
    <TTGlyph name="glyph157" xMin="-550" yMin="-700" xMax="550" yMax="1500">
      <contour>
        <pt x="-550" y="-249" on="1"/>
        <pt x="-550" y="-99" on="0"/>
        <pt x="-350" y="-99" on="1"/>
        <pt x="-100" y="-99" on="1"/>
        <pt x="-100" y="-199" on="1"/>
        <pt x="-150" y="-199" on="0"/>
        <pt x="-150" y="-299" on="1"/>
        <pt x="-150" y="-507" on="1"/>
        <pt x="0" y="-261" on="1"/>
        <pt x="150" y="-507" on="1"/>
        <pt x="150" y="945" on="1"/>
        <pt x="0" y="983" on="0"/>
        <pt x="0" y="1068" on="1"/>
        <pt x="0" y="1400" on="1"/>
        <pt x="0" y="1500" on="0"/>
        <pt x="134" y="1500" on="1"/>
        <pt x="263" y="1500" on="1"/>
        <pt x="359" y="1500" on="0"/>
        <pt x="430" y="1481" on="1"/>
        <pt x="454" y="1475" on="0"/>
        <pt x="475" y="1475" on="1"/>
        <pt x="517" y="1475" on="0"/>
        <pt x="550" y="1500" on="1"/>
        <pt x="550" y="1239" on="1"/>
        <pt x="509" y="1184" on="0"/>
        <pt x="442" y="1184" on="1"/>
        <pt x="427" y="1184" on="0"/>
        <pt x="412" y="1186" on="1"/>
        <pt x="323" y="1200" on="0"/>
        <pt x="212" y="1200" on="1"/>
        <pt x="122" y="1200" on="0"/>
        <pt x="122" y="1148" on="1"/>
        <pt x="122" y="1095" on="1"/>
        <pt x="122" y="1050" on="0"/>
        <pt x="260" y="1050" on="1"/>
        <pt x="350" y="1050" on="1"/>
        <pt x="550" y="1050" on="0"/>
        <pt x="550" y="950" on="1"/>
        <pt x="550" y="-600" on="1"/>
        <pt x="550" y="-700" on="0"/>
        <pt x="403" y="-700" on="1"/>
        <pt x="150" y="-700" on="1"/>
        <pt x="0" y="-454" on="1"/>
        <pt x="-150" y="-700" on="1"/>
        <pt x="-403" y="-700" on="1"/>
        <pt x="-550" y="-700" on="0"/>
        <pt x="-550" y="-600" on="1"/>
      </contour>
    </TTGlyph>
    <TTGlyph name="glyph162" xMin="-550" yMin="-700" xMax="550" yMax="1500">
      <contour>
        <pt x="-100" y="-300" on="0"/>
        <pt x="-100" y="-265" on="1"/>
        <pt x="-100" y="-230" on="0"/>
        <pt x="-150" y="-230" on="1"/>
        <pt x="-150" y="-300" on="1"/>
      </contour>
      <contour>
        <pt x="150" y="945" on="1"/>
        <pt x="0" y="983" on="0"/>
        <pt x="0" y="1068" on="1"/>
        <pt x="0" y="1400" on="1"/>
        <pt x="0" y="1500" on="0"/>
        <pt x="134" y="1500" on="1"/>
        <pt x="263" y="1500" on="1"/>
        <pt x="359" y="1500" on="0"/>
        <pt x="430" y="1481" on="1"/>
        <pt x="454" y="1475" on="0"/>
        <pt x="475" y="1475" on="1"/>
        <pt x="517" y="1475" on="0"/>
        <pt x="550" y="1500" on="1"/>
        <pt x="550" y="1239" on="1"/>
        <pt x="509" y="1184" on="0"/>
        <pt x="442" y="1184" on="1"/>
        <pt x="427" y="1184" on="0"/>
        <pt x="412" y="1186" on="1"/>
        <pt x="323" y="1200" on="0"/>
        <pt x="212" y="1200" on="1"/>
        <pt x="122" y="1200" on="0"/>
        <pt x="122" y="1148" on="1"/>
        <pt x="122" y="1095" on="1"/>
        <pt x="122" y="1050" on="0"/>
        <pt x="260" y="1050" on="1"/>
        <pt x="350" y="1050" on="1"/>
        <pt x="550" y="1050" on="0"/>
        <pt x="550" y="950" on="1"/>
        <pt x="550" y="-500" on="1"/>
        <pt x="550" y="-700" on="0"/>
        <pt x="200" y="-700" on="1"/>
        <pt x="-200" y="-700" on="1"/>
        <pt x="-550" y="-700" on="0"/>
        <pt x="-550" y="-500" on="1"/>
        <pt x="-550" y="-200" on="1"/>
        <pt x="-550" y="-100" on="0"/>
        <pt x="-400" y="-100" on="1"/>
        <pt x="-150" y="-100" on="1"/>
        <pt x="0" y="-100" on="0"/>
        <pt x="0" y="-265" on="1"/>
        <pt x="0" y="-430" on="0"/>
        <pt x="-150" y="-430" on="1"/>
        <pt x="-150" y="-500" on="1"/>
        <pt x="-150" y="-600" on="0"/>
        <pt x="0" y="-600" on="1"/>
        <pt x="150" y="-600" on="0"/>
        <pt x="150" y="-500" on="1"/>
      </contour>
    </TTGlyph>
    <TTGlyph name="glyph166" xMin="-600" yMin="-700" xMax="700" yMax="1500">
      <contour>
        <pt x="150" y="100" on="1"/>
        <pt x="150" y="945" on="1"/>
        <pt x="0" y="983" on="0"/>
        <pt x="0" y="1068" on="1"/>
        <pt x="0" y="1400" on="1"/>
        <pt x="0" y="1500" on="0"/>
        <pt x="134" y="1500" on="1"/>
        <pt x="263" y="1500" on="1"/>
        <pt x="359" y="1500" on="0"/>
        <pt x="430" y="1481" on="1"/>
        <pt x="454" y="1475" on="0"/>
        <pt x="475" y="1475" on="1"/>
        <pt x="517" y="1475" on="0"/>
        <pt x="550" y="1500" on="1"/>
        <pt x="550" y="1239" on="1"/>
        <pt x="509" y="1184" on="0"/>
        <pt x="442" y="1184" on="1"/>
        <pt x="427" y="1184" on="0"/>
        <pt x="412" y="1186" on="1"/>
        <pt x="323" y="1200" on="0"/>
        <pt x="212" y="1200" on="1"/>
        <pt x="122" y="1200" on="0"/>
        <pt x="122" y="1148" on="1"/>
        <pt x="122" y="1095" on="1"/>
        <pt x="122" y="1050" on="0"/>
        <pt x="260" y="1050" on="1"/>
        <pt x="350" y="1050" on="1"/>
        <pt x="550" y="1050" on="0"/>
        <pt x="550" y="950" on="1"/>
        <pt x="550" y="100" on="1"/>
        <pt x="700" y="100" on="1"/>
        <pt x="700" y="0" on="1"/>
        <pt x="550" y="0" on="1"/>
        <pt x="550" y="-500" on="1"/>
        <pt x="550" y="-700" on="0"/>
        <pt x="200" y="-700" on="1"/>
        <pt x="-200" y="-700" on="1"/>
        <pt x="-550" y="-700" on="0"/>
        <pt x="-550" y="-500" on="1"/>
        <pt x="-550" y="-299" on="1"/>
        <pt x="-550" y="-199" on="0"/>
        <pt x="-600" y="-199" on="1"/>
        <pt x="-600" y="-99" on="1"/>
        <pt x="-350" y="-99" on="1"/>
        <pt x="-150" y="-99" on="0"/>
        <pt x="-150" y="-249" on="1"/>
        <pt x="-150" y="-500" on="1"/>
        <pt x="-150" y="-600" on="0"/>
        <pt x="0" y="-600" on="1"/>
        <pt x="150" y="-600" on="0"/>
        <pt x="150" y="-500" on="1"/>
        <pt x="150" y="0" on="1"/>
        <pt x="0" y="0" on="1"/>
        <pt x="0" y="100" on="1"/>
      </contour>
    </TTGlyph>
    <TTGlyph name="glyph169" xMin="-550" yMin="-1200" xMax="-150" yMax="-750">
      <contour>
        <pt x="-150" y="-750" on="0"/>
        <pt x="-150" y="-825" on="1"/>
        <pt x="-150" y="-1200" on="1"/>
        <pt x="-450" y="-1200" on="1"/>
        <pt x="-450" y="-900" on="1"/>
        <pt x="-450" y="-862" on="0"/>
        <pt x="-550" y="-862" on="1"/>
        <pt x="-550" y="-750" on="1"/>
        <pt x="-300" y="-750" on="1"/>
      </contour>
    </TTGlyph>
    <TTGlyph name="glyph170" xMin="-850" yMin="-1200" xMax="-150" yMax="-750">
      <contour>
        <pt x="-800" y="-825" on="0"/>
        <pt x="-850" y="-825" on="1"/>
        <pt x="-850" y="-750" on="1"/>
        <pt x="-725" y="-750" on="1"/>
        <pt x="-600" y="-750" on="0"/>
        <pt x="-600" y="-825" on="1"/>
        <pt x="-600" y="-1067" on="1"/>
        <pt x="-600" y="-1100" on="0"/>
        <pt x="-525" y="-1100" on="1"/>
        <pt x="-450" y="-1100" on="0"/>
        <pt x="-450" y="-1067" on="1"/>
        <pt x="-450" y="-750" on="1"/>
        <pt x="-150" y="-750" on="1"/>
        <pt x="-150" y="-1067" on="1"/>
        <pt x="-150" y="-1200" on="0"/>
        <pt x="-525" y="-1200" on="1"/>
        <pt x="-800" y="-1200" on="0"/>
        <pt x="-800" y="-1067" on="1"/>
        <pt x="-800" y="-862" on="1"/>
      </contour>
    </TTGlyph>
    <TTGlyph name="glyph171" xMin="-900" yMin="-1200" xMax="-150" yMax="-750">
      <contour>
        <pt x="-850" y="-825" on="0"/>
        <pt x="-900" y="-825" on="1"/>
        <pt x="-900" y="-750" on="1"/>
        <pt x="-775" y="-750" on="1"/>
        <pt x="-650" y="-750" on="0"/>
        <pt x="-650" y="-825" on="1"/>
        <pt x="-650" y="-1075" on="1"/>
        <pt x="-550" y="-977" on="1"/>
        <pt x="-450" y="-1075" on="1"/>
        <pt x="-450" y="-750" on="1"/>
        <pt x="-150" y="-750" on="1"/>
        <pt x="-150" y="-1125" on="1"/>
        <pt x="-150" y="-1200" on="0"/>
        <pt x="-300" y="-1200" on="1"/>
        <pt x="-450" y="-1200" on="1"/>
        <pt x="-550" y="-1102" on="1"/>
        <pt x="-650" y="-1200" on="1"/>
        <pt x="-750" y="-1200" on="1"/>
        <pt x="-850" y="-1200" on="0"/>
        <pt x="-850" y="-1125" on="1"/>
        <pt x="-850" y="-862" on="1"/>
      </contour>
    </TTGlyph>
    <TTGlyph name="glyph172" xMin="-1200" yMin="1950" xMax="-200" yMax="2300">
      <contour>
        <pt x="-1200" y="1950" on="1"/>
        <pt x="-1200" y="2150" on="1"/>
        <pt x="-1200" y="2300" on="0"/>
        <pt x="-1000" y="2300" on="1"/>
        <pt x="-700" y="2300" on="1"/>
        <pt x="-580" y="2300" on="0"/>
        <pt x="-200" y="2050" on="1"/>
        <pt x="-200" y="1950" on="1"/>
      </contour>
    </TTGlyph>
    <TTGlyph name="glyph173" xMin="-1200" yMin="1950" xMax="-200" yMax="2400">
      <contour>
        <pt x="-200" y="1950" on="1"/>
        <pt x="-1200" y="1950" on="1"/>
        <pt x="-1200" y="2150" on="1"/>
        <pt x="-1200" y="2300" on="0"/>
        <pt x="-1000" y="2300" on="1"/>
        <pt x="-700" y="2300" on="1"/>
        <pt x="-605" y="2300" on="0"/>
        <pt x="-350" y="2145" on="1"/>
        <pt x="-350" y="2400" on="1"/>
        <pt x="-200" y="2400" on="1"/>
      </contour>
    </TTGlyph>
    <TTGlyph name="glyph174" xMin="-1200" yMin="1950" xMax="-200" yMax="2423">
      <contour>
        <pt x="-278" y="2101" on="1"/>
        <pt x="-241" y="2077" on="0"/>
        <pt x="-200" y="2050" on="1"/>
        <pt x="-200" y="1950" on="1"/>
        <pt x="-1200" y="1950" on="1"/>
        <pt x="-1200" y="2150" on="1"/>
        <pt x="-1200" y="2300" on="0"/>
        <pt x="-1000" y="2300" on="1"/>
        <pt x="-700" y="2300" on="1"/>
        <pt x="-648" y="2300" on="0"/>
        <pt x="-549" y="2254" on="1"/>
        <pt x="-548" y="2297" on="0"/>
        <pt x="-526" y="2336" on="1"/>
        <pt x="-503" y="2378" on="0"/>
        <pt x="-419" y="2423" on="0"/>
        <pt x="-375" y="2423" on="1"/>
        <pt x="-331" y="2423" on="0"/>
        <pt x="-247" y="2378" on="0"/>
        <pt x="-200" y="2294" on="0"/>
        <pt x="-200" y="2248" on="1"/>
        <pt x="-200" y="2202" on="0"/>
        <pt x="-223" y="2161" on="1"/>
        <pt x="-243" y="2123" on="0"/>
      </contour>
      <contour>
        <pt x="-394" y="2323" on="0"/>
        <pt x="-429" y="2304" on="0"/>
        <pt x="-450" y="2268" on="0"/>
        <pt x="-450" y="2248" on="1"/>
        <pt x="-450" y="2228" on="0"/>
        <pt x="-430" y="2193" on="0"/>
        <pt x="-394" y="2173" on="0"/>
        <pt x="-375" y="2173" on="1"/>
        <pt x="-355" y="2173" on="0"/>
        <pt x="-319" y="2193" on="0"/>
        <pt x="-300" y="2228" on="0"/>
        <pt x="-300" y="2248" on="1"/>
        <pt x="-300" y="2268" on="0"/>
        <pt x="-320" y="2304" on="0"/>
        <pt x="-356" y="2323" on="0"/>
        <pt x="-375" y="2323" on="1"/>
      </contour>
    </TTGlyph>
    <TTGlyph name="glyph175" xMin="-1200" yMin="1950" xMax="-200" yMax="2400">
      <contour>
        <pt x="-450" y="2204" on="1"/>
        <pt x="-403" y="2178" on="0"/>
        <pt x="-350" y="2145" on="1"/>
        <pt x="-350" y="2400" on="1"/>
        <pt x="-200" y="2400" on="1"/>
        <pt x="-200" y="1950" on="1"/>
        <pt x="-1200" y="1950" on="1"/>
        <pt x="-1200" y="2150" on="1"/>
        <pt x="-1200" y="2300" on="0"/>
        <pt x="-1000" y="2300" on="1"/>
        <pt x="-700" y="2300" on="1"/>
        <pt x="-662" y="2300" on="0"/>
        <pt x="-600" y="2276" on="1"/>
        <pt x="-600" y="2400" on="1"/>
        <pt x="-450" y="2400" on="1"/>
      </contour>
    </TTGlyph>
    <TTGlyph name="glyph176" xMin="-1000" yMin="1900" xMax="-400" yMax="2500">
      <contour>
        <pt x="-725" y="2300" on="0"/>
        <pt x="-773" y="2274" on="0"/>
        <pt x="-800" y="2226" on="0"/>
        <pt x="-800" y="2200" on="1"/>
        <pt x="-800" y="2174" on="0"/>
        <pt x="-773" y="2126" on="0"/>
        <pt x="-725" y="2100" on="0"/>
        <pt x="-700" y="2100" on="1"/>
        <pt x="-674" y="2100" on="0"/>
        <pt x="-626" y="2126" on="0"/>
        <pt x="-600" y="2174" on="0"/>
        <pt x="-600" y="2200" on="1"/>
        <pt x="-600" y="2226" on="0"/>
        <pt x="-627" y="2274" on="0"/>
        <pt x="-674" y="2300" on="0"/>
        <pt x="-700" y="2300" on="1"/>
      </contour>
      <contour>
        <pt x="-700" y="2500" on="1"/>
        <pt x="-624" y="2500" on="0"/>
        <pt x="-481" y="2423" on="0"/>
        <pt x="-400" y="2278" on="0"/>
        <pt x="-400" y="2200" on="1"/>
        <pt x="-400" y="2122" on="0"/>
        <pt x="-479" y="1979" on="0"/>
        <pt x="-622" y="1900" on="0"/>
        <pt x="-700" y="1900" on="1"/>
        <pt x="-777" y="1900" on="0"/>
        <pt x="-920" y="1979" on="0"/>
        <pt x="-1000" y="2122" on="0"/>
        <pt x="-1000" y="2200" on="1"/>
        <pt x="-1000" y="2278" on="0"/>
        <pt x="-919" y="2423" on="0"/>
        <pt x="-776" y="2500" on="0"/>
      </contour>
    </TTGlyph>
    <TTGlyph name="glyph177" xMin="-1000" yMin="1900" xMax="-400" yMax="2500">
      <contour>
        <pt x="-600" y="2300" on="1"/>
        <pt x="-400" y="2300" on="1"/>
        <pt x="-400" y="2100" on="1"/>
        <pt x="-600" y="2100" on="1"/>
        <pt x="-600" y="1900" on="1"/>
        <pt x="-800" y="1900" on="1"/>
        <pt x="-800" y="2100" on="1"/>
        <pt x="-1000" y="2100" on="1"/>
        <pt x="-1000" y="2300" on="1"/>
        <pt x="-800" y="2300" on="1"/>
        <pt x="-800" y="2500" on="1"/>
        <pt x="-600" y="2500" on="1"/>
      </contour>
    </TTGlyph>
    <TTGlyph name="glyph178" xMin="-700" yMin="1950" xMax="150" yMax="2350">
      <contour>
        <pt x="-700" y="2300" on="1"/>
        <pt x="-300" y="2300" on="1"/>
        <pt x="-300" y="2200" on="1"/>
        <pt x="-400" y="2200" on="1"/>
        <pt x="-400" y="2100" on="1"/>
        <pt x="-150" y="2100" on="1"/>
        <pt x="-150" y="2350" on="1"/>
        <pt x="150" y="2350" on="1"/>
        <pt x="150" y="2100" on="1"/>
        <pt x="150" y="1950" on="0"/>
        <pt x="-50" y="1950" on="1"/>
        <pt x="-700" y="1950" on="1"/>
      </contour>
    </TTGlyph>
    <TTGlyph name="glyph179" xMin="50" yMin="0" xMax="1950" yMax="1500">
      <contour>
        <pt x="550" y="370" on="1"/>
        <pt x="550" y="130" on="1"/>
        <pt x="600" y="130" on="0"/>
        <pt x="600" y="250" on="1"/>
        <pt x="600" y="370" on="0"/>
      </contour>
      <contour>
        <pt x="1216" y="1380" on="1"/>
        <pt x="1347" y="1500" on="0"/>
        <pt x="1450" y="1500" on="1"/>
        <pt x="1663" y="1500" on="1"/>
        <pt x="1950" y="1500" on="0"/>
        <pt x="1950" y="1200" on="1"/>
        <pt x="1950" y="0" on="1"/>
        <pt x="1550" y="0" on="1"/>
        <pt x="1550" y="1100" on="1"/>
        <pt x="1551" y="1107" on="0"/>
        <pt x="1551" y="1113" on="1"/>
        <pt x="1551" y="1200" on="0"/>
        <pt x="1450" y="1200" on="1"/>
        <pt x="1250" y="1200" on="1"/>
        <pt x="1250" y="0" on="1"/>
        <pt x="850" y="0" on="1"/>
        <pt x="850" y="1100" on="1"/>
        <pt x="850" y="1200" on="0"/>
        <pt x="800" y="1200" on="1"/>
        <pt x="750" y="1200" on="0"/>
        <pt x="657" y="1085" on="1"/>
        <pt x="553" y="1200" on="0"/>
        <pt x="400" y="1200" on="1"/>
        <pt x="300" y="1200" on="1"/>
        <pt x="171" y="1200" on="0"/>
        <pt x="171" y="1149" on="1"/>
        <pt x="171" y="1148" on="1"/>
        <pt x="172" y="1095" on="1"/>
        <pt x="173" y="1050" on="0"/>
        <pt x="310" y="1050" on="1"/>
        <pt x="400" y="1050" on="1"/>
        <pt x="550" y="1050" on="0"/>
        <pt x="550" y="950" on="1"/>
        <pt x="550" y="500" on="1"/>
        <pt x="700" y="500" on="0"/>
        <pt x="700" y="250" on="1"/>
        <pt x="700" y="0" on="0"/>
        <pt x="550" y="0" on="1"/>
        <pt x="300" y="0" on="1"/>
        <pt x="150" y="0" on="0"/>
        <pt x="150" y="100" on="1"/>
        <pt x="150" y="961" on="1"/>
        <pt x="50" y="999" on="0"/>
        <pt x="50" y="1068" on="1"/>
        <pt x="50" y="1340" on="1"/>
        <pt x="50" y="1500" on="0"/>
        <pt x="300" y="1500" on="1"/>
        <pt x="400" y="1500" on="1"/>
        <pt x="545" y="1500" on="0"/>
        <pt x="657" y="1363" on="1"/>
        <pt x="763" y="1500" on="0"/>
        <pt x="900" y="1500" on="1"/>
        <pt x="1000" y="1500" on="1"/>
        <pt x="1158" y="1500" on="0"/>
      </contour>
    </TTGlyph>
    <TTGlyph name="glyph180" xMin="-1950" yMin="-700" xMax="-850" yMax="-100">
      <contour>
        <pt x="-1550" y="-500" on="1"/>
        <pt x="-1550" y="-570" on="1"/>
        <pt x="-1500" y="-570" on="0"/>
        <pt x="-1500" y="-535" on="1"/>
        <pt x="-1500" y="-500" on="0"/>
      </contour>
      <contour>
        <pt x="-1250" y="-700" on="1"/>
        <pt x="-1250" y="-300" on="1"/>
        <pt x="-1250" y="-200" on="0"/>
        <pt x="-1400" y="-200" on="1"/>
        <pt x="-1550" y="-200" on="0"/>
        <pt x="-1550" y="-300" on="1"/>
        <pt x="-1550" y="-370" on="1"/>
        <pt x="-1400" y="-370" on="0"/>
        <pt x="-1400" y="-535" on="1"/>
        <pt x="-1400" y="-700" on="0"/>
        <pt x="-1550" y="-700" on="1"/>
        <pt x="-1800" y="-700" on="1"/>
        <pt x="-1950" y="-700" on="0"/>
        <pt x="-1950" y="-600" on="1"/>
        <pt x="-1950" y="-300" on="1"/>
        <pt x="-1950" y="-100" on="0"/>
        <pt x="-1600" y="-100" on="1"/>
        <pt x="-1200" y="-100" on="1"/>
        <pt x="-850" y="-100" on="0"/>
        <pt x="-850" y="-300" on="1"/>
        <pt x="-850" y="-700" on="1"/>
      </contour>
    </TTGlyph>
    <TTGlyph name="glyph181" xMin="-1250" yMin="-1200" xMax="-850" yMax="-750">
      <contour>
        <pt x="-850" y="-750" on="0"/>
        <pt x="-850" y="-825" on="1"/>
        <pt x="-850" y="-1200" on="1"/>
        <pt x="-1150" y="-1200" on="1"/>
        <pt x="-1150" y="-900" on="1"/>
        <pt x="-1150" y="-862" on="0"/>
        <pt x="-1250" y="-862" on="1"/>
        <pt x="-1250" y="-750" on="1"/>
        <pt x="-1000" y="-750" on="1"/>
      </contour>
    </TTGlyph>
    <TTGlyph name="glyph182" xMin="-1550" yMin="-1200" xMax="-850" yMax="-750">
      <contour>
        <pt x="-1500" y="-825" on="0"/>
        <pt x="-1550" y="-825" on="1"/>
        <pt x="-1550" y="-750" on="1"/>
        <pt x="-1425" y="-750" on="1"/>
        <pt x="-1300" y="-750" on="0"/>
        <pt x="-1300" y="-825" on="1"/>
        <pt x="-1300" y="-1067" on="1"/>
        <pt x="-1300" y="-1100" on="0"/>
        <pt x="-1225" y="-1100" on="1"/>
        <pt x="-1150" y="-1100" on="0"/>
        <pt x="-1150" y="-1067" on="1"/>
        <pt x="-1150" y="-750" on="1"/>
        <pt x="-850" y="-750" on="1"/>
        <pt x="-850" y="-1067" on="1"/>
        <pt x="-850" y="-1200" on="0"/>
        <pt x="-1225" y="-1200" on="1"/>
        <pt x="-1500" y="-1200" on="0"/>
        <pt x="-1500" y="-1067" on="1"/>
        <pt x="-1500" y="-862" on="1"/>
      </contour>
    </TTGlyph>
    <TTGlyph name="glyph183" xMin="-1600" yMin="-1200" xMax="-850" yMax="-750">
      <contour>
        <pt x="-1550" y="-825" on="0"/>
        <pt x="-1600" y="-825" on="1"/>
        <pt x="-1600" y="-750" on="1"/>
        <pt x="-1475" y="-750" on="1"/>
        <pt x="-1350" y="-750" on="0"/>
        <pt x="-1350" y="-825" on="1"/>
        <pt x="-1350" y="-1075" on="1"/>
        <pt x="-1250" y="-977" on="1"/>
        <pt x="-1150" y="-1075" on="1"/>
        <pt x="-1150" y="-750" on="1"/>
        <pt x="-850" y="-750" on="1"/>
        <pt x="-850" y="-1125" on="1"/>
        <pt x="-850" y="-1200" on="0"/>
        <pt x="-1000" y="-1200" on="1"/>
        <pt x="-1150" y="-1200" on="1"/>
        <pt x="-1250" y="-1102" on="1"/>
        <pt x="-1350" y="-1200" on="1"/>
        <pt x="-1450" y="-1200" on="1"/>
        <pt x="-1550" y="-1200" on="0"/>
        <pt x="-1550" y="-1125" on="1"/>
        <pt x="-1550" y="-862" on="1"/>
      </contour>
    </TTGlyph>
    <TTGlyph name="glyph185" xMin="-700" yMin="-1200" xMax="550" yMax="2150">
      <contour>
        <pt x="550" y="-1000" on="1"/>
        <pt x="550" y="-1200" on="0"/>
        <pt x="275" y="-1200" on="1"/>
        <pt x="-275" y="-1200" on="1"/>
        <pt x="-550" y="-1200" on="0"/>
        <pt x="-550" y="-1000" on="1"/>
        <pt x="-550" y="-750" on="1"/>
        <pt x="-150" y="-750" on="1"/>
        <pt x="-150" y="-1000" on="1"/>
        <pt x="-150" y="-1100" on="0"/>
        <pt x="0" y="-1100" on="1"/>
        <pt x="150" y="-1100" on="0"/>
        <pt x="150" y="-1000" on="1"/>
        <pt x="150" y="1600" on="1"/>
        <pt x="150" y="1700" on="0"/>
        <pt x="0" y="1700" on="1"/>
        <pt x="-700" y="1700" on="1"/>
        <pt x="-700" y="1900" on="1"/>
        <pt x="-700" y="2050" on="0"/>
        <pt x="-500" y="2050" on="1"/>
        <pt x="-200" y="2050" on="1"/>
        <pt x="-162" y="2050" on="0"/>
        <pt x="-100" y="2026" on="1"/>
        <pt x="-100" y="2150" on="1"/>
        <pt x="50" y="2150" on="1"/>
        <pt x="50" y="1954" on="1"/>
        <pt x="97" y="1928" on="0"/>
        <pt x="150" y="1895" on="1"/>
        <pt x="150" y="2150" on="1"/>
        <pt x="300" y="2150" on="1"/>
        <pt x="300" y="1795" on="1"/>
        <pt x="550" y="1769" on="0"/>
        <pt x="550" y="1600" on="1"/>
      </contour>
    </TTGlyph>
    <TTGlyph name="glyph186" xMin="-600" yMin="-1200" xMax="550" yMax="2300">
      <contour>
        <pt x="550" y="-1000" on="1"/>
        <pt x="550" y="-1200" on="0"/>
        <pt x="275" y="-1200" on="1"/>
        <pt x="-275" y="-1200" on="1"/>
        <pt x="-550" y="-1200" on="0"/>
        <pt x="-550" y="-1000" on="1"/>
        <pt x="-550" y="-750" on="1"/>
        <pt x="-150" y="-750" on="1"/>
        <pt x="-150" y="-1000" on="1"/>
        <pt x="-150" y="-1100" on="0"/>
        <pt x="0" y="-1100" on="1"/>
        <pt x="150" y="-1100" on="0"/>
        <pt x="150" y="-1000" on="1"/>
        <pt x="150" y="1650" on="1"/>
        <pt x="150" y="1750" on="0"/>
        <pt x="0" y="1750" on="1"/>
        <pt x="-150" y="1750" on="0"/>
        <pt x="-150" y="1650" on="1"/>
        <pt x="-550" y="1650" on="1"/>
        <pt x="-550" y="2050" on="1"/>
        <pt x="-550" y="2150" on="0"/>
        <pt x="-600" y="2150" on="1"/>
        <pt x="-600" y="2300" on="1"/>
        <pt x="-350" y="2300" on="1"/>
        <pt x="-150" y="2300" on="0"/>
        <pt x="-150" y="2150" on="1"/>
        <pt x="-150" y="1850" on="1"/>
        <pt x="200" y="1850" on="1"/>
        <pt x="550" y="1850" on="0"/>
        <pt x="550" y="1650" on="1"/>
      </contour>
    </TTGlyph>
    <TTGlyph name="glyph187" xMin="-1350" yMin="-1200" xMax="550" yMax="1500">
      <contour>
        <pt x="550" y="-1040" on="1"/>
        <pt x="550" y="-1200" on="0"/>
        <pt x="200" y="-1200" on="1"/>
        <pt x="-900" y="-1200" on="1"/>
        <pt x="-1250" y="-1200" on="0"/>
        <pt x="-1250" y="-1040" on="1"/>
        <pt x="-1250" y="-950" on="1"/>
        <pt x="-1250" y="-870" on="0"/>
        <pt x="-1350" y="-870" on="1"/>
        <pt x="-1350" y="-750" on="1"/>
        <pt x="-1050" y="-750" on="1"/>
        <pt x="-850" y="-750" on="0"/>
        <pt x="-850" y="-870" on="1"/>
        <pt x="-850" y="-1040" on="1"/>
        <pt x="-850" y="-1100" on="0"/>
        <pt x="-700" y="-1100" on="1"/>
        <pt x="-550" y="-1100" on="0"/>
        <pt x="-550" y="-1040" on="1"/>
        <pt x="-550" y="-950" on="1"/>
        <pt x="-550" y="-870" on="0"/>
        <pt x="-650" y="-870" on="1"/>
        <pt x="-650" y="-750" on="1"/>
        <pt x="-350" y="-750" on="1"/>
        <pt x="-150" y="-750" on="0"/>
        <pt x="-150" y="-870" on="1"/>
        <pt x="-150" y="-1040" on="1"/>
        <pt x="-150" y="-1100" on="0"/>
        <pt x="0" y="-1100" on="1"/>
        <pt x="150" y="-1100" on="0"/>
        <pt x="150" y="-1040" on="1"/>
        <pt x="150" y="945" on="1"/>
        <pt x="0" y="983" on="0"/>
        <pt x="0" y="1068" on="1"/>
        <pt x="0" y="1400" on="1"/>
        <pt x="0" y="1500" on="0"/>
        <pt x="134" y="1500" on="1"/>
        <pt x="263" y="1500" on="1"/>
        <pt x="359" y="1500" on="0"/>
        <pt x="430" y="1481" on="1"/>
        <pt x="454" y="1475" on="0"/>
        <pt x="475" y="1475" on="1"/>
        <pt x="517" y="1475" on="0"/>
        <pt x="550" y="1500" on="1"/>
        <pt x="550" y="1239" on="1"/>
        <pt x="509" y="1184" on="0"/>
        <pt x="442" y="1184" on="1"/>
        <pt x="427" y="1184" on="0"/>
        <pt x="412" y="1186" on="1"/>
        <pt x="323" y="1200" on="0"/>
        <pt x="212" y="1200" on="1"/>
        <pt x="122" y="1200" on="0"/>
        <pt x="122" y="1148" on="1"/>
        <pt x="122" y="1095" on="1"/>
        <pt x="122" y="1050" on="0"/>
        <pt x="260" y="1050" on="1"/>
        <pt x="350" y="1050" on="1"/>
        <pt x="550" y="1050" on="0"/>
        <pt x="550" y="950" on="1"/>
      </contour>
    </TTGlyph>
    <TTGlyph name="glyph188" xMin="-1350" yMin="-1200" xMax="550" yMax="1500">
      <contour>
        <pt x="550" y="-1040" on="1"/>
        <pt x="550" y="-1200" on="0"/>
        <pt x="200" y="-1200" on="1"/>
        <pt x="-600" y="-1200" on="1"/>
        <pt x="-850" y="-1200" on="0"/>
        <pt x="-850" y="-1040" on="1"/>
        <pt x="-850" y="-950" on="1"/>
        <pt x="-850" y="-850" on="0"/>
        <pt x="-950" y="-850" on="1"/>
        <pt x="-1050" y="-850" on="0"/>
        <pt x="-1050" y="-950" on="1"/>
        <pt x="-1050" y="-1000" on="1"/>
        <pt x="-950" y="-1000" on="0"/>
        <pt x="-950" y="-1100" on="1"/>
        <pt x="-950" y="-1200" on="0"/>
        <pt x="-1050" y="-1200" on="1"/>
        <pt x="-1200" y="-1200" on="1"/>
        <pt x="-1350" y="-1200" on="0"/>
        <pt x="-1350" y="-1100" on="1"/>
        <pt x="-1350" y="-950" on="1"/>
        <pt x="-1350" y="-750" on="0"/>
        <pt x="-1100" y="-750" on="1"/>
        <pt x="-800" y="-750" on="1"/>
        <pt x="-550" y="-750" on="0"/>
        <pt x="-550" y="-950" on="1"/>
        <pt x="-550" y="-1040" on="1"/>
        <pt x="-550" y="-1100" on="0"/>
        <pt x="-450" y="-1100" on="1"/>
        <pt x="-350" y="-1100" on="0"/>
        <pt x="-350" y="-1040" on="1"/>
        <pt x="-350" y="-950" on="1"/>
        <pt x="-350" y="-870" on="0"/>
        <pt x="-450" y="-870" on="1"/>
        <pt x="-450" y="-750" on="1"/>
        <pt x="-250" y="-750" on="1"/>
        <pt x="-50" y="-750" on="0"/>
        <pt x="-50" y="-870" on="1"/>
        <pt x="-50" y="-1040" on="1"/>
        <pt x="-50" y="-1100" on="0"/>
        <pt x="50" y="-1100" on="1"/>
        <pt x="150" y="-1100" on="0"/>
        <pt x="150" y="-1040" on="1"/>
        <pt x="150" y="945" on="1"/>
        <pt x="0" y="983" on="0"/>
        <pt x="0" y="1068" on="1"/>
        <pt x="0" y="1400" on="1"/>
        <pt x="0" y="1500" on="0"/>
        <pt x="134" y="1500" on="1"/>
        <pt x="263" y="1500" on="1"/>
        <pt x="359" y="1500" on="0"/>
        <pt x="430" y="1481" on="1"/>
        <pt x="454" y="1475" on="0"/>
        <pt x="475" y="1475" on="1"/>
        <pt x="517" y="1475" on="0"/>
        <pt x="550" y="1500" on="1"/>
        <pt x="550" y="1239" on="1"/>
        <pt x="509" y="1184" on="0"/>
        <pt x="442" y="1184" on="1"/>
        <pt x="427" y="1184" on="0"/>
        <pt x="412" y="1186" on="1"/>
        <pt x="323" y="1200" on="0"/>
        <pt x="212" y="1200" on="1"/>
        <pt x="122" y="1200" on="0"/>
        <pt x="122" y="1148" on="1"/>
        <pt x="122" y="1095" on="1"/>
        <pt x="122" y="1050" on="0"/>
        <pt x="260" y="1050" on="1"/>
        <pt x="350" y="1050" on="1"/>
        <pt x="550" y="1050" on="0"/>
        <pt x="550" y="950" on="1"/>
      </contour>
    </TTGlyph>
    <TTGlyph name="glyph189" xMin="-1350" yMin="-1200" xMax="550" yMax="1500">
      <contour>
        <pt x="550" y="-1101" on="1"/>
        <pt x="550" y="-1200" on="0"/>
        <pt x="400" y="-1200" on="1"/>
        <pt x="150" y="-1200" on="1"/>
        <pt x="150" y="-1132" on="0"/>
        <pt x="-4" y="-1110" on="0"/>
        <pt x="-100" y="-1110" on="1"/>
        <pt x="-150" y="-1110" on="1"/>
        <pt x="-150" y="-1200" on="0"/>
        <pt x="-375" y="-1200" on="1"/>
        <pt x="-600" y="-1200" on="0"/>
        <pt x="-600" y="-1101" on="1"/>
        <pt x="-600" y="-1075" on="0"/>
        <pt x="-546" y="-1029" on="0"/>
        <pt x="-498" y="-1016" on="1"/>
        <pt x="-459" y="-1005" on="0"/>
        <pt x="-417" y="-1003" on="1"/>
        <pt x="-550" y="-978" on="1"/>
        <pt x="-550" y="-921" on="1"/>
        <pt x="-550" y="-872" on="0"/>
        <pt x="-600" y="-872" on="1"/>
        <pt x="-650" y="-872" on="0"/>
        <pt x="-743" y="-929" on="1"/>
        <pt x="-847" y="-872" on="0"/>
        <pt x="-1000" y="-872" on="1"/>
        <pt x="-1100" y="-872" on="1"/>
        <pt x="-1229" y="-872" on="0"/>
        <pt x="-1229" y="-897" on="1"/>
        <pt x="-1228" y="-923" on="1"/>
        <pt x="-1227" y="-946" on="0"/>
        <pt x="-1090" y="-946" on="1"/>
        <pt x="-1000" y="-946" on="1"/>
        <pt x="-850" y="-946" on="0"/>
        <pt x="-850" y="-994" on="1"/>
        <pt x="-850" y="-1044" on="1"/>
        <pt x="-730" y="-1044" on="0"/>
        <pt x="-730" y="-1122" on="1"/>
        <pt x="-730" y="-1200" on="0"/>
        <pt x="-850" y="-1200" on="1"/>
        <pt x="-1100" y="-1200" on="1"/>
        <pt x="-1250" y="-1200" on="0"/>
        <pt x="-1250" y="-1150" on="1"/>
        <pt x="-1250" y="-989" on="1"/>
        <pt x="-1350" y="-971" on="0"/>
        <pt x="-1350" y="-937" on="1"/>
        <pt x="-1350" y="-804" on="1"/>
        <pt x="-1350" y="-750" on="0"/>
        <pt x="-1100" y="-750" on="1"/>
        <pt x="-1000" y="-750" on="1"/>
        <pt x="-855" y="-750" on="0"/>
        <pt x="-743" y="-792" on="1"/>
        <pt x="-637" y="-750" on="0"/>
        <pt x="-500" y="-750" on="1"/>
        <pt x="-400" y="-750" on="1"/>
        <pt x="-150" y="-750" on="0"/>
        <pt x="-150" y="-822" on="1"/>
        <pt x="-150" y="-1002" on="1"/>
        <pt x="-100" y="-1002" on="1"/>
        <pt x="47" y="-1002" on="0"/>
        <pt x="150" y="-1032" on="1"/>
        <pt x="150" y="945" on="1"/>
        <pt x="0" y="983" on="0"/>
        <pt x="0" y="1068" on="1"/>
        <pt x="0" y="1400" on="1"/>
        <pt x="0" y="1500" on="0"/>
        <pt x="134" y="1500" on="1"/>
        <pt x="263" y="1500" on="1"/>
        <pt x="359" y="1500" on="0"/>
        <pt x="430" y="1481" on="1"/>
        <pt x="454" y="1475" on="0"/>
        <pt x="475" y="1475" on="1"/>
        <pt x="517" y="1475" on="0"/>
        <pt x="550" y="1500" on="1"/>
        <pt x="550" y="1239" on="1"/>
        <pt x="509" y="1184" on="0"/>
        <pt x="442" y="1184" on="1"/>
        <pt x="427" y="1184" on="0"/>
        <pt x="412" y="1186" on="1"/>
        <pt x="323" y="1200" on="0"/>
        <pt x="212" y="1200" on="1"/>
        <pt x="121" y="1200" on="0"/>
        <pt x="121" y="1149" on="1"/>
        <pt x="121" y="1148" on="1"/>
        <pt x="122" y="1095" on="1"/>
        <pt x="123" y="1050" on="0"/>
        <pt x="260" y="1050" on="1"/>
        <pt x="350" y="1050" on="1"/>
        <pt x="550" y="1050" on="0"/>
        <pt x="550" y="950" on="1"/>
      </contour>
    </TTGlyph>
    <TTGlyph name="glyph190" xMin="-550" yMin="-1200" xMax="550" yMax="1500">
      <contour>
        <pt x="550" y="-1125" on="1"/>
        <pt x="550" y="-1200" on="0"/>
        <pt x="403" y="-1200" on="1"/>
        <pt x="150" y="-1200" on="1"/>
        <pt x="0" y="-1035" on="1"/>
        <pt x="-150" y="-1200" on="1"/>
        <pt x="-403" y="-1200" on="1"/>
        <pt x="-550" y="-1200" on="0"/>
        <pt x="-550" y="-1125" on="1"/>
        <pt x="-550" y="-861" on="1"/>
        <pt x="-550" y="-750" on="0"/>
        <pt x="-350" y="-750" on="1"/>
        <pt x="-100" y="-750" on="1"/>
        <pt x="-100" y="-824" on="1"/>
        <pt x="-150" y="-824" on="0"/>
        <pt x="-150" y="-899" on="1"/>
        <pt x="-150" y="-1035" on="1"/>
        <pt x="0" y="-870" on="1"/>
        <pt x="150" y="-1035" on="1"/>
        <pt x="150" y="945" on="1"/>
        <pt x="0" y="983" on="0"/>
        <pt x="0" y="1068" on="1"/>
        <pt x="0" y="1400" on="1"/>
        <pt x="0" y="1500" on="0"/>
        <pt x="134" y="1500" on="1"/>
        <pt x="263" y="1500" on="1"/>
        <pt x="359" y="1500" on="0"/>
        <pt x="430" y="1481" on="1"/>
        <pt x="454" y="1475" on="0"/>
        <pt x="475" y="1475" on="1"/>
        <pt x="517" y="1475" on="0"/>
        <pt x="550" y="1500" on="1"/>
        <pt x="550" y="1239" on="1"/>
        <pt x="509" y="1184" on="0"/>
        <pt x="442" y="1184" on="1"/>
        <pt x="427" y="1184" on="0"/>
        <pt x="412" y="1186" on="1"/>
        <pt x="323" y="1200" on="0"/>
        <pt x="212" y="1200" on="1"/>
        <pt x="122" y="1200" on="0"/>
        <pt x="122" y="1148" on="1"/>
        <pt x="122" y="1095" on="1"/>
        <pt x="122" y="1050" on="0"/>
        <pt x="260" y="1050" on="1"/>
        <pt x="350" y="1050" on="1"/>
        <pt x="550" y="1050" on="0"/>
        <pt x="550" y="950" on="1"/>
      </contour>
    </TTGlyph>
    <TTGlyph name="glyph191" xMin="-550" yMin="-1200" xMax="550" yMax="1500">
      <contour>
        <pt x="550" y="-1000" on="1"/>
        <pt x="550" y="-1200" on="0"/>
        <pt x="200" y="-1200" on="1"/>
        <pt x="-200" y="-1200" on="1"/>
        <pt x="-550" y="-1200" on="0"/>
        <pt x="-550" y="-1000" on="1"/>
        <pt x="-550" y="-850" on="1"/>
        <pt x="-550" y="-750" on="0"/>
        <pt x="-400" y="-750" on="1"/>
        <pt x="-200" y="-750" on="1"/>
        <pt x="-100" y="-750" on="0"/>
        <pt x="-100" y="-840" on="1"/>
        <pt x="-100" y="-930" on="0"/>
        <pt x="-150" y="-930" on="1"/>
        <pt x="-150" y="-1000" on="1"/>
        <pt x="-150" y="-1100" on="0"/>
        <pt x="0" y="-1100" on="1"/>
        <pt x="150" y="-1100" on="0"/>
        <pt x="150" y="-1000" on="1"/>
        <pt x="150" y="945" on="1"/>
        <pt x="0" y="983" on="0"/>
        <pt x="0" y="1068" on="1"/>
        <pt x="0" y="1400" on="1"/>
        <pt x="0" y="1500" on="0"/>
        <pt x="134" y="1500" on="1"/>
        <pt x="263" y="1500" on="1"/>
        <pt x="359" y="1500" on="0"/>
        <pt x="430" y="1481" on="1"/>
        <pt x="454" y="1475" on="0"/>
        <pt x="475" y="1475" on="1"/>
        <pt x="517" y="1475" on="0"/>
        <pt x="550" y="1500" on="1"/>
        <pt x="550" y="1239" on="1"/>
        <pt x="509" y="1184" on="0"/>
        <pt x="442" y="1184" on="1"/>
        <pt x="427" y="1184" on="0"/>
        <pt x="412" y="1186" on="1"/>
        <pt x="323" y="1200" on="0"/>
        <pt x="212" y="1200" on="1"/>
        <pt x="122" y="1200" on="0"/>
        <pt x="122" y="1148" on="1"/>
        <pt x="122" y="1095" on="1"/>
        <pt x="122" y="1050" on="0"/>
        <pt x="260" y="1050" on="1"/>
        <pt x="350" y="1050" on="1"/>
        <pt x="550" y="1050" on="0"/>
        <pt x="550" y="950" on="1"/>
      </contour>
    </TTGlyph>
    <TTGlyph name="glyph192" xMin="0" yMin="-1200" xMax="1250" yMax="1500">
      <contour>
        <pt x="550" y="-1000" on="1"/>
        <pt x="550" y="-1100" on="0"/>
        <pt x="700" y="-1100" on="1"/>
        <pt x="850" y="-1100" on="0"/>
        <pt x="850" y="-1000" on="1"/>
        <pt x="850" y="-750" on="1"/>
        <pt x="1250" y="-750" on="1"/>
        <pt x="1250" y="-1000" on="1"/>
        <pt x="1250" y="-1200" on="0"/>
        <pt x="900" y="-1200" on="1"/>
        <pt x="500" y="-1200" on="1"/>
        <pt x="150" y="-1200" on="0"/>
        <pt x="150" y="-1000" on="1"/>
        <pt x="150" y="945" on="1"/>
        <pt x="0" y="983" on="0"/>
        <pt x="0" y="1068" on="1"/>
        <pt x="0" y="1400" on="1"/>
        <pt x="0" y="1500" on="0"/>
        <pt x="134" y="1500" on="1"/>
        <pt x="263" y="1500" on="1"/>
        <pt x="359" y="1500" on="0"/>
        <pt x="430" y="1481" on="1"/>
        <pt x="454" y="1475" on="0"/>
        <pt x="475" y="1475" on="1"/>
        <pt x="517" y="1475" on="0"/>
        <pt x="550" y="1500" on="1"/>
        <pt x="550" y="1239" on="1"/>
        <pt x="509" y="1184" on="0"/>
        <pt x="442" y="1184" on="1"/>
        <pt x="427" y="1184" on="0"/>
        <pt x="412" y="1186" on="1"/>
        <pt x="323" y="1200" on="0"/>
        <pt x="212" y="1200" on="1"/>
        <pt x="122" y="1200" on="0"/>
        <pt x="122" y="1148" on="1"/>
        <pt x="122" y="1095" on="1"/>
        <pt x="122" y="1050" on="0"/>
        <pt x="260" y="1050" on="1"/>
        <pt x="350" y="1050" on="1"/>
        <pt x="550" y="1050" on="0"/>
        <pt x="550" y="950" on="1"/>
      </contour>
    </TTGlyph>
    <TTGlyph name="glyph193" xMin="-600" yMin="-1200" xMax="700" yMax="1500">
      <contour>
        <pt x="550" y="-1000" on="1"/>
        <pt x="550" y="-1200" on="0"/>
        <pt x="200" y="-1200" on="1"/>
        <pt x="-200" y="-1200" on="1"/>
        <pt x="-550" y="-1200" on="0"/>
        <pt x="-550" y="-1000" on="1"/>
        <pt x="-550" y="-899" on="1"/>
        <pt x="-550" y="-849" on="0"/>
        <pt x="-600" y="-849" on="1"/>
        <pt x="-600" y="-749" on="1"/>
        <pt x="-350" y="-749" on="1"/>
        <pt x="-150" y="-749" on="0"/>
        <pt x="-150" y="-849" on="1"/>
        <pt x="-150" y="-1000" on="1"/>
        <pt x="-150" y="-1100" on="0"/>
        <pt x="0" y="-1100" on="1"/>
        <pt x="150" y="-1100" on="0"/>
        <pt x="150" y="-1000" on="1"/>
        <pt x="150" y="0" on="1"/>
        <pt x="0" y="0" on="1"/>
        <pt x="0" y="100" on="1"/>
        <pt x="150" y="100" on="1"/>
        <pt x="150" y="945" on="1"/>
        <pt x="0" y="983" on="0"/>
        <pt x="0" y="1068" on="1"/>
        <pt x="0" y="1400" on="1"/>
        <pt x="0" y="1500" on="0"/>
        <pt x="134" y="1500" on="1"/>
        <pt x="263" y="1500" on="1"/>
        <pt x="359" y="1500" on="0"/>
        <pt x="430" y="1481" on="1"/>
        <pt x="454" y="1475" on="0"/>
        <pt x="475" y="1475" on="1"/>
        <pt x="517" y="1475" on="0"/>
        <pt x="550" y="1500" on="1"/>
        <pt x="550" y="1239" on="1"/>
        <pt x="509" y="1184" on="0"/>
        <pt x="442" y="1184" on="1"/>
        <pt x="427" y="1184" on="0"/>
        <pt x="412" y="1186" on="1"/>
        <pt x="323" y="1200" on="0"/>
        <pt x="212" y="1200" on="1"/>
        <pt x="122" y="1200" on="0"/>
        <pt x="122" y="1148" on="1"/>
        <pt x="122" y="1095" on="1"/>
        <pt x="122" y="1050" on="0"/>
        <pt x="260" y="1050" on="1"/>
        <pt x="350" y="1050" on="1"/>
        <pt x="550" y="1050" on="0"/>
        <pt x="550" y="950" on="1"/>
        <pt x="550" y="100" on="1"/>
        <pt x="700" y="100" on="1"/>
        <pt x="700" y="0" on="1"/>
        <pt x="550" y="0" on="1"/>
      </contour>
    </TTGlyph>
    <TTGlyph name="glyph194" xMin="-900" yMin="1650" xMax="0" yMax="2000">
      <contour>
        <pt x="-900" y="1650" on="1"/>
        <pt x="-900" y="1850" on="1"/>
        <pt x="-900" y="2000" on="0"/>
        <pt x="-700" y="2000" on="1"/>
        <pt x="-500" y="2000" on="1"/>
        <pt x="-380" y="2000" on="0"/>
        <pt x="0" y="1750" on="1"/>
        <pt x="0" y="1650" on="1"/>
      </contour>
    </TTGlyph>
    <TTGlyph name="glyph195" xMin="-900" yMin="1650" xMax="0" yMax="2100">
      <contour>
        <pt x="0" y="1650" on="1"/>
        <pt x="-900" y="1650" on="1"/>
        <pt x="-900" y="1850" on="1"/>
        <pt x="-900" y="2000" on="0"/>
        <pt x="-700" y="2000" on="1"/>
        <pt x="-500" y="2000" on="1"/>
        <pt x="-405" y="2000" on="0"/>
        <pt x="-150" y="1845" on="1"/>
        <pt x="-150" y="2100" on="1"/>
        <pt x="0" y="2100" on="1"/>
      </contour>
    </TTGlyph>
    <TTGlyph name="glyph196" xMin="-900" yMin="1650" xMax="0" yMax="2123">
      <contour>
        <pt x="-78" y="1801" on="1"/>
        <pt x="-41" y="1777" on="0"/>
        <pt x="0" y="1750" on="1"/>
        <pt x="0" y="1650" on="1"/>
        <pt x="-900" y="1650" on="1"/>
        <pt x="-900" y="1850" on="1"/>
        <pt x="-900" y="2000" on="0"/>
        <pt x="-700" y="2000" on="1"/>
        <pt x="-500" y="2000" on="1"/>
        <pt x="-448" y="2000" on="0"/>
        <pt x="-349" y="1954" on="1"/>
        <pt x="-348" y="1997" on="0"/>
        <pt x="-326" y="2036" on="1"/>
        <pt x="-303" y="2078" on="0"/>
        <pt x="-219" y="2123" on="0"/>
        <pt x="-175" y="2123" on="1"/>
        <pt x="-131" y="2123" on="0"/>
        <pt x="-47" y="2078" on="0"/>
        <pt x="0" y="1994" on="0"/>
        <pt x="0" y="1948" on="1"/>
        <pt x="0" y="1902" on="0"/>
        <pt x="-23" y="1861" on="1"/>
        <pt x="-43" y="1823" on="0"/>
      </contour>
      <contour>
        <pt x="-194" y="2023" on="0"/>
        <pt x="-229" y="2004" on="0"/>
        <pt x="-250" y="1968" on="0"/>
        <pt x="-250" y="1948" on="1"/>
        <pt x="-250" y="1928" on="0"/>
        <pt x="-230" y="1893" on="0"/>
        <pt x="-194" y="1873" on="0"/>
        <pt x="-175" y="1873" on="1"/>
        <pt x="-155" y="1873" on="0"/>
        <pt x="-119" y="1893" on="0"/>
        <pt x="-100" y="1928" on="0"/>
        <pt x="-100" y="1948" on="1"/>
        <pt x="-100" y="1968" on="0"/>
        <pt x="-120" y="2004" on="0"/>
        <pt x="-156" y="2023" on="0"/>
        <pt x="-175" y="2023" on="1"/>
      </contour>
    </TTGlyph>
    <TTGlyph name="glyph197" xMin="-900" yMin="1650" xMax="0" yMax="2100">
      <contour>
        <pt x="-250" y="1904" on="1"/>
        <pt x="-203" y="1878" on="0"/>
        <pt x="-150" y="1845" on="1"/>
        <pt x="-150" y="2100" on="1"/>
        <pt x="0" y="2100" on="1"/>
        <pt x="0" y="1650" on="1"/>
        <pt x="-900" y="1650" on="1"/>
        <pt x="-900" y="1850" on="1"/>
        <pt x="-900" y="2000" on="0"/>
        <pt x="-700" y="2000" on="1"/>
        <pt x="-500" y="2000" on="1"/>
        <pt x="-462" y="2000" on="0"/>
        <pt x="-400" y="1976" on="1"/>
        <pt x="-400" y="2100" on="1"/>
        <pt x="-250" y="2100" on="1"/>
      </contour>
    </TTGlyph>
    <TTGlyph name="glyph198" xMin="-725" yMin="1650" xMax="-125" yMax="2250">
      <contour>
        <pt x="-450" y="2050" on="0"/>
        <pt x="-498" y="2024" on="0"/>
        <pt x="-525" y="1976" on="0"/>
        <pt x="-525" y="1950" on="1"/>
        <pt x="-525" y="1924" on="0"/>
        <pt x="-498" y="1876" on="0"/>
        <pt x="-450" y="1850" on="0"/>
        <pt x="-425" y="1850" on="1"/>
        <pt x="-399" y="1850" on="0"/>
        <pt x="-351" y="1876" on="0"/>
        <pt x="-325" y="1924" on="0"/>
        <pt x="-325" y="1950" on="1"/>
        <pt x="-325" y="1976" on="0"/>
        <pt x="-352" y="2024" on="0"/>
        <pt x="-399" y="2050" on="0"/>
        <pt x="-425" y="2050" on="1"/>
      </contour>
      <contour>
        <pt x="-425" y="2250" on="1"/>
        <pt x="-349" y="2250" on="0"/>
        <pt x="-206" y="2173" on="0"/>
        <pt x="-125" y="2028" on="0"/>
        <pt x="-125" y="1950" on="1"/>
        <pt x="-125" y="1872" on="0"/>
        <pt x="-204" y="1729" on="0"/>
        <pt x="-347" y="1650" on="0"/>
        <pt x="-425" y="1650" on="1"/>
        <pt x="-502" y="1650" on="0"/>
        <pt x="-645" y="1729" on="0"/>
        <pt x="-725" y="1872" on="0"/>
        <pt x="-725" y="1950" on="1"/>
        <pt x="-725" y="2028" on="0"/>
        <pt x="-644" y="2173" on="0"/>
        <pt x="-501" y="2250" on="0"/>
      </contour>
    </TTGlyph>
    <TTGlyph name="glyph199" xMin="-700" yMin="1650" xMax="-150" yMax="2250">
      <contour>
        <pt x="-700" y="1650" on="1"/>
        <pt x="-700" y="2250" on="1"/>
        <pt x="-500" y="2250" on="1"/>
        <pt x="-500" y="1650" on="1"/>
      </contour>
      <contour>
        <pt x="-350" y="1650" on="1"/>
        <pt x="-350" y="2250" on="1"/>
        <pt x="-150" y="2250" on="1"/>
        <pt x="-150" y="1650" on="1"/>
      </contour>
    </TTGlyph>
    <TTGlyph name="glyph200" xMin="-900" yMin="1650" xMax="-50" yMax="2100">
      <contour>
        <pt x="-600" y="1760" on="1"/>
        <pt x="-470" y="1760" on="1"/>
        <pt x="-470" y="1650" on="1"/>
        <pt x="-900" y="1650" on="1"/>
        <pt x="-900" y="1950" on="1"/>
        <pt x="-487" y="1950" on="1"/>
        <pt x="-350" y="1950" on="0"/>
        <pt x="-350" y="2100" on="1"/>
        <pt x="-50" y="2100" on="1"/>
        <pt x="-50" y="1950" on="1"/>
        <pt x="-50" y="1850" on="0"/>
        <pt x="-325" y="1850" on="1"/>
        <pt x="-600" y="1850" on="1"/>
      </contour>
    </TTGlyph>
    <TTGlyph name="glyph201" xMin="-1100" yMin="1650" xMax="100" yMax="2200">
      <contour>
        <pt x="-200" y="1750" on="1"/>
        <pt x="-200" y="1650" on="1"/>
        <pt x="-1100" y="1650" on="1"/>
        <pt x="-1100" y="1850" on="1"/>
        <pt x="-1100" y="2000" on="0"/>
        <pt x="-900" y="2000" on="1"/>
        <pt x="-700" y="2000" on="1"/>
        <pt x="-648" y="2000" on="0"/>
        <pt x="-549" y="1954" on="1"/>
        <pt x="-550" y="2050" on="1"/>
        <pt x="-297" y="2050" on="1"/>
        <pt x="-200" y="2050" on="0"/>
        <pt x="-200" y="2200" on="1"/>
        <pt x="100" y="2200" on="1"/>
        <pt x="100" y="2050" on="1"/>
        <pt x="100" y="1950" on="0"/>
        <pt x="-175" y="1950" on="1"/>
        <pt x="-250" y="1950" on="1"/>
        <pt x="-250" y="1860" on="1"/>
        <pt x="-160" y="1860" on="1"/>
        <pt x="-160" y="1750" on="1"/>
      </contour>
    </TTGlyph>
    <TTGlyph name="glyph202" xMin="-975" yMin="-700" xMax="125" yMax="-100">
      <contour>
        <pt x="-975" y="-700" on="1"/>
        <pt x="-975" y="-300" on="1"/>
        <pt x="-975" y="-100" on="0"/>
        <pt x="-625" y="-100" on="1"/>
        <pt x="-225" y="-100" on="1"/>
        <pt x="125" y="-100" on="0"/>
        <pt x="125" y="-300" on="1"/>
        <pt x="125" y="-700" on="1"/>
        <pt x="-275" y="-700" on="1"/>
        <pt x="-275" y="-300" on="1"/>
        <pt x="-275" y="-200" on="0"/>
        <pt x="-425" y="-200" on="1"/>
        <pt x="-575" y="-200" on="0"/>
        <pt x="-575" y="-300" on="1"/>
        <pt x="-575" y="-700" on="1"/>
      </contour>
    </TTGlyph>
    <TTGlyph name="glyph203" xMin="-975" yMin="-700" xMax="125" yMax="-100">
      <contour>
        <pt x="-575" y="-308" on="1"/>
        <pt x="-792" y="-308" on="1"/>
        <pt x="-975" y="-308" on="0"/>
        <pt x="-975" y="-274" on="1"/>
        <pt x="-975" y="-236" on="1"/>
        <pt x="-975" y="-100" on="0"/>
        <pt x="-625" y="-100" on="1"/>
        <pt x="-225" y="-100" on="1"/>
        <pt x="125" y="-100" on="0"/>
        <pt x="125" y="-236" on="1"/>
        <pt x="125" y="-318" on="1"/>
        <pt x="125" y="-387" on="0"/>
        <pt x="-575" y="-455" on="0"/>
        <pt x="-575" y="-522" on="1"/>
        <pt x="-575" y="-563" on="1"/>
        <pt x="-575" y="-611" on="0"/>
        <pt x="-425" y="-611" on="1"/>
        <pt x="-275" y="-611" on="0"/>
        <pt x="-275" y="-563" on="1"/>
        <pt x="-275" y="-491" on="1"/>
        <pt x="125" y="-437" on="1"/>
        <pt x="125" y="-563" on="1"/>
        <pt x="125" y="-700" on="0"/>
        <pt x="-225" y="-700" on="1"/>
        <pt x="-625" y="-700" on="1"/>
        <pt x="-975" y="-700" on="0"/>
        <pt x="-975" y="-563" on="1"/>
        <pt x="-975" y="-481" on="1"/>
        <pt x="-975" y="-412" on="0"/>
        <pt x="-275" y="-344" on="0"/>
        <pt x="-275" y="-297" on="1"/>
        <pt x="-275" y="-236" on="1"/>
        <pt x="-275" y="-188" on="0"/>
        <pt x="-425" y="-188" on="1"/>
        <pt x="-575" y="-188" on="0"/>
        <pt x="-575" y="-236" on="1"/>
      </contour>
    </TTGlyph>
    <TTGlyph name="glyph204" xMin="-975" yMin="-700" xMax="125" yMax="-100">
      <contour>
        <pt x="-975" y="-700" on="1"/>
        <pt x="-975" y="-300" on="1"/>
        <pt x="-975" y="-100" on="0"/>
        <pt x="-625" y="-100" on="1"/>
        <pt x="-225" y="-100" on="1"/>
        <pt x="125" y="-100" on="0"/>
        <pt x="125" y="-300" on="1"/>
        <pt x="125" y="-700" on="1"/>
        <pt x="-275" y="-700" on="1"/>
        <pt x="-275" y="-300" on="1"/>
        <pt x="-275" y="-200" on="0"/>
        <pt x="-425" y="-200" on="1"/>
        <pt x="-575" y="-200" on="0"/>
        <pt x="-575" y="-300" on="1"/>
        <pt x="-575" y="-492" on="1"/>
        <pt x="-519" y="-417" on="0"/>
        <pt x="-437" y="-375" on="1"/>
        <pt x="-377" y="-464" on="1"/>
        <pt x="-468" y="-515" on="0"/>
        <pt x="-575" y="-700" on="1"/>
      </contour>
    </TTGlyph>
    <TTGlyph name="glyph205" xMin="-975" yMin="-700" xMax="125" yMax="-100">
      <contour>
        <pt x="-477" y="-700" on="1"/>
        <pt x="-791" y="-700" on="1"/>
        <pt x="-975" y="-700" on="0"/>
        <pt x="-975" y="-516" on="1"/>
        <pt x="-975" y="-300" on="1"/>
        <pt x="-975" y="-200" on="0"/>
        <pt x="-730" y="-200" on="1"/>
        <pt x="-456" y="-200" on="1"/>
        <pt x="-456" y="-300" on="1"/>
        <pt x="-575" y="-300" on="0"/>
        <pt x="-575" y="-400" on="1"/>
        <pt x="-575" y="-500" on="1"/>
        <pt x="-575" y="-600" on="0"/>
        <pt x="-477" y="-600" on="1"/>
        <pt x="-175" y="-600" on="0"/>
        <pt x="-175" y="-100" on="1"/>
        <pt x="125" y="-100" on="1"/>
        <pt x="125" y="-700" on="0"/>
      </contour>
    </TTGlyph>
    <TTGlyph name="glyph206" xMin="-1050" yMin="-700" xMax="200" yMax="-100">
      <contour>
        <pt x="100" y="-700" on="1"/>
        <pt x="-700" y="-700" on="1"/>
        <pt x="-950" y="-700" on="0"/>
        <pt x="-950" y="-550" on="1"/>
        <pt x="-950" y="-300" on="1"/>
        <pt x="-950" y="-200" on="0"/>
        <pt x="-1050" y="-200" on="1"/>
        <pt x="-1050" y="-100" on="1"/>
        <pt x="-800" y="-100" on="1"/>
        <pt x="-550" y="-100" on="0"/>
        <pt x="-550" y="-200" on="1"/>
        <pt x="-550" y="-500" on="1"/>
        <pt x="-550" y="-600" on="0"/>
        <pt x="-425" y="-600" on="1"/>
        <pt x="-300" y="-600" on="0"/>
        <pt x="-300" y="-500" on="1"/>
        <pt x="-300" y="-300" on="1"/>
        <pt x="-400" y="-300" on="1"/>
        <pt x="-400" y="-200" on="1"/>
        <pt x="-300" y="-200" on="1"/>
        <pt x="-300" y="-100" on="1"/>
        <pt x="100" y="-100" on="1"/>
        <pt x="100" y="-200" on="1"/>
        <pt x="200" y="-200" on="1"/>
        <pt x="200" y="-300" on="1"/>
        <pt x="100" y="-300" on="1"/>
      </contour>
    </TTGlyph>
    <TTGlyph name="glyph207" xMin="-975" yMin="-700" xMax="125" yMax="-100">
      <contour>
        <pt x="-275" y="-300" on="1"/>
        <pt x="-275" y="-200" on="1"/>
        <pt x="-288" y="-200" on="0"/>
        <pt x="-312" y="-213" on="0"/>
        <pt x="-325" y="-237" on="0"/>
        <pt x="-325" y="-250" on="1"/>
        <pt x="-325" y="-263" on="0"/>
        <pt x="-311" y="-287" on="0"/>
        <pt x="-288" y="-300" on="0"/>
      </contour>
      <contour>
        <pt x="-275" y="-479" on="1"/>
        <pt x="-275" y="-400" on="1"/>
        <pt x="-313" y="-400" on="0"/>
        <pt x="-384" y="-361" on="0"/>
        <pt x="-425" y="-289" on="0"/>
        <pt x="-425" y="-250" on="1"/>
        <pt x="-425" y="-211" on="0"/>
        <pt x="-385" y="-140" on="0"/>
        <pt x="-314" y="-100" on="0"/>
        <pt x="-275" y="-100" on="1"/>
        <pt x="-58" y="-100" on="1"/>
        <pt x="125" y="-100" on="0"/>
        <pt x="125" y="-250" on="1"/>
        <pt x="125" y="-570" on="1"/>
        <pt x="125" y="-700" on="0"/>
        <pt x="-25" y="-700" on="1"/>
        <pt x="-275" y="-700" on="1"/>
        <pt x="-275" y="-603" on="0"/>
        <pt x="-429" y="-520" on="0"/>
        <pt x="-525" y="-520" on="1"/>
        <pt x="-575" y="-520" on="1"/>
        <pt x="-575" y="-570" on="1"/>
        <pt x="-575" y="-700" on="0"/>
        <pt x="-800" y="-700" on="1"/>
        <pt x="-975" y="-700" on="0"/>
        <pt x="-975" y="-570" on="1"/>
        <pt x="-975" y="-424" on="0"/>
        <pt x="-842" y="-421" on="1"/>
        <pt x="-975" y="-370" on="1"/>
        <pt x="-975" y="-100" on="1"/>
        <pt x="-575" y="-100" on="1"/>
        <pt x="-575" y="-420" on="1"/>
        <pt x="-525" y="-420" on="1"/>
        <pt x="-378" y="-420" on="0"/>
      </contour>
    </TTGlyph>
    <TTGlyph name="glyph208" xMin="-1025" yMin="-700" xMax="175" yMax="-100">
      <contour>
        <pt x="75" y="-600" on="1"/>
        <pt x="75" y="-700" on="0"/>
        <pt x="-72" y="-700" on="1"/>
        <pt x="-325" y="-700" on="1"/>
        <pt x="-475" y="-504" on="1"/>
        <pt x="-625" y="-700" on="1"/>
        <pt x="-878" y="-700" on="1"/>
        <pt x="-1025" y="-700" on="0"/>
        <pt x="-1025" y="-600" on="1"/>
        <pt x="-1025" y="-100" on="1"/>
        <pt x="-625" y="-100" on="1"/>
        <pt x="-625" y="-527" on="1"/>
        <pt x="-475" y="-331" on="1"/>
        <pt x="-325" y="-527" on="1"/>
        <pt x="-325" y="-300" on="1"/>
        <pt x="-425" y="-300" on="1"/>
        <pt x="-425" y="-200" on="1"/>
        <pt x="-325" y="-200" on="1"/>
        <pt x="-325" y="-100" on="1"/>
        <pt x="75" y="-100" on="1"/>
        <pt x="75" y="-200" on="1"/>
        <pt x="175" y="-200" on="1"/>
        <pt x="175" y="-300" on="1"/>
        <pt x="75" y="-300" on="1"/>
      </contour>
    </TTGlyph>
    <TTGlyph name="glyph209" xMin="-975" yMin="-700" xMax="125" yMax="-200">
      <contour>
        <pt x="-975" y="-200" on="1"/>
        <pt x="-811" y="-200" on="1"/>
        <pt x="-626" y="-200" on="0"/>
        <pt x="-503" y="-400" on="1"/>
        <pt x="-380" y="-600" on="0"/>
        <pt x="-277" y="-600" on="1"/>
        <pt x="-175" y="-600" on="0"/>
        <pt x="-175" y="-500" on="1"/>
        <pt x="-175" y="-450" on="1"/>
        <pt x="-275" y="-450" on="1"/>
        <pt x="-275" y="-200" on="1"/>
        <pt x="-86" y="-200" on="1"/>
        <pt x="125" y="-200" on="0"/>
        <pt x="125" y="-400" on="1"/>
        <pt x="125" y="-500" on="1"/>
        <pt x="125" y="-700" on="0"/>
        <pt x="-86" y="-700" on="1"/>
        <pt x="-542" y="-700" on="1"/>
        <pt x="-712" y="-500" on="0"/>
        <pt x="-811" y="-500" on="1"/>
        <pt x="-975" y="-500" on="1"/>
      </contour>
    </TTGlyph>
    <TTGlyph name="glyph210" xMin="-975" yMin="-700" xMax="125" yMax="-100">
      <contour>
        <pt x="-575" y="-500" on="1"/>
        <pt x="-575" y="-570" on="1"/>
        <pt x="-525" y="-570" on="0"/>
        <pt x="-525" y="-535" on="1"/>
        <pt x="-525" y="-500" on="0"/>
      </contour>
      <contour>
        <pt x="-275" y="-700" on="1"/>
        <pt x="-275" y="-300" on="1"/>
        <pt x="-275" y="-200" on="0"/>
        <pt x="-425" y="-200" on="1"/>
        <pt x="-575" y="-200" on="0"/>
        <pt x="-575" y="-300" on="1"/>
        <pt x="-575" y="-370" on="1"/>
        <pt x="-425" y="-370" on="0"/>
        <pt x="-425" y="-535" on="1"/>
        <pt x="-425" y="-700" on="0"/>
        <pt x="-575" y="-700" on="1"/>
        <pt x="-825" y="-700" on="1"/>
        <pt x="-975" y="-700" on="0"/>
        <pt x="-975" y="-600" on="1"/>
        <pt x="-975" y="-300" on="1"/>
        <pt x="-975" y="-100" on="0"/>
        <pt x="-625" y="-100" on="1"/>
        <pt x="-225" y="-100" on="1"/>
        <pt x="125" y="-100" on="0"/>
        <pt x="125" y="-300" on="1"/>
        <pt x="125" y="-700" on="1"/>
      </contour>
    </TTGlyph>
    <TTGlyph name="glyph211" xMin="-1025" yMin="-650" xMax="175" yMax="-100">
      <contour>
        <pt x="-1025" y="-200" on="1"/>
        <pt x="-325" y="-200" on="1"/>
        <pt x="-325" y="-100" on="1"/>
        <pt x="75" y="-100" on="1"/>
        <pt x="75" y="-200" on="1"/>
        <pt x="175" y="-200" on="1"/>
        <pt x="175" y="-300" on="1"/>
        <pt x="75" y="-300" on="1"/>
        <pt x="75" y="-550" on="1"/>
        <pt x="75" y="-650" on="0"/>
        <pt x="-125" y="-650" on="1"/>
        <pt x="-325" y="-650" on="1"/>
        <pt x="-475" y="-480" on="1"/>
        <pt x="-625" y="-650" on="1"/>
        <pt x="-825" y="-650" on="1"/>
        <pt x="-1025" y="-650" on="0"/>
        <pt x="-1025" y="-550" on="1"/>
      </contour>
      <contour>
        <pt x="-325" y="-500" on="1"/>
        <pt x="-325" y="-300" on="1"/>
        <pt x="-625" y="-300" on="1"/>
        <pt x="-625" y="-500" on="1"/>
        <pt x="-475" y="-350" on="1"/>
      </contour>
    </TTGlyph>
    <TTGlyph name="glyph212" xMin="-975" yMin="-700" xMax="125" yMax="-100">
      <contour>
        <pt x="125" y="-318" on="1"/>
        <pt x="125" y="-387" on="0"/>
        <pt x="-575" y="-455" on="0"/>
        <pt x="-575" y="-522" on="1"/>
        <pt x="-575" y="-563" on="1"/>
        <pt x="-575" y="-611" on="0"/>
        <pt x="-495" y="-611" on="1"/>
        <pt x="-435" y="-611" on="0"/>
        <pt x="-275" y="-533" on="1"/>
        <pt x="-275" y="-491" on="1"/>
        <pt x="125" y="-437" on="1"/>
        <pt x="125" y="-700" on="1"/>
        <pt x="-275" y="-700" on="1"/>
        <pt x="-275" y="-620" on="1"/>
        <pt x="-420" y="-700" on="0"/>
        <pt x="-495" y="-700" on="1"/>
        <pt x="-625" y="-700" on="1"/>
        <pt x="-975" y="-700" on="0"/>
        <pt x="-975" y="-563" on="1"/>
        <pt x="-975" y="-481" on="1"/>
        <pt x="-975" y="-412" on="0"/>
        <pt x="-275" y="-344" on="0"/>
        <pt x="-275" y="-297" on="1"/>
        <pt x="-275" y="-249" on="1"/>
        <pt x="-275" y="-220" on="0"/>
        <pt x="-302" y="-220" on="1"/>
        <pt x="-370" y="-220" on="0"/>
        <pt x="-425" y="-306" on="1"/>
        <pt x="-480" y="-220" on="0"/>
        <pt x="-547" y="-220" on="1"/>
        <pt x="-575" y="-220" on="0"/>
        <pt x="-575" y="-249" on="1"/>
        <pt x="-575" y="-308" on="1"/>
        <pt x="-792" y="-308" on="1"/>
        <pt x="-975" y="-308" on="0"/>
        <pt x="-975" y="-274" on="1"/>
        <pt x="-975" y="-229" on="1"/>
        <pt x="-975" y="-100" on="0"/>
        <pt x="-810" y="-100" on="1"/>
        <pt x="-645" y="-100" on="1"/>
        <pt x="-495" y="-100" on="0"/>
        <pt x="-425" y="-188" on="1"/>
        <pt x="-355" y="-100" on="0"/>
        <pt x="-205" y="-100" on="1"/>
        <pt x="-40" y="-100" on="1"/>
        <pt x="125" y="-100" on="0"/>
        <pt x="125" y="-229" on="1"/>
      </contour>
    </TTGlyph>
    <TTGlyph name="glyph213" xMin="-975" yMin="-700" xMax="125" yMax="-100">
      <contour>
        <pt x="-575" y="-500" on="1"/>
        <pt x="-575" y="-570" on="1"/>
        <pt x="-525" y="-570" on="0"/>
        <pt x="-525" y="-535" on="1"/>
        <pt x="-525" y="-500" on="0"/>
      </contour>
      <contour>
        <pt x="-275" y="-700" on="1"/>
        <pt x="-275" y="-300" on="1"/>
        <pt x="-275" y="-200" on="0"/>
        <pt x="-425" y="-200" on="1"/>
        <pt x="-575" y="-200" on="0"/>
        <pt x="-575" y="-300" on="1"/>
        <pt x="-575" y="-370" on="1"/>
        <pt x="-425" y="-370" on="0"/>
        <pt x="-425" y="-535" on="1"/>
        <pt x="-425" y="-700" on="0"/>
        <pt x="-575" y="-700" on="1"/>
        <pt x="-825" y="-700" on="1"/>
        <pt x="-975" y="-700" on="0"/>
        <pt x="-975" y="-600" on="1"/>
        <pt x="-975" y="-300" on="1"/>
        <pt x="-975" y="-100" on="0"/>
        <pt x="-625" y="-100" on="1"/>
        <pt x="-225" y="-100" on="1"/>
        <pt x="125" y="-100" on="0"/>
        <pt x="125" y="-300" on="1"/>
        <pt x="125" y="-700" on="1"/>
      </contour>
    </TTGlyph>
    <TTGlyph name="glyph214" xMin="-975" yMin="-700" xMax="125" yMax="-150">
      <contour>
        <pt x="125" y="-700" on="1"/>
        <pt x="-39" y="-700" on="1"/>
        <pt x="-224" y="-700" on="0"/>
        <pt x="-408" y="-362" on="1"/>
        <pt x="-470" y="-250" on="0"/>
        <pt x="-572" y="-250" on="1"/>
        <pt x="-675" y="-250" on="0"/>
        <pt x="-675" y="-350" on="1"/>
        <pt x="-675" y="-400" on="1"/>
        <pt x="-575" y="-400" on="1"/>
        <pt x="-575" y="-650" on="1"/>
        <pt x="-764" y="-650" on="1"/>
        <pt x="-975" y="-650" on="0"/>
        <pt x="-975" y="-450" on="1"/>
        <pt x="-975" y="-350" on="1"/>
        <pt x="-975" y="-150" on="0"/>
        <pt x="-764" y="-150" on="1"/>
        <pt x="-536" y="-150" on="1"/>
        <pt x="-388" y="-150" on="0"/>
        <pt x="-263" y="-275" on="1"/>
        <pt x="-138" y="-400" on="0"/>
        <pt x="-39" y="-400" on="1"/>
        <pt x="125" y="-400" on="1"/>
      </contour>
    </TTGlyph>
    <TTGlyph name="glyph215" xMin="-975" yMin="-700" xMax="125" yMax="-100">
      <contour>
        <pt x="-275" y="-263" on="0"/>
        <pt x="-275" y="-200" on="1"/>
        <pt x="-388" y="-200" on="1"/>
        <pt x="-388" y="-100" on="1"/>
        <pt x="125" y="-100" on="1"/>
        <pt x="125" y="-219" on="1"/>
        <pt x="125" y="-338" on="0"/>
        <pt x="-205" y="-366" on="1"/>
        <pt x="-575" y="-394" on="1"/>
        <pt x="-575" y="-514" on="1"/>
        <pt x="125" y="-427" on="1"/>
        <pt x="125" y="-590" on="1"/>
        <pt x="125" y="-700" on="0"/>
        <pt x="-21" y="-700" on="1"/>
        <pt x="-381" y="-700" on="1"/>
        <pt x="-315" y="-645" on="1"/>
        <pt x="-315" y="-590" on="1"/>
        <pt x="-536" y="-645" on="1"/>
        <pt x="-975" y="-645" on="1"/>
        <pt x="-975" y="-318" on="1"/>
        <pt x="-450" y="-277" on="1"/>
      </contour>
    </TTGlyph>
    <TTGlyph name="glyph216" xMin="-975" yMin="-700" xMax="125" yMax="-100">
      <contour>
        <pt x="-241" y="-100" on="1"/>
        <pt x="125" y="-100" on="1"/>
        <pt x="125" y="-400" on="1"/>
        <pt x="125" y="-476" on="0"/>
        <pt x="34" y="-514" on="1"/>
        <pt x="-58" y="-552" on="0"/>
        <pt x="-241" y="-552" on="1"/>
        <pt x="-363" y="-518" on="1"/>
        <pt x="-363" y="-580" on="0"/>
        <pt x="-425" y="-640" on="1"/>
        <pt x="-486" y="-700" on="0"/>
        <pt x="-608" y="-700" on="1"/>
        <pt x="-975" y="-700" on="1"/>
        <pt x="-975" y="-326" on="1"/>
        <pt x="-608" y="-258" on="0"/>
        <pt x="-425" y="-202" on="1"/>
        <pt x="-241" y="-145" on="0"/>
      </contour>
      <contour>
        <pt x="-403" y="-372" on="1"/>
        <pt x="-241" y="-409" on="1"/>
        <pt x="-241" y="-280" on="1"/>
      </contour>
      <contour>
        <pt x="-608" y="-475" on="1"/>
        <pt x="-608" y="-580" on="1"/>
        <pt x="-547" y="-580" on="0"/>
        <pt x="-516" y="-550" on="1"/>
        <pt x="-486" y="-521" on="0"/>
        <pt x="-486" y="-462" on="1"/>
        <pt x="-486" y="-427" on="1"/>
      </contour>
    </TTGlyph>
    <TTGlyph name="glyph217" xMin="-975" yMin="-700" xMax="125" yMax="-100">
      <contour>
        <pt x="-975" y="-600" on="0"/>
        <pt x="-975" y="-500" on="1"/>
        <pt x="-975" y="-300" on="1"/>
        <pt x="-975" y="-200" on="0"/>
        <pt x="-775" y="-200" on="1"/>
        <pt x="-325" y="-200" on="1"/>
        <pt x="-325" y="-100" on="1"/>
        <pt x="25" y="-100" on="1"/>
        <pt x="25" y="-200" on="1"/>
        <pt x="125" y="-200" on="1"/>
        <pt x="125" y="-350" on="1"/>
        <pt x="25" y="-350" on="1"/>
        <pt x="25" y="-450" on="1"/>
        <pt x="125" y="-450" on="0"/>
        <pt x="125" y="-575" on="1"/>
        <pt x="125" y="-700" on="0"/>
        <pt x="-100" y="-700" on="1"/>
        <pt x="-325" y="-700" on="0"/>
        <pt x="-325" y="-600" on="1"/>
        <pt x="-775" y="-600" on="1"/>
      </contour>
      <contour>
        <pt x="-575" y="-450" on="1"/>
        <pt x="-325" y="-450" on="1"/>
        <pt x="-325" y="-350" on="1"/>
        <pt x="-575" y="-350" on="1"/>
      </contour>
    </TTGlyph>
    <TTGlyph name="glyph218" xMin="-975" yMin="-700" xMax="125" yMax="-100">
      <contour>
        <pt x="-275" y="-300" on="1"/>
        <pt x="-405" y="-300" on="0"/>
        <pt x="-405" y="-200" on="1"/>
        <pt x="-405" y="-100" on="0"/>
        <pt x="-275" y="-100" on="1"/>
        <pt x="-25" y="-100" on="1"/>
        <pt x="125" y="-100" on="0"/>
        <pt x="125" y="-169" on="1"/>
        <pt x="125" y="-600" on="1"/>
        <pt x="125" y="-700" on="0"/>
        <pt x="-22" y="-700" on="1"/>
        <pt x="-275" y="-700" on="1"/>
        <pt x="-425" y="-504" on="1"/>
        <pt x="-575" y="-700" on="1"/>
        <pt x="-828" y="-700" on="1"/>
        <pt x="-975" y="-700" on="0"/>
        <pt x="-975" y="-600" on="1"/>
        <pt x="-975" y="-100" on="1"/>
        <pt x="-575" y="-100" on="1"/>
        <pt x="-575" y="-527" on="1"/>
        <pt x="-425" y="-331" on="1"/>
        <pt x="-275" y="-527" on="1"/>
      </contour>
    </TTGlyph>
    <TTGlyph name="glyph219" xMin="-1025" yMin="-700" xMax="175" yMax="-100">
      <contour>
        <pt x="-525" y="-508" on="1"/>
        <pt x="-525" y="-619" on="1"/>
        <pt x="-475" y="-619" on="0"/>
        <pt x="-475" y="-563" on="1"/>
        <pt x="-475" y="-508" on="0"/>
      </contour>
      <contour>
        <pt x="-225" y="-700" on="1"/>
        <pt x="-225" y="-290" on="1"/>
        <pt x="-225" y="-236" on="0"/>
        <pt x="-275" y="-236" on="1"/>
        <pt x="-325" y="-236" on="0"/>
        <pt x="-418" y="-299" on="1"/>
        <pt x="-522" y="-236" on="0"/>
        <pt x="-675" y="-236" on="1"/>
        <pt x="-775" y="-236" on="1"/>
        <pt x="-904" y="-236" on="0"/>
        <pt x="-904" y="-264" on="1"/>
        <pt x="-903" y="-293" on="1"/>
        <pt x="-902" y="-318" on="0"/>
        <pt x="-765" y="-318" on="1"/>
        <pt x="-675" y="-318" on="1"/>
        <pt x="-525" y="-318" on="0"/>
        <pt x="-525" y="-372" on="1"/>
        <pt x="-525" y="-427" on="1"/>
        <pt x="-375" y="-427" on="0"/>
        <pt x="-375" y="-563" on="1"/>
        <pt x="-375" y="-700" on="0"/>
        <pt x="-525" y="-700" on="1"/>
        <pt x="-775" y="-700" on="1"/>
        <pt x="-925" y="-700" on="0"/>
        <pt x="-925" y="-645" on="1"/>
        <pt x="-925" y="-366" on="1"/>
        <pt x="-1025" y="-346" on="0"/>
        <pt x="-1025" y="-308" on="1"/>
        <pt x="-1025" y="-160" on="1"/>
        <pt x="-1025" y="-100" on="0"/>
        <pt x="-775" y="-100" on="1"/>
        <pt x="-675" y="-100" on="1"/>
        <pt x="-530" y="-100" on="0"/>
        <pt x="-418" y="-147" on="1"/>
        <pt x="-312" y="-100" on="0"/>
        <pt x="-175" y="-100" on="1"/>
        <pt x="-75" y="-100" on="1"/>
        <pt x="175" y="-100" on="0"/>
        <pt x="175" y="-181" on="1"/>
        <pt x="175" y="-700" on="1"/>
      </contour>
    </TTGlyph>
    <TTGlyph name="glyph220" xMin="-1025" yMin="-700" xMax="175" yMax="-100">
      <contour>
        <pt x="-525" y="-600" on="1"/>
        <pt x="-525" y="-700" on="0"/>
        <pt x="-675" y="-700" on="1"/>
        <pt x="-925" y="-700" on="1"/>
        <pt x="-1025" y="-700" on="0"/>
        <pt x="-1025" y="-535" on="1"/>
        <pt x="-1025" y="-370" on="0"/>
        <pt x="-925" y="-370" on="1"/>
        <pt x="-925" y="-300" on="1"/>
        <pt x="-925" y="-100" on="0"/>
        <pt x="-575" y="-100" on="1"/>
        <pt x="-175" y="-100" on="1"/>
        <pt x="175" y="-100" on="0"/>
        <pt x="175" y="-300" on="1"/>
        <pt x="175" y="-700" on="1"/>
        <pt x="-225" y="-700" on="1"/>
        <pt x="-225" y="-300" on="1"/>
        <pt x="-225" y="-200" on="0"/>
        <pt x="-375" y="-200" on="1"/>
        <pt x="-525" y="-200" on="0"/>
        <pt x="-525" y="-300" on="1"/>
      </contour>
    </TTGlyph>
    <TTGlyph name="glyph221" xMin="-1000" yMin="-700" xMax="150" yMax="-50">
      <contour>
        <pt x="-300" y="-300" on="1"/>
        <pt x="-300" y="-50" on="1"/>
        <pt x="100" y="-50" on="1"/>
        <pt x="100" y="-238" on="1"/>
        <pt x="-23" y="-301" on="1"/>
        <pt x="14" y="-306" on="0"/>
        <pt x="49" y="-325" on="1"/>
        <pt x="96" y="-351" on="0"/>
        <pt x="150" y="-447" on="0"/>
        <pt x="150" y="-500" on="1"/>
        <pt x="150" y="-552" on="0"/>
        <pt x="98" y="-647" on="0"/>
        <pt x="2" y="-700" on="0"/>
        <pt x="-50" y="-700" on="1"/>
        <pt x="-121" y="-700" on="0"/>
        <pt x="-247" y="-647" on="0"/>
        <pt x="-273" y="-599" on="1"/>
        <pt x="-286" y="-575" on="0"/>
        <pt x="-293" y="-549" on="1"/>
        <pt x="-1000" y="-550" on="1"/>
        <pt x="-1000" y="-300" on="1"/>
      </contour>
    </TTGlyph>
    <TTGlyph name="glyph222" xMin="-975" yMin="-650" xMax="125" yMax="-150">
      <contour>
        <pt x="-275" y="-650" on="1"/>
        <pt x="-575" y="-350" on="1"/>
        <pt x="-575" y="-650" on="1"/>
        <pt x="-975" y="-650" on="1"/>
        <pt x="-975" y="-150" on="1"/>
        <pt x="-575" y="-150" on="1"/>
        <pt x="-275" y="-449" on="1"/>
        <pt x="-275" y="-150" on="1"/>
        <pt x="125" y="-150" on="1"/>
        <pt x="125" y="-650" on="1"/>
      </contour>
    </TTGlyph>
    <TTGlyph name="glyph223" xMin="-976" yMin="-700" xMax="124" yMax="-100">
      <contour>
        <pt x="-487" y="-700" on="1"/>
        <pt x="-731" y="-700" on="0"/>
        <pt x="-853" y="-635" on="1"/>
        <pt x="-976" y="-570" on="0"/>
        <pt x="-976" y="-451" on="1"/>
        <pt x="-976" y="-350" on="1"/>
        <pt x="-762" y="-324" on="0"/>
        <pt x="-578" y="-262" on="1"/>
        <pt x="-395" y="-199" on="0"/>
        <pt x="-276" y="-100" on="1"/>
        <pt x="124" y="-100" on="1"/>
        <pt x="124" y="-201" on="1"/>
        <pt x="124" y="-448" on="0"/>
        <pt x="-76" y="-573" on="1"/>
        <pt x="-278" y="-700" on="0"/>
      </contour>
      <contour>
        <pt x="-609" y="-447" on="1"/>
        <pt x="-609" y="-497" on="0"/>
        <pt x="-578" y="-524" on="1"/>
        <pt x="-548" y="-549" on="0"/>
        <pt x="-487" y="-549" on="1"/>
        <pt x="-364" y="-549" on="0"/>
        <pt x="-320" y="-483" on="1"/>
        <pt x="-276" y="-417" on="0"/>
        <pt x="-276" y="-276" on="1"/>
        <pt x="-334" y="-338" on="0"/>
        <pt x="-426" y="-381" on="1"/>
        <pt x="-517" y="-423" on="0"/>
      </contour>
    </TTGlyph>
    <TTGlyph name="glyph224" xMin="-975" yMin="-650" xMax="125" yMax="-150">
      <contour>
        <pt x="-645" y="-525" on="1"/>
        <pt x="-535" y="-525" on="1"/>
        <pt x="-535" y="-150" on="1"/>
        <pt x="-40" y="-150" on="1"/>
        <pt x="43" y="-150" on="0"/>
        <pt x="84" y="-188" on="1"/>
        <pt x="125" y="-225" on="0"/>
        <pt x="125" y="-275" on="1"/>
        <pt x="125" y="-650" on="1"/>
        <pt x="-205" y="-650" on="1"/>
        <pt x="-205" y="-275" on="1"/>
        <pt x="-315" y="-275" on="1"/>
        <pt x="-315" y="-650" on="1"/>
        <pt x="-810" y="-650" on="1"/>
        <pt x="-892" y="-650" on="0"/>
        <pt x="-933" y="-612" on="1"/>
        <pt x="-975" y="-575" on="0"/>
        <pt x="-975" y="-525" on="1"/>
        <pt x="-975" y="-150" on="1"/>
        <pt x="-645" y="-150" on="1"/>
      </contour>
    </TTGlyph>
    <TTGlyph name="glyph225" xMin="-975" yMin="-700" xMax="125" yMax="-100">
      <contour>
        <pt x="125" y="-700" on="1"/>
        <pt x="-375" y="-700" on="1"/>
        <pt x="-375" y="-600" on="1"/>
        <pt x="-275" y="-600" on="1"/>
        <pt x="-275" y="-500" on="1"/>
        <pt x="-475" y="-500" on="1"/>
        <pt x="-475" y="-700" on="1"/>
        <pt x="-975" y="-700" on="1"/>
        <pt x="-975" y="-600" on="1"/>
        <pt x="-875" y="-600" on="1"/>
        <pt x="-875" y="-311" on="1"/>
        <pt x="-975" y="-251" on="1"/>
        <pt x="-975" y="-100" on="1"/>
        <pt x="-725" y="-100" on="1"/>
        <pt x="-475" y="-100" on="0"/>
        <pt x="-475" y="-301" on="1"/>
        <pt x="-475" y="-400" on="1"/>
        <pt x="-275" y="-400" on="1"/>
        <pt x="-275" y="-311" on="1"/>
        <pt x="-375" y="-251" on="1"/>
        <pt x="-375" y="-100" on="1"/>
        <pt x="-125" y="-100" on="1"/>
        <pt x="125" y="-100" on="0"/>
        <pt x="125" y="-301" on="1"/>
      </contour>
    </TTGlyph>
    <TTGlyph name="glyph226" xMin="-1950" yMin="-750" xMax="-850" yMax="-150">
      <contour>
        <pt x="-1950" y="-750" on="1"/>
        <pt x="-1950" y="-350" on="1"/>
        <pt x="-1950" y="-150" on="0"/>
        <pt x="-1600" y="-150" on="1"/>
        <pt x="-1200" y="-150" on="1"/>
        <pt x="-850" y="-150" on="0"/>
        <pt x="-850" y="-350" on="1"/>
        <pt x="-850" y="-750" on="1"/>
        <pt x="-1250" y="-750" on="1"/>
        <pt x="-1250" y="-350" on="1"/>
        <pt x="-1250" y="-250" on="0"/>
        <pt x="-1400" y="-250" on="1"/>
        <pt x="-1550" y="-250" on="0"/>
        <pt x="-1550" y="-350" on="1"/>
        <pt x="-1550" y="-750" on="1"/>
      </contour>
    </TTGlyph>
    <TTGlyph name="glyph227" xMin="-1950" yMin="-750" xMax="-850" yMax="-150">
      <contour>
        <pt x="-1550" y="-358" on="1"/>
        <pt x="-1767" y="-358" on="1"/>
        <pt x="-1950" y="-358" on="0"/>
        <pt x="-1950" y="-324" on="1"/>
        <pt x="-1950" y="-286" on="1"/>
        <pt x="-1950" y="-150" on="0"/>
        <pt x="-1600" y="-150" on="1"/>
        <pt x="-1200" y="-150" on="1"/>
        <pt x="-850" y="-150" on="0"/>
        <pt x="-850" y="-286" on="1"/>
        <pt x="-850" y="-368" on="1"/>
        <pt x="-850" y="-437" on="0"/>
        <pt x="-1550" y="-505" on="0"/>
        <pt x="-1550" y="-572" on="1"/>
        <pt x="-1550" y="-613" on="1"/>
        <pt x="-1550" y="-661" on="0"/>
        <pt x="-1400" y="-661" on="1"/>
        <pt x="-1250" y="-661" on="0"/>
        <pt x="-1250" y="-613" on="1"/>
        <pt x="-1250" y="-541" on="1"/>
        <pt x="-850" y="-487" on="1"/>
        <pt x="-850" y="-613" on="1"/>
        <pt x="-850" y="-750" on="0"/>
        <pt x="-1200" y="-750" on="1"/>
        <pt x="-1600" y="-750" on="1"/>
        <pt x="-1950" y="-750" on="0"/>
        <pt x="-1950" y="-613" on="1"/>
        <pt x="-1950" y="-531" on="1"/>
        <pt x="-1950" y="-462" on="0"/>
        <pt x="-1250" y="-394" on="0"/>
        <pt x="-1250" y="-347" on="1"/>
        <pt x="-1250" y="-286" on="1"/>
        <pt x="-1250" y="-238" on="0"/>
        <pt x="-1400" y="-238" on="1"/>
        <pt x="-1550" y="-238" on="0"/>
        <pt x="-1550" y="-286" on="1"/>
      </contour>
    </TTGlyph>
    <TTGlyph name="glyph228" xMin="-1950" yMin="-750" xMax="-850" yMax="-150">
      <contour>
        <pt x="-1950" y="-750" on="1"/>
        <pt x="-1950" y="-350" on="1"/>
        <pt x="-1950" y="-150" on="0"/>
        <pt x="-1600" y="-150" on="1"/>
        <pt x="-1200" y="-150" on="1"/>
        <pt x="-850" y="-150" on="0"/>
        <pt x="-850" y="-350" on="1"/>
        <pt x="-850" y="-750" on="1"/>
        <pt x="-1250" y="-750" on="1"/>
        <pt x="-1250" y="-350" on="1"/>
        <pt x="-1250" y="-250" on="0"/>
        <pt x="-1400" y="-250" on="1"/>
        <pt x="-1550" y="-250" on="0"/>
        <pt x="-1550" y="-350" on="1"/>
        <pt x="-1550" y="-542" on="1"/>
        <pt x="-1494" y="-467" on="0"/>
        <pt x="-1412" y="-425" on="1"/>
        <pt x="-1352" y="-514" on="1"/>
        <pt x="-1443" y="-565" on="0"/>
        <pt x="-1550" y="-750" on="1"/>
      </contour>
    </TTGlyph>
    <TTGlyph name="glyph229" xMin="-1950" yMin="-750" xMax="-850" yMax="-150">
      <contour>
        <pt x="-1452" y="-750" on="1"/>
        <pt x="-1766" y="-750" on="1"/>
        <pt x="-1950" y="-750" on="0"/>
        <pt x="-1950" y="-566" on="1"/>
        <pt x="-1950" y="-350" on="1"/>
        <pt x="-1950" y="-250" on="0"/>
        <pt x="-1705" y="-250" on="1"/>
        <pt x="-1431" y="-250" on="1"/>
        <pt x="-1431" y="-350" on="1"/>
        <pt x="-1550" y="-350" on="0"/>
        <pt x="-1550" y="-450" on="1"/>
        <pt x="-1550" y="-550" on="1"/>
        <pt x="-1550" y="-650" on="0"/>
        <pt x="-1452" y="-650" on="1"/>
        <pt x="-1150" y="-650" on="0"/>
        <pt x="-1150" y="-150" on="1"/>
        <pt x="-850" y="-150" on="1"/>
        <pt x="-850" y="-750" on="0"/>
      </contour>
    </TTGlyph>
    <TTGlyph name="glyph230" xMin="-2025" yMin="-750" xMax="-775" yMax="-150">
      <contour>
        <pt x="-875" y="-750" on="1"/>
        <pt x="-1675" y="-750" on="1"/>
        <pt x="-1925" y="-750" on="0"/>
        <pt x="-1925" y="-600" on="1"/>
        <pt x="-1925" y="-350" on="1"/>
        <pt x="-1925" y="-250" on="0"/>
        <pt x="-2025" y="-250" on="1"/>
        <pt x="-2025" y="-150" on="1"/>
        <pt x="-1775" y="-150" on="1"/>
        <pt x="-1525" y="-150" on="0"/>
        <pt x="-1525" y="-250" on="1"/>
        <pt x="-1525" y="-550" on="1"/>
        <pt x="-1525" y="-650" on="0"/>
        <pt x="-1400" y="-650" on="1"/>
        <pt x="-1275" y="-650" on="0"/>
        <pt x="-1275" y="-550" on="1"/>
        <pt x="-1275" y="-350" on="1"/>
        <pt x="-1375" y="-350" on="1"/>
        <pt x="-1375" y="-250" on="1"/>
        <pt x="-1275" y="-250" on="1"/>
        <pt x="-1275" y="-150" on="1"/>
        <pt x="-875" y="-150" on="1"/>
        <pt x="-875" y="-250" on="1"/>
        <pt x="-775" y="-250" on="1"/>
        <pt x="-775" y="-350" on="1"/>
        <pt x="-875" y="-350" on="1"/>
      </contour>
    </TTGlyph>
    <TTGlyph name="glyph231" xMin="-1950" yMin="-750" xMax="-850" yMax="-150">
      <contour>
        <pt x="-1250" y="-350" on="1"/>
        <pt x="-1250" y="-250" on="1"/>
        <pt x="-1263" y="-250" on="0"/>
        <pt x="-1287" y="-263" on="0"/>
        <pt x="-1300" y="-287" on="0"/>
        <pt x="-1300" y="-300" on="1"/>
        <pt x="-1300" y="-313" on="0"/>
        <pt x="-1286" y="-337" on="0"/>
        <pt x="-1263" y="-350" on="0"/>
      </contour>
      <contour>
        <pt x="-1250" y="-529" on="1"/>
        <pt x="-1250" y="-450" on="1"/>
        <pt x="-1288" y="-450" on="0"/>
        <pt x="-1359" y="-411" on="0"/>
        <pt x="-1400" y="-339" on="0"/>
        <pt x="-1400" y="-300" on="1"/>
        <pt x="-1400" y="-261" on="0"/>
        <pt x="-1360" y="-190" on="0"/>
        <pt x="-1289" y="-150" on="0"/>
        <pt x="-1250" y="-150" on="1"/>
        <pt x="-1033" y="-150" on="1"/>
        <pt x="-850" y="-150" on="0"/>
        <pt x="-850" y="-300" on="1"/>
        <pt x="-850" y="-620" on="1"/>
        <pt x="-850" y="-750" on="0"/>
        <pt x="-1000" y="-750" on="1"/>
        <pt x="-1250" y="-750" on="1"/>
        <pt x="-1250" y="-653" on="0"/>
        <pt x="-1404" y="-570" on="0"/>
        <pt x="-1500" y="-570" on="1"/>
        <pt x="-1550" y="-570" on="1"/>
        <pt x="-1550" y="-620" on="1"/>
        <pt x="-1550" y="-750" on="0"/>
        <pt x="-1775" y="-750" on="1"/>
        <pt x="-1950" y="-750" on="0"/>
        <pt x="-1950" y="-620" on="1"/>
        <pt x="-1950" y="-474" on="0"/>
        <pt x="-1817" y="-471" on="1"/>
        <pt x="-1950" y="-420" on="1"/>
        <pt x="-1950" y="-150" on="1"/>
        <pt x="-1550" y="-150" on="1"/>
        <pt x="-1550" y="-470" on="1"/>
        <pt x="-1500" y="-470" on="1"/>
        <pt x="-1353" y="-470" on="0"/>
      </contour>
    </TTGlyph>
    <TTGlyph name="glyph232" xMin="-2000" yMin="-750" xMax="-800" yMax="-150">
      <contour>
        <pt x="-900" y="-650" on="1"/>
        <pt x="-900" y="-750" on="0"/>
        <pt x="-1047" y="-750" on="1"/>
        <pt x="-1300" y="-750" on="1"/>
        <pt x="-1450" y="-554" on="1"/>
        <pt x="-1600" y="-750" on="1"/>
        <pt x="-1853" y="-750" on="1"/>
        <pt x="-2000" y="-750" on="0"/>
        <pt x="-2000" y="-650" on="1"/>
        <pt x="-2000" y="-150" on="1"/>
        <pt x="-1600" y="-150" on="1"/>
        <pt x="-1600" y="-577" on="1"/>
        <pt x="-1450" y="-381" on="1"/>
        <pt x="-1300" y="-577" on="1"/>
        <pt x="-1300" y="-350" on="1"/>
        <pt x="-1400" y="-350" on="1"/>
        <pt x="-1400" y="-250" on="1"/>
        <pt x="-1300" y="-250" on="1"/>
        <pt x="-1300" y="-150" on="1"/>
        <pt x="-900" y="-150" on="1"/>
        <pt x="-900" y="-250" on="1"/>
        <pt x="-800" y="-250" on="1"/>
        <pt x="-800" y="-350" on="1"/>
        <pt x="-900" y="-350" on="1"/>
      </contour>
    </TTGlyph>
    <TTGlyph name="glyph233" xMin="-1950" yMin="-700" xMax="-850" yMax="-200">
      <contour>
        <pt x="-1950" y="-200" on="1"/>
        <pt x="-1786" y="-200" on="1"/>
        <pt x="-1601" y="-200" on="0"/>
        <pt x="-1478" y="-400" on="1"/>
        <pt x="-1355" y="-600" on="0"/>
        <pt x="-1252" y="-600" on="1"/>
        <pt x="-1150" y="-600" on="0"/>
        <pt x="-1150" y="-500" on="1"/>
        <pt x="-1150" y="-450" on="1"/>
        <pt x="-1250" y="-450" on="1"/>
        <pt x="-1250" y="-200" on="1"/>
        <pt x="-1061" y="-200" on="1"/>
        <pt x="-850" y="-200" on="0"/>
        <pt x="-850" y="-400" on="1"/>
        <pt x="-850" y="-500" on="1"/>
        <pt x="-850" y="-700" on="0"/>
        <pt x="-1061" y="-700" on="1"/>
        <pt x="-1517" y="-700" on="1"/>
        <pt x="-1687" y="-500" on="0"/>
        <pt x="-1786" y="-500" on="1"/>
        <pt x="-1950" y="-500" on="1"/>
      </contour>
    </TTGlyph>
    <TTGlyph name="glyph234" xMin="-1950" yMin="-750" xMax="-850" yMax="-150">
      <contour>
        <pt x="-1550" y="-550" on="1"/>
        <pt x="-1550" y="-620" on="1"/>
        <pt x="-1500" y="-620" on="0"/>
        <pt x="-1500" y="-585" on="1"/>
        <pt x="-1500" y="-550" on="0"/>
      </contour>
      <contour>
        <pt x="-1250" y="-750" on="1"/>
        <pt x="-1250" y="-350" on="1"/>
        <pt x="-1250" y="-250" on="0"/>
        <pt x="-1400" y="-250" on="1"/>
        <pt x="-1550" y="-250" on="0"/>
        <pt x="-1550" y="-350" on="1"/>
        <pt x="-1550" y="-420" on="1"/>
        <pt x="-1400" y="-420" on="0"/>
        <pt x="-1400" y="-585" on="1"/>
        <pt x="-1400" y="-750" on="0"/>
        <pt x="-1550" y="-750" on="1"/>
        <pt x="-1800" y="-750" on="1"/>
        <pt x="-1950" y="-750" on="0"/>
        <pt x="-1950" y="-650" on="1"/>
        <pt x="-1950" y="-350" on="1"/>
        <pt x="-1950" y="-150" on="0"/>
        <pt x="-1600" y="-150" on="1"/>
        <pt x="-1200" y="-150" on="1"/>
        <pt x="-850" y="-150" on="0"/>
        <pt x="-850" y="-350" on="1"/>
        <pt x="-850" y="-750" on="1"/>
      </contour>
    </TTGlyph>
    <TTGlyph name="glyph235" xMin="-1950" yMin="-700" xMax="-750" yMax="-150">
      <contour>
        <pt x="-1950" y="-250" on="1"/>
        <pt x="-1250" y="-250" on="1"/>
        <pt x="-1250" y="-150" on="1"/>
        <pt x="-850" y="-150" on="1"/>
        <pt x="-850" y="-250" on="1"/>
        <pt x="-750" y="-250" on="1"/>
        <pt x="-750" y="-350" on="1"/>
        <pt x="-850" y="-350" on="1"/>
        <pt x="-850" y="-600" on="1"/>
        <pt x="-850" y="-700" on="0"/>
        <pt x="-1050" y="-700" on="1"/>
        <pt x="-1250" y="-700" on="1"/>
        <pt x="-1400" y="-530" on="1"/>
        <pt x="-1550" y="-700" on="1"/>
        <pt x="-1750" y="-700" on="1"/>
        <pt x="-1950" y="-700" on="0"/>
        <pt x="-1950" y="-600" on="1"/>
      </contour>
      <contour>
        <pt x="-1250" y="-550" on="1"/>
        <pt x="-1250" y="-350" on="1"/>
        <pt x="-1550" y="-350" on="1"/>
        <pt x="-1550" y="-550" on="1"/>
        <pt x="-1400" y="-400" on="1"/>
      </contour>
    </TTGlyph>
    <TTGlyph name="glyph236" xMin="-1950" yMin="-750" xMax="-850" yMax="-150">
      <contour>
        <pt x="-850" y="-368" on="1"/>
        <pt x="-850" y="-437" on="0"/>
        <pt x="-1550" y="-505" on="0"/>
        <pt x="-1550" y="-572" on="1"/>
        <pt x="-1550" y="-613" on="1"/>
        <pt x="-1550" y="-661" on="0"/>
        <pt x="-1470" y="-661" on="1"/>
        <pt x="-1410" y="-661" on="0"/>
        <pt x="-1250" y="-583" on="1"/>
        <pt x="-1250" y="-541" on="1"/>
        <pt x="-850" y="-487" on="1"/>
        <pt x="-850" y="-750" on="1"/>
        <pt x="-1250" y="-750" on="1"/>
        <pt x="-1250" y="-670" on="1"/>
        <pt x="-1395" y="-750" on="0"/>
        <pt x="-1470" y="-750" on="1"/>
        <pt x="-1600" y="-750" on="1"/>
        <pt x="-1950" y="-750" on="0"/>
        <pt x="-1950" y="-613" on="1"/>
        <pt x="-1950" y="-531" on="1"/>
        <pt x="-1950" y="-462" on="0"/>
        <pt x="-1250" y="-394" on="0"/>
        <pt x="-1250" y="-347" on="1"/>
        <pt x="-1250" y="-299" on="1"/>
        <pt x="-1250" y="-270" on="0"/>
        <pt x="-1277" y="-270" on="1"/>
        <pt x="-1345" y="-270" on="0"/>
        <pt x="-1400" y="-356" on="1"/>
        <pt x="-1455" y="-270" on="0"/>
        <pt x="-1522" y="-270" on="1"/>
        <pt x="-1550" y="-270" on="0"/>
        <pt x="-1550" y="-299" on="1"/>
        <pt x="-1550" y="-358" on="1"/>
        <pt x="-1767" y="-358" on="1"/>
        <pt x="-1950" y="-358" on="0"/>
        <pt x="-1950" y="-324" on="1"/>
        <pt x="-1950" y="-279" on="1"/>
        <pt x="-1950" y="-150" on="0"/>
        <pt x="-1785" y="-150" on="1"/>
        <pt x="-1620" y="-150" on="1"/>
        <pt x="-1470" y="-150" on="0"/>
        <pt x="-1400" y="-238" on="1"/>
        <pt x="-1330" y="-150" on="0"/>
        <pt x="-1180" y="-150" on="1"/>
        <pt x="-1015" y="-150" on="1"/>
        <pt x="-850" y="-150" on="0"/>
        <pt x="-850" y="-279" on="1"/>
      </contour>
    </TTGlyph>
    <TTGlyph name="glyph237" xMin="-1950" yMin="-750" xMax="-850" yMax="-150">
      <contour>
        <pt x="-1550" y="-550" on="1"/>
        <pt x="-1550" y="-620" on="1"/>
        <pt x="-1500" y="-620" on="0"/>
        <pt x="-1500" y="-585" on="1"/>
        <pt x="-1500" y="-550" on="0"/>
      </contour>
      <contour>
        <pt x="-1250" y="-750" on="1"/>
        <pt x="-1250" y="-350" on="1"/>
        <pt x="-1250" y="-250" on="0"/>
        <pt x="-1400" y="-250" on="1"/>
        <pt x="-1550" y="-250" on="0"/>
        <pt x="-1550" y="-350" on="1"/>
        <pt x="-1550" y="-420" on="1"/>
        <pt x="-1400" y="-420" on="0"/>
        <pt x="-1400" y="-585" on="1"/>
        <pt x="-1400" y="-750" on="0"/>
        <pt x="-1550" y="-750" on="1"/>
        <pt x="-1800" y="-750" on="1"/>
        <pt x="-1950" y="-750" on="0"/>
        <pt x="-1950" y="-650" on="1"/>
        <pt x="-1950" y="-350" on="1"/>
        <pt x="-1950" y="-150" on="0"/>
        <pt x="-1600" y="-150" on="1"/>
        <pt x="-1200" y="-150" on="1"/>
        <pt x="-850" y="-150" on="0"/>
        <pt x="-850" y="-350" on="1"/>
        <pt x="-850" y="-750" on="1"/>
      </contour>
    </TTGlyph>
    <TTGlyph name="glyph238" xMin="-1950" yMin="-700" xMax="-850" yMax="-150">
      <contour>
        <pt x="-850" y="-700" on="1"/>
        <pt x="-1014" y="-700" on="1"/>
        <pt x="-1199" y="-700" on="0"/>
        <pt x="-1383" y="-362" on="1"/>
        <pt x="-1445" y="-250" on="0"/>
        <pt x="-1547" y="-250" on="1"/>
        <pt x="-1650" y="-250" on="0"/>
        <pt x="-1650" y="-350" on="1"/>
        <pt x="-1650" y="-400" on="1"/>
        <pt x="-1550" y="-400" on="1"/>
        <pt x="-1550" y="-650" on="1"/>
        <pt x="-1739" y="-650" on="1"/>
        <pt x="-1950" y="-650" on="0"/>
        <pt x="-1950" y="-450" on="1"/>
        <pt x="-1950" y="-350" on="1"/>
        <pt x="-1950" y="-150" on="0"/>
        <pt x="-1739" y="-150" on="1"/>
        <pt x="-1511" y="-150" on="1"/>
        <pt x="-1363" y="-150" on="0"/>
        <pt x="-1238" y="-275" on="1"/>
        <pt x="-1113" y="-400" on="0"/>
        <pt x="-1014" y="-400" on="1"/>
        <pt x="-850" y="-400" on="1"/>
      </contour>
    </TTGlyph>
    <TTGlyph name="glyph239" xMin="-1950" yMin="-750" xMax="-850" yMax="-150">
      <contour>
        <pt x="-1250" y="-313" on="0"/>
        <pt x="-1250" y="-250" on="1"/>
        <pt x="-1363" y="-250" on="1"/>
        <pt x="-1363" y="-150" on="1"/>
        <pt x="-850" y="-150" on="1"/>
        <pt x="-850" y="-269" on="1"/>
        <pt x="-850" y="-388" on="0"/>
        <pt x="-1180" y="-416" on="1"/>
        <pt x="-1550" y="-444" on="1"/>
        <pt x="-1550" y="-564" on="1"/>
        <pt x="-850" y="-477" on="1"/>
        <pt x="-850" y="-640" on="1"/>
        <pt x="-850" y="-750" on="0"/>
        <pt x="-996" y="-750" on="1"/>
        <pt x="-1356" y="-750" on="1"/>
        <pt x="-1290" y="-695" on="1"/>
        <pt x="-1290" y="-640" on="1"/>
        <pt x="-1511" y="-695" on="1"/>
        <pt x="-1950" y="-695" on="1"/>
        <pt x="-1950" y="-368" on="1"/>
        <pt x="-1425" y="-327" on="1"/>
      </contour>
    </TTGlyph>
    <TTGlyph name="glyph240" xMin="-1950" yMin="-750" xMax="-850" yMax="-150">
      <contour>
        <pt x="-1216" y="-150" on="1"/>
        <pt x="-850" y="-150" on="1"/>
        <pt x="-850" y="-450" on="1"/>
        <pt x="-850" y="-526" on="0"/>
        <pt x="-941" y="-564" on="1"/>
        <pt x="-1033" y="-602" on="0"/>
        <pt x="-1216" y="-602" on="1"/>
        <pt x="-1338" y="-568" on="1"/>
        <pt x="-1338" y="-630" on="0"/>
        <pt x="-1400" y="-690" on="1"/>
        <pt x="-1461" y="-750" on="0"/>
        <pt x="-1583" y="-750" on="1"/>
        <pt x="-1950" y="-750" on="1"/>
        <pt x="-1950" y="-376" on="1"/>
        <pt x="-1583" y="-308" on="0"/>
        <pt x="-1400" y="-252" on="1"/>
        <pt x="-1216" y="-195" on="0"/>
      </contour>
      <contour>
        <pt x="-1378" y="-422" on="1"/>
        <pt x="-1216" y="-459" on="1"/>
        <pt x="-1216" y="-330" on="1"/>
      </contour>
      <contour>
        <pt x="-1583" y="-525" on="1"/>
        <pt x="-1583" y="-630" on="1"/>
        <pt x="-1522" y="-630" on="0"/>
        <pt x="-1491" y="-600" on="1"/>
        <pt x="-1461" y="-571" on="0"/>
        <pt x="-1461" y="-512" on="1"/>
        <pt x="-1461" y="-477" on="1"/>
      </contour>
    </TTGlyph>
    <TTGlyph name="glyph241" xMin="-1950" yMin="-750" xMax="-850" yMax="-150">
      <contour>
        <pt x="-1950" y="-650" on="0"/>
        <pt x="-1950" y="-550" on="1"/>
        <pt x="-1950" y="-350" on="1"/>
        <pt x="-1950" y="-250" on="0"/>
        <pt x="-1750" y="-250" on="1"/>
        <pt x="-1300" y="-250" on="1"/>
        <pt x="-1300" y="-150" on="1"/>
        <pt x="-950" y="-150" on="1"/>
        <pt x="-950" y="-250" on="1"/>
        <pt x="-850" y="-250" on="1"/>
        <pt x="-850" y="-400" on="1"/>
        <pt x="-950" y="-400" on="1"/>
        <pt x="-950" y="-500" on="1"/>
        <pt x="-850" y="-500" on="0"/>
        <pt x="-850" y="-625" on="1"/>
        <pt x="-850" y="-750" on="0"/>
        <pt x="-1075" y="-750" on="1"/>
        <pt x="-1300" y="-750" on="0"/>
        <pt x="-1300" y="-650" on="1"/>
        <pt x="-1750" y="-650" on="1"/>
      </contour>
      <contour>
        <pt x="-1550" y="-500" on="1"/>
        <pt x="-1300" y="-500" on="1"/>
        <pt x="-1300" y="-400" on="1"/>
        <pt x="-1550" y="-400" on="1"/>
      </contour>
    </TTGlyph>
    <TTGlyph name="glyph242" xMin="-1950" yMin="-750" xMax="-850" yMax="-150">
      <contour>
        <pt x="-1250" y="-350" on="1"/>
        <pt x="-1380" y="-350" on="0"/>
        <pt x="-1380" y="-250" on="1"/>
        <pt x="-1380" y="-150" on="0"/>
        <pt x="-1250" y="-150" on="1"/>
        <pt x="-1000" y="-150" on="1"/>
        <pt x="-850" y="-150" on="0"/>
        <pt x="-850" y="-219" on="1"/>
        <pt x="-850" y="-650" on="1"/>
        <pt x="-850" y="-750" on="0"/>
        <pt x="-997" y="-750" on="1"/>
        <pt x="-1250" y="-750" on="1"/>
        <pt x="-1400" y="-554" on="1"/>
        <pt x="-1550" y="-750" on="1"/>
        <pt x="-1803" y="-750" on="1"/>
        <pt x="-1950" y="-750" on="0"/>
        <pt x="-1950" y="-650" on="1"/>
        <pt x="-1950" y="-150" on="1"/>
        <pt x="-1550" y="-150" on="1"/>
        <pt x="-1550" y="-577" on="1"/>
        <pt x="-1400" y="-381" on="1"/>
        <pt x="-1250" y="-577" on="1"/>
      </contour>
    </TTGlyph>
    <TTGlyph name="glyph243" xMin="-2000" yMin="-750" xMax="-800" yMax="-150">
      <contour>
        <pt x="-1500" y="-558" on="1"/>
        <pt x="-1500" y="-669" on="1"/>
        <pt x="-1450" y="-669" on="0"/>
        <pt x="-1450" y="-613" on="1"/>
        <pt x="-1450" y="-558" on="0"/>
      </contour>
      <contour>
        <pt x="-1200" y="-750" on="1"/>
        <pt x="-1200" y="-340" on="1"/>
        <pt x="-1200" y="-286" on="0"/>
        <pt x="-1250" y="-286" on="1"/>
        <pt x="-1300" y="-286" on="0"/>
        <pt x="-1393" y="-349" on="1"/>
        <pt x="-1497" y="-286" on="0"/>
        <pt x="-1650" y="-286" on="1"/>
        <pt x="-1750" y="-286" on="1"/>
        <pt x="-1879" y="-286" on="0"/>
        <pt x="-1879" y="-314" on="1"/>
        <pt x="-1878" y="-343" on="1"/>
        <pt x="-1877" y="-368" on="0"/>
        <pt x="-1740" y="-368" on="1"/>
        <pt x="-1650" y="-368" on="1"/>
        <pt x="-1500" y="-368" on="0"/>
        <pt x="-1500" y="-422" on="1"/>
        <pt x="-1500" y="-477" on="1"/>
        <pt x="-1350" y="-477" on="0"/>
        <pt x="-1350" y="-613" on="1"/>
        <pt x="-1350" y="-750" on="0"/>
        <pt x="-1500" y="-750" on="1"/>
        <pt x="-1750" y="-750" on="1"/>
        <pt x="-1900" y="-750" on="0"/>
        <pt x="-1900" y="-695" on="1"/>
        <pt x="-1900" y="-416" on="1"/>
        <pt x="-2000" y="-396" on="0"/>
        <pt x="-2000" y="-358" on="1"/>
        <pt x="-2000" y="-210" on="1"/>
        <pt x="-2000" y="-150" on="0"/>
        <pt x="-1750" y="-150" on="1"/>
        <pt x="-1650" y="-150" on="1"/>
        <pt x="-1505" y="-150" on="0"/>
        <pt x="-1393" y="-197" on="1"/>
        <pt x="-1287" y="-150" on="0"/>
        <pt x="-1150" y="-150" on="1"/>
        <pt x="-1050" y="-150" on="1"/>
        <pt x="-800" y="-150" on="0"/>
        <pt x="-800" y="-231" on="1"/>
        <pt x="-800" y="-750" on="1"/>
      </contour>
    </TTGlyph>
    <TTGlyph name="glyph244" xMin="-2050" yMin="-750" xMax="-850" yMax="-150">
      <contour>
        <pt x="-1550" y="-650" on="1"/>
        <pt x="-1550" y="-750" on="0"/>
        <pt x="-1700" y="-750" on="1"/>
        <pt x="-1950" y="-750" on="1"/>
        <pt x="-2050" y="-750" on="0"/>
        <pt x="-2050" y="-585" on="1"/>
        <pt x="-2050" y="-420" on="0"/>
        <pt x="-1950" y="-420" on="1"/>
        <pt x="-1950" y="-350" on="1"/>
        <pt x="-1950" y="-150" on="0"/>
        <pt x="-1600" y="-150" on="1"/>
        <pt x="-1200" y="-150" on="1"/>
        <pt x="-850" y="-150" on="0"/>
        <pt x="-850" y="-350" on="1"/>
        <pt x="-850" y="-750" on="1"/>
        <pt x="-1250" y="-750" on="1"/>
        <pt x="-1250" y="-350" on="1"/>
        <pt x="-1250" y="-250" on="0"/>
        <pt x="-1400" y="-250" on="1"/>
        <pt x="-1550" y="-250" on="0"/>
        <pt x="-1550" y="-350" on="1"/>
      </contour>
    </TTGlyph>
    <TTGlyph name="glyph245" xMin="-1950" yMin="-800" xMax="-800" yMax="-150">
      <contour>
        <pt x="-1250" y="-400" on="1"/>
        <pt x="-1250" y="-150" on="1"/>
        <pt x="-850" y="-150" on="1"/>
        <pt x="-850" y="-338" on="1"/>
        <pt x="-973" y="-401" on="1"/>
        <pt x="-936" y="-406" on="0"/>
        <pt x="-901" y="-425" on="1"/>
        <pt x="-854" y="-451" on="0"/>
        <pt x="-800" y="-547" on="0"/>
        <pt x="-800" y="-600" on="1"/>
        <pt x="-800" y="-652" on="0"/>
        <pt x="-852" y="-747" on="0"/>
        <pt x="-948" y="-800" on="0"/>
        <pt x="-1000" y="-800" on="1"/>
        <pt x="-1071" y="-800" on="0"/>
        <pt x="-1197" y="-747" on="0"/>
        <pt x="-1223" y="-699" on="1"/>
        <pt x="-1236" y="-675" on="0"/>
        <pt x="-1243" y="-649" on="1"/>
        <pt x="-1950" y="-650" on="1"/>
        <pt x="-1950" y="-400" on="1"/>
      </contour>
    </TTGlyph>
    <TTGlyph name="glyph246" xMin="-1950" yMin="-650" xMax="-850" yMax="-150">
      <contour>
        <pt x="-1250" y="-650" on="1"/>
        <pt x="-1550" y="-350" on="1"/>
        <pt x="-1550" y="-650" on="1"/>
        <pt x="-1950" y="-650" on="1"/>
        <pt x="-1950" y="-150" on="1"/>
        <pt x="-1550" y="-150" on="1"/>
        <pt x="-1250" y="-449" on="1"/>
        <pt x="-1250" y="-150" on="1"/>
        <pt x="-850" y="-150" on="1"/>
        <pt x="-850" y="-650" on="1"/>
      </contour>
    </TTGlyph>
    <TTGlyph name="glyph247" xMin="-1950" yMin="-750" xMax="-850" yMax="-150">
      <contour>
        <pt x="-1461" y="-750" on="1"/>
        <pt x="-1705" y="-750" on="0"/>
        <pt x="-1827" y="-685" on="1"/>
        <pt x="-1950" y="-620" on="0"/>
        <pt x="-1950" y="-501" on="1"/>
        <pt x="-1950" y="-400" on="1"/>
        <pt x="-1736" y="-374" on="0"/>
        <pt x="-1552" y="-312" on="1"/>
        <pt x="-1369" y="-249" on="0"/>
        <pt x="-1250" y="-150" on="1"/>
        <pt x="-850" y="-150" on="1"/>
        <pt x="-850" y="-251" on="1"/>
        <pt x="-850" y="-498" on="0"/>
        <pt x="-1050" y="-623" on="1"/>
        <pt x="-1252" y="-750" on="0"/>
      </contour>
      <contour>
        <pt x="-1583" y="-497" on="1"/>
        <pt x="-1583" y="-547" on="0"/>
        <pt x="-1552" y="-574" on="1"/>
        <pt x="-1522" y="-599" on="0"/>
        <pt x="-1461" y="-599" on="1"/>
        <pt x="-1338" y="-599" on="0"/>
        <pt x="-1294" y="-533" on="1"/>
        <pt x="-1250" y="-467" on="0"/>
        <pt x="-1250" y="-326" on="1"/>
        <pt x="-1308" y="-388" on="0"/>
        <pt x="-1400" y="-431" on="1"/>
        <pt x="-1491" y="-473" on="0"/>
      </contour>
    </TTGlyph>
    <TTGlyph name="glyph248" xMin="-1950" yMin="-650" xMax="-850" yMax="-150">
      <contour>
        <pt x="-1620" y="-525" on="1"/>
        <pt x="-1510" y="-525" on="1"/>
        <pt x="-1510" y="-150" on="1"/>
        <pt x="-1015" y="-150" on="1"/>
        <pt x="-932" y="-150" on="0"/>
        <pt x="-891" y="-188" on="1"/>
        <pt x="-850" y="-225" on="0"/>
        <pt x="-850" y="-275" on="1"/>
        <pt x="-850" y="-650" on="1"/>
        <pt x="-1180" y="-650" on="1"/>
        <pt x="-1180" y="-275" on="1"/>
        <pt x="-1290" y="-275" on="1"/>
        <pt x="-1290" y="-650" on="1"/>
        <pt x="-1785" y="-650" on="1"/>
        <pt x="-1867" y="-650" on="0"/>
        <pt x="-1908" y="-612" on="1"/>
        <pt x="-1950" y="-575" on="0"/>
        <pt x="-1950" y="-525" on="1"/>
        <pt x="-1950" y="-150" on="1"/>
        <pt x="-1620" y="-150" on="1"/>
      </contour>
    </TTGlyph>
    <TTGlyph name="glyph249" xMin="-1950" yMin="-750" xMax="-850" yMax="-150">
      <contour>
        <pt x="-850" y="-750" on="1"/>
        <pt x="-1350" y="-750" on="1"/>
        <pt x="-1350" y="-650" on="1"/>
        <pt x="-1250" y="-650" on="1"/>
        <pt x="-1250" y="-550" on="1"/>
        <pt x="-1450" y="-550" on="1"/>
        <pt x="-1450" y="-750" on="1"/>
        <pt x="-1950" y="-750" on="1"/>
        <pt x="-1950" y="-650" on="1"/>
        <pt x="-1850" y="-650" on="1"/>
        <pt x="-1850" y="-361" on="1"/>
        <pt x="-1950" y="-301" on="1"/>
        <pt x="-1950" y="-150" on="1"/>
        <pt x="-1700" y="-150" on="1"/>
        <pt x="-1450" y="-150" on="0"/>
        <pt x="-1450" y="-351" on="1"/>
        <pt x="-1450" y="-450" on="1"/>
        <pt x="-1250" y="-450" on="1"/>
        <pt x="-1250" y="-361" on="1"/>
        <pt x="-1350" y="-301" on="1"/>
        <pt x="-1350" y="-150" on="1"/>
        <pt x="-1100" y="-150" on="1"/>
        <pt x="-850" y="-150" on="0"/>
        <pt x="-850" y="-351" on="1"/>
      </contour>
    </TTGlyph>
    <TTGlyph name="glyph250" xMin="-1675" yMin="1650" xMax="-1125" yMax="2250">
      <contour>
        <pt x="-1675" y="1650" on="1"/>
        <pt x="-1675" y="2250" on="1"/>
        <pt x="-1475" y="2250" on="1"/>
        <pt x="-1475" y="1650" on="1"/>
      </contour>
      <contour>
        <pt x="-1325" y="1650" on="1"/>
        <pt x="-1325" y="2250" on="1"/>
        <pt x="-1125" y="2250" on="1"/>
        <pt x="-1125" y="1650" on="1"/>
      </contour>
    </TTGlyph>
    <TTGlyph name="glyph251" xMin="-1950" yMin="1520" xMax="-850" yMax="1843">
      <contour>
        <pt x="-1861" y="1520" on="1"/>
        <pt x="-1950" y="1528" on="0"/>
        <pt x="-1950" y="1611" on="1"/>
        <pt x="-1950" y="1743" on="1"/>
        <pt x="-1950" y="1843" on="0"/>
        <pt x="-1766" y="1843" on="1"/>
        <pt x="-1559" y="1843" on="1"/>
        <pt x="-1467" y="1843" on="0"/>
        <pt x="-1400" y="1803" on="1"/>
        <pt x="-1333" y="1843" on="0"/>
        <pt x="-1217" y="1843" on="1"/>
        <pt x="-1071" y="1843" on="0"/>
        <pt x="-985" y="1824" on="1"/>
        <pt x="-956" y="1818" on="0"/>
        <pt x="-932" y="1818" on="1"/>
        <pt x="-883" y="1818" on="0"/>
        <pt x="-850" y="1843" on="1"/>
        <pt x="-850" y="1652" on="1"/>
        <pt x="-891" y="1597" on="0"/>
        <pt x="-982" y="1597" on="1"/>
        <pt x="-1002" y="1597" on="0"/>
        <pt x="-1023" y="1599" on="1"/>
        <pt x="-1147" y="1613" on="0"/>
        <pt x="-1246" y="1613" on="1"/>
        <pt x="-1345" y="1613" on="0"/>
        <pt x="-1400" y="1573" on="1"/>
        <pt x="-1455" y="1613" on="0"/>
        <pt x="-1621" y="1613" on="1"/>
        <pt x="-1787" y="1613" on="0"/>
        <pt x="-1810" y="1591" on="1"/>
        <pt x="-1815" y="1585" on="0"/>
        <pt x="-1815" y="1581" on="1"/>
        <pt x="-1815" y="1567" on="0"/>
        <pt x="-1758" y="1565" on="1"/>
      </contour>
    </TTGlyph>
    <TTGlyph name="glyph254" xMin="0" yMin="0" xMax="1950" yMax="1500">
      <contour>
        <pt x="850" y="0" on="1"/>
        <pt x="850" y="850" on="1"/>
        <pt x="850" y="1050" on="0"/>
        <pt x="1200" y="1050" on="1"/>
        <pt x="1600" y="1050" on="1"/>
        <pt x="1950" y="1050" on="0"/>
        <pt x="1950" y="850" on="1"/>
        <pt x="1950" y="0" on="1"/>
        <pt x="1550" y="0" on="1"/>
        <pt x="1550" y="850" on="1"/>
        <pt x="1550" y="950" on="0"/>
        <pt x="1400" y="950" on="1"/>
        <pt x="1250" y="950" on="0"/>
        <pt x="1250" y="850" on="1"/>
        <pt x="1250" y="0" on="1"/>
      </contour>
      <contour>
        <pt x="939" y="1067" on="1"/>
        <pt x="850" y="1115" on="0"/>
        <pt x="850" y="1198" on="1"/>
        <pt x="850" y="1400" on="1"/>
        <pt x="850" y="1500" on="0"/>
        <pt x="1034" y="1500" on="1"/>
        <pt x="1241" y="1500" on="1"/>
        <pt x="1333" y="1500" on="0"/>
        <pt x="1400" y="1460" on="1"/>
        <pt x="1467" y="1500" on="0"/>
        <pt x="1583" y="1500" on="1"/>
        <pt x="1729" y="1500" on="0"/>
        <pt x="1815" y="1481" on="1"/>
        <pt x="1844" y="1475" on="0"/>
        <pt x="1868" y="1475" on="1"/>
        <pt x="1917" y="1475" on="0"/>
        <pt x="1950" y="1500" on="1"/>
        <pt x="1950" y="1239" on="1"/>
        <pt x="1909" y="1184" on="0"/>
        <pt x="1818" y="1184" on="1"/>
        <pt x="1798" y="1184" on="0"/>
        <pt x="1777" y="1186" on="1"/>
        <pt x="1653" y="1200" on="0"/>
        <pt x="1554" y="1200" on="1"/>
        <pt x="1455" y="1200" on="0"/>
        <pt x="1400" y="1160" on="1"/>
        <pt x="1345" y="1200" on="0"/>
        <pt x="1179" y="1200" on="1"/>
        <pt x="1013" y="1200" on="0"/>
        <pt x="990" y="1178" on="1"/>
        <pt x="985" y="1172" on="0"/>
        <pt x="985" y="1166" on="1"/>
        <pt x="985" y="1145" on="0"/>
        <pt x="1042" y="1112" on="1"/>
      </contour>
      <contour>
        <pt x="150" y="945" on="1"/>
        <pt x="0" y="983" on="0"/>
        <pt x="0" y="1068" on="1"/>
        <pt x="0" y="1400" on="1"/>
        <pt x="0" y="1500" on="0"/>
        <pt x="134" y="1500" on="1"/>
        <pt x="263" y="1500" on="1"/>
        <pt x="359" y="1500" on="0"/>
        <pt x="430" y="1481" on="1"/>
        <pt x="454" y="1475" on="0"/>
        <pt x="475" y="1475" on="1"/>
        <pt x="517" y="1475" on="0"/>
        <pt x="550" y="1500" on="1"/>
        <pt x="550" y="1239" on="1"/>
        <pt x="509" y="1184" on="0"/>
        <pt x="442" y="1184" on="1"/>
        <pt x="427" y="1184" on="0"/>
        <pt x="412" y="1186" on="1"/>
        <pt x="323" y="1200" on="0"/>
        <pt x="212" y="1200" on="1"/>
        <pt x="122" y="1200" on="0"/>
        <pt x="122" y="1148" on="1"/>
        <pt x="122" y="1095" on="1"/>
        <pt x="122" y="1050" on="0"/>
        <pt x="260" y="1050" on="1"/>
        <pt x="350" y="1050" on="1"/>
        <pt x="550" y="1050" on="0"/>
        <pt x="550" y="950" on="1"/>
        <pt x="550" y="250" on="1"/>
        <pt x="550" y="150" on="0"/>
        <pt x="650" y="150" on="1"/>
        <pt x="650" y="0" on="1"/>
        <pt x="350" y="0" on="1"/>
        <pt x="150" y="0" on="0"/>
        <pt x="150" y="150" on="1"/>
      </contour>
    </TTGlyph>
    <TTGlyph name="glyph255" xMin="0" yMin="0" xMax="1950" yMax="1500">
      <contour>
        <pt x="1250" y="1100" on="1"/>
        <pt x="1250" y="1000" on="1"/>
        <pt x="1263" y="1000" on="0"/>
        <pt x="1287" y="1013" on="0"/>
        <pt x="1300" y="1037" on="0"/>
        <pt x="1300" y="1050" on="1"/>
        <pt x="1300" y="1063" on="0"/>
        <pt x="1286" y="1087" on="0"/>
        <pt x="1263" y="1100" on="0"/>
      </contour>
      <contour>
        <pt x="1250" y="900" on="1"/>
        <pt x="1033" y="900" on="1"/>
        <pt x="850" y="900" on="0"/>
        <pt x="850" y="1050" on="1"/>
        <pt x="850" y="1300" on="1"/>
        <pt x="850" y="1500" on="0"/>
        <pt x="1200" y="1500" on="1"/>
        <pt x="1600" y="1500" on="1"/>
        <pt x="1950" y="1500" on="0"/>
        <pt x="1950" y="1300" on="1"/>
        <pt x="1950" y="1000" on="1"/>
        <pt x="1950" y="898" on="0"/>
        <pt x="1550" y="763" on="1"/>
        <pt x="1400" y="696" on="1"/>
        <pt x="1250" y="628" on="0"/>
        <pt x="1250" y="500" on="1"/>
        <pt x="1250" y="200" on="1"/>
        <pt x="1250" y="100" on="0"/>
        <pt x="1400" y="100" on="1"/>
        <pt x="1550" y="100" on="0"/>
        <pt x="1550" y="200" on="1"/>
        <pt x="1550" y="550" on="1"/>
        <pt x="1950" y="680" on="1"/>
        <pt x="1950" y="200" on="1"/>
        <pt x="1950" y="0" on="0"/>
        <pt x="1600" y="0" on="1"/>
        <pt x="1200" y="0" on="1"/>
        <pt x="850" y="0" on="0"/>
        <pt x="850" y="200" on="1"/>
        <pt x="850" y="500" on="1"/>
        <pt x="850" y="602" on="0"/>
        <pt x="1250" y="737" on="1"/>
        <pt x="1400" y="804" on="1"/>
        <pt x="1550" y="872" on="0"/>
        <pt x="1550" y="1000" on="1"/>
        <pt x="1550" y="1300" on="1"/>
        <pt x="1550" y="1400" on="0"/>
        <pt x="1400" y="1400" on="1"/>
        <pt x="1250" y="1400" on="0"/>
        <pt x="1250" y="1300" on="1"/>
        <pt x="1250" y="1200" on="1"/>
        <pt x="1288" y="1200" on="0"/>
        <pt x="1359" y="1161" on="0"/>
        <pt x="1400" y="1089" on="0"/>
        <pt x="1400" y="1050" on="1"/>
        <pt x="1400" y="1011" on="0"/>
        <pt x="1360" y="940" on="0"/>
        <pt x="1289" y="900" on="0"/>
      </contour>
      <contour>
        <pt x="150" y="945" on="1"/>
        <pt x="0" y="983" on="0"/>
        <pt x="0" y="1068" on="1"/>
        <pt x="0" y="1400" on="1"/>
        <pt x="0" y="1500" on="0"/>
        <pt x="134" y="1500" on="1"/>
        <pt x="263" y="1500" on="1"/>
        <pt x="359" y="1500" on="0"/>
        <pt x="430" y="1481" on="1"/>
        <pt x="454" y="1475" on="0"/>
        <pt x="475" y="1475" on="1"/>
        <pt x="517" y="1475" on="0"/>
        <pt x="550" y="1500" on="1"/>
        <pt x="550" y="1239" on="1"/>
        <pt x="509" y="1184" on="0"/>
        <pt x="442" y="1184" on="1"/>
        <pt x="427" y="1184" on="0"/>
        <pt x="412" y="1186" on="1"/>
        <pt x="323" y="1200" on="0"/>
        <pt x="212" y="1200" on="1"/>
        <pt x="122" y="1200" on="0"/>
        <pt x="122" y="1148" on="1"/>
        <pt x="122" y="1095" on="1"/>
        <pt x="122" y="1050" on="0"/>
        <pt x="260" y="1050" on="1"/>
        <pt x="350" y="1050" on="1"/>
        <pt x="550" y="1050" on="0"/>
        <pt x="550" y="950" on="1"/>
        <pt x="550" y="250" on="1"/>
        <pt x="550" y="150" on="0"/>
        <pt x="650" y="150" on="1"/>
        <pt x="650" y="0" on="1"/>
        <pt x="350" y="0" on="1"/>
        <pt x="150" y="0" on="0"/>
        <pt x="150" y="150" on="1"/>
      </contour>
    </TTGlyph>
    <TTGlyph name="glyph256" xMin="0" yMin="0" xMax="1950" yMax="1500">
      <contour>
        <pt x="939" y="1067" on="1"/>
        <pt x="850" y="1115" on="0"/>
        <pt x="850" y="1198" on="1"/>
        <pt x="850" y="1400" on="1"/>
        <pt x="850" y="1500" on="0"/>
        <pt x="1034" y="1500" on="1"/>
        <pt x="1241" y="1500" on="1"/>
        <pt x="1333" y="1500" on="0"/>
        <pt x="1400" y="1460" on="1"/>
        <pt x="1467" y="1500" on="0"/>
        <pt x="1583" y="1500" on="1"/>
        <pt x="1729" y="1500" on="0"/>
        <pt x="1815" y="1481" on="1"/>
        <pt x="1844" y="1475" on="0"/>
        <pt x="1868" y="1475" on="1"/>
        <pt x="1917" y="1475" on="0"/>
        <pt x="1950" y="1500" on="1"/>
        <pt x="1950" y="1239" on="1"/>
        <pt x="1909" y="1184" on="0"/>
        <pt x="1818" y="1184" on="1"/>
        <pt x="1798" y="1184" on="0"/>
        <pt x="1777" y="1186" on="1"/>
        <pt x="1653" y="1200" on="0"/>
        <pt x="1554" y="1200" on="1"/>
        <pt x="1455" y="1200" on="0"/>
        <pt x="1400" y="1160" on="1"/>
        <pt x="1345" y="1200" on="0"/>
        <pt x="1179" y="1200" on="1"/>
        <pt x="1013" y="1200" on="0"/>
        <pt x="990" y="1178" on="1"/>
        <pt x="985" y="1172" on="0"/>
        <pt x="985" y="1166" on="1"/>
        <pt x="985" y="1145" on="0"/>
        <pt x="1042" y="1112" on="1"/>
      </contour>
      <contour>
        <pt x="850" y="0" on="1"/>
        <pt x="850" y="850" on="1"/>
        <pt x="850" y="1050" on="0"/>
        <pt x="1200" y="1050" on="1"/>
        <pt x="1600" y="1050" on="1"/>
        <pt x="1950" y="1050" on="0"/>
        <pt x="1950" y="850" on="1"/>
        <pt x="1950" y="0" on="1"/>
        <pt x="1550" y="0" on="1"/>
        <pt x="1550" y="850" on="1"/>
        <pt x="1550" y="950" on="0"/>
        <pt x="1400" y="950" on="1"/>
        <pt x="1250" y="950" on="0"/>
        <pt x="1250" y="850" on="1"/>
        <pt x="1250" y="339" on="1"/>
        <pt x="1292" y="436" on="0"/>
        <pt x="1374" y="500" on="1"/>
        <pt x="1449" y="424" on="1"/>
        <pt x="1340" y="333" on="0"/>
        <pt x="1250" y="0" on="1"/>
      </contour>
      <contour>
        <pt x="150" y="945" on="1"/>
        <pt x="0" y="983" on="0"/>
        <pt x="0" y="1068" on="1"/>
        <pt x="0" y="1400" on="1"/>
        <pt x="0" y="1500" on="0"/>
        <pt x="134" y="1500" on="1"/>
        <pt x="263" y="1500" on="1"/>
        <pt x="359" y="1500" on="0"/>
        <pt x="430" y="1481" on="1"/>
        <pt x="454" y="1475" on="0"/>
        <pt x="475" y="1475" on="1"/>
        <pt x="517" y="1475" on="0"/>
        <pt x="550" y="1500" on="1"/>
        <pt x="550" y="1239" on="1"/>
        <pt x="509" y="1184" on="0"/>
        <pt x="442" y="1184" on="1"/>
        <pt x="427" y="1184" on="0"/>
        <pt x="412" y="1186" on="1"/>
        <pt x="323" y="1200" on="0"/>
        <pt x="212" y="1200" on="1"/>
        <pt x="122" y="1200" on="0"/>
        <pt x="122" y="1148" on="1"/>
        <pt x="122" y="1095" on="1"/>
        <pt x="122" y="1050" on="0"/>
        <pt x="260" y="1050" on="1"/>
        <pt x="350" y="1050" on="1"/>
        <pt x="550" y="1050" on="0"/>
        <pt x="550" y="950" on="1"/>
        <pt x="550" y="250" on="1"/>
        <pt x="550" y="150" on="0"/>
        <pt x="650" y="150" on="1"/>
        <pt x="650" y="0" on="1"/>
        <pt x="350" y="0" on="1"/>
        <pt x="150" y="0" on="0"/>
        <pt x="150" y="150" on="1"/>
      </contour>
    </TTGlyph>
    <TTGlyph name="glyph257" xMin="0" yMin="0" xMax="2650" yMax="1500">
      <contour>
        <pt x="2650" y="200" on="1"/>
        <pt x="2650" y="0" on="0"/>
        <pt x="2300" y="0" on="1"/>
        <pt x="1200" y="0" on="1"/>
        <pt x="850" y="0" on="0"/>
        <pt x="850" y="200" on="1"/>
        <pt x="850" y="1250" on="1"/>
        <pt x="850" y="1350" on="0"/>
        <pt x="750" y="1350" on="1"/>
        <pt x="750" y="1500" on="1"/>
        <pt x="1050" y="1500" on="1"/>
        <pt x="1250" y="1500" on="0"/>
        <pt x="1250" y="1350" on="1"/>
        <pt x="1250" y="200" on="1"/>
        <pt x="1250" y="100" on="0"/>
        <pt x="1400" y="100" on="1"/>
        <pt x="1550" y="100" on="0"/>
        <pt x="1550" y="200" on="1"/>
        <pt x="1550" y="945" on="1"/>
        <pt x="1400" y="983" on="0"/>
        <pt x="1400" y="1068" on="1"/>
        <pt x="1400" y="1400" on="1"/>
        <pt x="1400" y="1500" on="0"/>
        <pt x="1534" y="1500" on="1"/>
        <pt x="1663" y="1500" on="1"/>
        <pt x="1759" y="1500" on="0"/>
        <pt x="1830" y="1481" on="1"/>
        <pt x="1854" y="1475" on="0"/>
        <pt x="1875" y="1475" on="1"/>
        <pt x="1917" y="1475" on="0"/>
        <pt x="1950" y="1500" on="1"/>
        <pt x="1950" y="1239" on="1"/>
        <pt x="1909" y="1184" on="0"/>
        <pt x="1842" y="1184" on="1"/>
        <pt x="1827" y="1184" on="0"/>
        <pt x="1812" y="1186" on="1"/>
        <pt x="1723" y="1200" on="0"/>
        <pt x="1612" y="1200" on="1"/>
        <pt x="1522" y="1200" on="0"/>
        <pt x="1522" y="1148" on="1"/>
        <pt x="1522" y="1095" on="1"/>
        <pt x="1522" y="1050" on="0"/>
        <pt x="1660" y="1050" on="1"/>
        <pt x="1750" y="1050" on="1"/>
        <pt x="1950" y="1050" on="0"/>
        <pt x="1950" y="950" on="1"/>
        <pt x="1950" y="200" on="1"/>
        <pt x="1950" y="100" on="0"/>
        <pt x="2100" y="100" on="1"/>
        <pt x="2250" y="100" on="0"/>
        <pt x="2250" y="200" on="1"/>
        <pt x="2250" y="945" on="1"/>
        <pt x="2100" y="983" on="0"/>
        <pt x="2100" y="1068" on="1"/>
        <pt x="2100" y="1400" on="1"/>
        <pt x="2100" y="1500" on="0"/>
        <pt x="2234" y="1500" on="1"/>
        <pt x="2363" y="1500" on="1"/>
        <pt x="2459" y="1500" on="0"/>
        <pt x="2530" y="1481" on="1"/>
        <pt x="2554" y="1475" on="0"/>
        <pt x="2575" y="1475" on="1"/>
        <pt x="2617" y="1475" on="0"/>
        <pt x="2650" y="1500" on="1"/>
        <pt x="2650" y="1239" on="1"/>
        <pt x="2609" y="1184" on="0"/>
        <pt x="2542" y="1184" on="1"/>
        <pt x="2527" y="1184" on="0"/>
        <pt x="2512" y="1186" on="1"/>
        <pt x="2423" y="1200" on="0"/>
        <pt x="2312" y="1200" on="1"/>
        <pt x="2222" y="1200" on="0"/>
        <pt x="2222" y="1148" on="1"/>
        <pt x="2222" y="1095" on="1"/>
        <pt x="2222" y="1050" on="0"/>
        <pt x="2360" y="1050" on="1"/>
        <pt x="2450" y="1050" on="1"/>
        <pt x="2650" y="1050" on="0"/>
        <pt x="2650" y="950" on="1"/>
      </contour>
      <contour>
        <pt x="150" y="945" on="1"/>
        <pt x="0" y="983" on="0"/>
        <pt x="0" y="1068" on="1"/>
        <pt x="0" y="1400" on="1"/>
        <pt x="0" y="1500" on="0"/>
        <pt x="134" y="1500" on="1"/>
        <pt x="263" y="1500" on="1"/>
        <pt x="359" y="1500" on="0"/>
        <pt x="430" y="1481" on="1"/>
        <pt x="454" y="1475" on="0"/>
        <pt x="475" y="1475" on="1"/>
        <pt x="517" y="1475" on="0"/>
        <pt x="550" y="1500" on="1"/>
        <pt x="550" y="1239" on="1"/>
        <pt x="509" y="1184" on="0"/>
        <pt x="442" y="1184" on="1"/>
        <pt x="427" y="1184" on="0"/>
        <pt x="412" y="1186" on="1"/>
        <pt x="323" y="1200" on="0"/>
        <pt x="212" y="1200" on="1"/>
        <pt x="122" y="1200" on="0"/>
        <pt x="122" y="1148" on="1"/>
        <pt x="122" y="1095" on="1"/>
        <pt x="122" y="1050" on="0"/>
        <pt x="260" y="1050" on="1"/>
        <pt x="350" y="1050" on="1"/>
        <pt x="550" y="1050" on="0"/>
        <pt x="550" y="950" on="1"/>
        <pt x="550" y="250" on="1"/>
        <pt x="550" y="150" on="0"/>
        <pt x="650" y="150" on="1"/>
        <pt x="650" y="0" on="1"/>
        <pt x="350" y="0" on="1"/>
        <pt x="150" y="0" on="0"/>
        <pt x="150" y="150" on="1"/>
      </contour>
    </TTGlyph>
    <TTGlyph name="glyph258" xMin="0" yMin="0" xMax="1950" yMax="1600">
      <contour>
        <pt x="1781" y="1106" on="1"/>
        <pt x="1950" y="1000" on="1"/>
        <pt x="1950" y="100" on="1"/>
        <pt x="1950" y="0" on="0"/>
        <pt x="1803" y="0" on="1"/>
        <pt x="1550" y="0" on="1"/>
        <pt x="1400" y="246" on="1"/>
        <pt x="1250" y="0" on="1"/>
        <pt x="997" y="0" on="1"/>
        <pt x="850" y="0" on="0"/>
        <pt x="850" y="100" on="1"/>
        <pt x="850" y="800" on="1"/>
        <pt x="850" y="900" on="0"/>
        <pt x="800" y="900" on="1"/>
        <pt x="800" y="1000" on="1"/>
        <pt x="1050" y="1000" on="1"/>
        <pt x="1250" y="1000" on="0"/>
        <pt x="1250" y="850" on="1"/>
        <pt x="1250" y="193" on="1"/>
        <pt x="1400" y="439" on="1"/>
        <pt x="1550" y="193" on="1"/>
        <pt x="1550" y="1100" on="1"/>
        <pt x="1050" y="1100" on="1"/>
        <pt x="850" y="1100" on="0"/>
        <pt x="850" y="1250" on="1"/>
        <pt x="850" y="1600" on="1"/>
        <pt x="1250" y="1600" on="1"/>
        <pt x="1250" y="1350" on="1"/>
        <pt x="1250" y="1200" on="0"/>
        <pt x="1350" y="1200" on="1"/>
        <pt x="1527" y="1200" on="1"/>
        <pt x="1500" y="1244" on="0"/>
        <pt x="1500" y="1300" on="1"/>
        <pt x="1500" y="1352" on="0"/>
        <pt x="1560" y="1448" on="0"/>
        <pt x="1668" y="1500" on="0"/>
        <pt x="1725" y="1500" on="1"/>
        <pt x="1782" y="1500" on="0"/>
        <pt x="1889" y="1448" on="0"/>
        <pt x="1950" y="1352" on="0"/>
        <pt x="1950" y="1300" on="1"/>
        <pt x="1950" y="1248" on="0"/>
        <pt x="1891" y="1153" on="0"/>
        <pt x="1837" y="1127" on="1"/>
        <pt x="1809" y="1113" on="0"/>
      </contour>
      <contour>
        <pt x="150" y="945" on="1"/>
        <pt x="0" y="983" on="0"/>
        <pt x="0" y="1068" on="1"/>
        <pt x="0" y="1400" on="1"/>
        <pt x="0" y="1500" on="0"/>
        <pt x="134" y="1500" on="1"/>
        <pt x="263" y="1500" on="1"/>
        <pt x="359" y="1500" on="0"/>
        <pt x="430" y="1481" on="1"/>
        <pt x="454" y="1475" on="0"/>
        <pt x="475" y="1475" on="1"/>
        <pt x="517" y="1475" on="0"/>
        <pt x="550" y="1500" on="1"/>
        <pt x="550" y="1239" on="1"/>
        <pt x="509" y="1184" on="0"/>
        <pt x="442" y="1184" on="1"/>
        <pt x="427" y="1184" on="0"/>
        <pt x="412" y="1186" on="1"/>
        <pt x="323" y="1200" on="0"/>
        <pt x="212" y="1200" on="1"/>
        <pt x="122" y="1200" on="0"/>
        <pt x="122" y="1148" on="1"/>
        <pt x="122" y="1095" on="1"/>
        <pt x="122" y="1050" on="0"/>
        <pt x="260" y="1050" on="1"/>
        <pt x="350" y="1050" on="1"/>
        <pt x="550" y="1050" on="0"/>
        <pt x="550" y="950" on="1"/>
        <pt x="550" y="250" on="1"/>
        <pt x="550" y="150" on="0"/>
        <pt x="650" y="150" on="1"/>
        <pt x="650" y="0" on="1"/>
        <pt x="350" y="0" on="1"/>
        <pt x="150" y="0" on="0"/>
        <pt x="150" y="150" on="1"/>
      </contour>
    </TTGlyph>
    <TTGlyph name="glyph259" xMin="0" yMin="0" xMax="1950" yMax="1500">
      <contour>
        <pt x="1550" y="850" on="1"/>
        <pt x="1550" y="950" on="1"/>
        <pt x="1537" y="950" on="0"/>
        <pt x="1513" y="937" on="0"/>
        <pt x="1500" y="913" on="0"/>
        <pt x="1500" y="900" on="1"/>
        <pt x="1500" y="887" on="0"/>
        <pt x="1514" y="863" on="0"/>
        <pt x="1537" y="850" on="0"/>
      </contour>
      <contour>
        <pt x="1950" y="200" on="1"/>
        <pt x="1950" y="0" on="0"/>
        <pt x="1600" y="0" on="1"/>
        <pt x="1200" y="0" on="1"/>
        <pt x="850" y="0" on="0"/>
        <pt x="850" y="200" on="1"/>
        <pt x="850" y="961" on="1"/>
        <pt x="750" y="999" on="0"/>
        <pt x="750" y="1068" on="1"/>
        <pt x="750" y="1400" on="1"/>
        <pt x="750" y="1500" on="0"/>
        <pt x="884" y="1500" on="1"/>
        <pt x="1241" y="1500" on="1"/>
        <pt x="1333" y="1500" on="0"/>
        <pt x="1400" y="1460" on="1"/>
        <pt x="1467" y="1500" on="0"/>
        <pt x="1583" y="1500" on="1"/>
        <pt x="1729" y="1500" on="0"/>
        <pt x="1815" y="1481" on="1"/>
        <pt x="1844" y="1475" on="0"/>
        <pt x="1868" y="1475" on="1"/>
        <pt x="1917" y="1475" on="0"/>
        <pt x="1950" y="1500" on="1"/>
        <pt x="1950" y="1239" on="1"/>
        <pt x="1909" y="1184" on="0"/>
        <pt x="1818" y="1184" on="1"/>
        <pt x="1798" y="1184" on="0"/>
        <pt x="1777" y="1186" on="1"/>
        <pt x="1653" y="1200" on="0"/>
        <pt x="1554" y="1200" on="1"/>
        <pt x="1455" y="1200" on="0"/>
        <pt x="1400" y="1160" on="1"/>
        <pt x="1345" y="1200" on="0"/>
        <pt x="1188" y="1200" on="1"/>
        <pt x="989" y="1200" on="1"/>
        <pt x="871" y="1200" on="0"/>
        <pt x="871" y="1149" on="1"/>
        <pt x="871" y="1148" on="1"/>
        <pt x="872" y="1095" on="1"/>
        <pt x="873" y="1050" on="0"/>
        <pt x="1010" y="1050" on="1"/>
        <pt x="1100" y="1050" on="1"/>
        <pt x="1250" y="1050" on="0"/>
        <pt x="1250" y="950" on="1"/>
        <pt x="1250" y="200" on="1"/>
        <pt x="1250" y="100" on="0"/>
        <pt x="1400" y="100" on="1"/>
        <pt x="1550" y="100" on="0"/>
        <pt x="1550" y="200" on="1"/>
        <pt x="1550" y="750" on="1"/>
        <pt x="1512" y="750" on="0"/>
        <pt x="1441" y="789" on="0"/>
        <pt x="1400" y="861" on="0"/>
        <pt x="1400" y="900" on="1"/>
        <pt x="1400" y="939" on="0"/>
        <pt x="1440" y="1010" on="0"/>
        <pt x="1511" y="1050" on="0"/>
        <pt x="1550" y="1050" on="1"/>
        <pt x="1767" y="1050" on="1"/>
        <pt x="1950" y="1050" on="0"/>
        <pt x="1950" y="900" on="1"/>
      </contour>
      <contour>
        <pt x="150" y="945" on="1"/>
        <pt x="0" y="983" on="0"/>
        <pt x="0" y="1068" on="1"/>
        <pt x="0" y="1400" on="1"/>
        <pt x="0" y="1500" on="0"/>
        <pt x="134" y="1500" on="1"/>
        <pt x="263" y="1500" on="1"/>
        <pt x="359" y="1500" on="0"/>
        <pt x="430" y="1481" on="1"/>
        <pt x="454" y="1475" on="0"/>
        <pt x="475" y="1475" on="1"/>
        <pt x="517" y="1475" on="0"/>
        <pt x="550" y="1500" on="1"/>
        <pt x="550" y="1239" on="1"/>
        <pt x="509" y="1184" on="0"/>
        <pt x="442" y="1184" on="1"/>
        <pt x="427" y="1184" on="0"/>
        <pt x="412" y="1186" on="1"/>
        <pt x="323" y="1200" on="0"/>
        <pt x="212" y="1200" on="1"/>
        <pt x="122" y="1200" on="0"/>
        <pt x="122" y="1148" on="1"/>
        <pt x="122" y="1095" on="1"/>
        <pt x="122" y="1050" on="0"/>
        <pt x="260" y="1050" on="1"/>
        <pt x="350" y="1050" on="1"/>
        <pt x="550" y="1050" on="0"/>
        <pt x="550" y="950" on="1"/>
        <pt x="550" y="250" on="1"/>
        <pt x="550" y="150" on="0"/>
        <pt x="650" y="150" on="1"/>
        <pt x="650" y="0" on="1"/>
        <pt x="350" y="0" on="1"/>
        <pt x="150" y="0" on="0"/>
        <pt x="150" y="150" on="1"/>
      </contour>
    </TTGlyph>
    <TTGlyph name="glyph260" xMin="0" yMin="0" xMax="1950" yMax="1500">
      <contour>
        <pt x="1550" y="850" on="1"/>
        <pt x="1550" y="950" on="1"/>
        <pt x="1537" y="950" on="0"/>
        <pt x="1513" y="937" on="0"/>
        <pt x="1500" y="913" on="0"/>
        <pt x="1500" y="900" on="1"/>
        <pt x="1500" y="887" on="0"/>
        <pt x="1514" y="863" on="0"/>
        <pt x="1537" y="850" on="0"/>
      </contour>
      <contour>
        <pt x="1550" y="341" on="1"/>
        <pt x="1550" y="750" on="1"/>
        <pt x="1512" y="750" on="0"/>
        <pt x="1441" y="789" on="0"/>
        <pt x="1400" y="861" on="0"/>
        <pt x="1400" y="900" on="1"/>
        <pt x="1400" y="939" on="0"/>
        <pt x="1440" y="1010" on="0"/>
        <pt x="1511" y="1050" on="0"/>
        <pt x="1550" y="1050" on="1"/>
        <pt x="1767" y="1050" on="1"/>
        <pt x="1950" y="1050" on="0"/>
        <pt x="1950" y="900" on="1"/>
        <pt x="1950" y="200" on="1"/>
        <pt x="1950" y="0" on="0"/>
        <pt x="1800" y="0" on="1"/>
        <pt x="1550" y="0" on="1"/>
        <pt x="1550" y="137" on="0"/>
        <pt x="1396" y="300" on="0"/>
        <pt x="1300" y="300" on="1"/>
        <pt x="1250" y="300" on="1"/>
        <pt x="1250" y="200" on="1"/>
        <pt x="1250" y="0" on="0"/>
        <pt x="1025" y="0" on="1"/>
        <pt x="800" y="0" on="0"/>
        <pt x="800" y="200" on="1"/>
        <pt x="800" y="252" on="0"/>
        <pt x="854" y="348" on="0"/>
        <pt x="902" y="374" on="1"/>
        <pt x="941" y="396" on="0"/>
        <pt x="983" y="399" on="1"/>
        <pt x="850" y="450" on="1"/>
        <pt x="850" y="961" on="1"/>
        <pt x="750" y="999" on="0"/>
        <pt x="750" y="1068" on="1"/>
        <pt x="750" y="1400" on="1"/>
        <pt x="750" y="1500" on="0"/>
        <pt x="884" y="1500" on="1"/>
        <pt x="1241" y="1500" on="1"/>
        <pt x="1333" y="1500" on="0"/>
        <pt x="1400" y="1460" on="1"/>
        <pt x="1467" y="1500" on="0"/>
        <pt x="1583" y="1500" on="1"/>
        <pt x="1729" y="1500" on="0"/>
        <pt x="1815" y="1481" on="1"/>
        <pt x="1844" y="1475" on="0"/>
        <pt x="1868" y="1475" on="1"/>
        <pt x="1917" y="1475" on="0"/>
        <pt x="1950" y="1500" on="1"/>
        <pt x="1950" y="1239" on="1"/>
        <pt x="1909" y="1184" on="0"/>
        <pt x="1818" y="1184" on="1"/>
        <pt x="1798" y="1184" on="0"/>
        <pt x="1777" y="1186" on="1"/>
        <pt x="1653" y="1200" on="0"/>
        <pt x="1554" y="1200" on="1"/>
        <pt x="1455" y="1200" on="0"/>
        <pt x="1400" y="1160" on="1"/>
        <pt x="1345" y="1200" on="0"/>
        <pt x="1188" y="1200" on="1"/>
        <pt x="989" y="1200" on="1"/>
        <pt x="871" y="1200" on="0"/>
        <pt x="871" y="1149" on="1"/>
        <pt x="871" y="1148" on="1"/>
        <pt x="872" y="1095" on="1"/>
        <pt x="873" y="1050" on="0"/>
        <pt x="1010" y="1050" on="1"/>
        <pt x="1100" y="1050" on="1"/>
        <pt x="1250" y="1050" on="0"/>
        <pt x="1250" y="950" on="1"/>
        <pt x="1250" y="400" on="1"/>
        <pt x="1300" y="400" on="1"/>
        <pt x="1447" y="400" on="0"/>
      </contour>
      <contour>
        <pt x="150" y="945" on="1"/>
        <pt x="0" y="983" on="0"/>
        <pt x="0" y="1068" on="1"/>
        <pt x="0" y="1400" on="1"/>
        <pt x="0" y="1500" on="0"/>
        <pt x="134" y="1500" on="1"/>
        <pt x="263" y="1500" on="1"/>
        <pt x="359" y="1500" on="0"/>
        <pt x="430" y="1481" on="1"/>
        <pt x="454" y="1475" on="0"/>
        <pt x="475" y="1475" on="1"/>
        <pt x="517" y="1475" on="0"/>
        <pt x="550" y="1500" on="1"/>
        <pt x="550" y="1239" on="1"/>
        <pt x="509" y="1184" on="0"/>
        <pt x="442" y="1184" on="1"/>
        <pt x="427" y="1184" on="0"/>
        <pt x="412" y="1186" on="1"/>
        <pt x="323" y="1200" on="0"/>
        <pt x="212" y="1200" on="1"/>
        <pt x="122" y="1200" on="0"/>
        <pt x="122" y="1148" on="1"/>
        <pt x="122" y="1095" on="1"/>
        <pt x="122" y="1050" on="0"/>
        <pt x="260" y="1050" on="1"/>
        <pt x="350" y="1050" on="1"/>
        <pt x="550" y="1050" on="0"/>
        <pt x="550" y="950" on="1"/>
        <pt x="550" y="250" on="1"/>
        <pt x="550" y="150" on="0"/>
        <pt x="650" y="150" on="1"/>
        <pt x="650" y="0" on="1"/>
        <pt x="350" y="0" on="1"/>
        <pt x="150" y="0" on="0"/>
        <pt x="150" y="150" on="1"/>
      </contour>
    </TTGlyph>
    <TTGlyph name="glyph261" xMin="0" yMin="0" xMax="1950" yMax="1570">
      <contour>
        <pt x="1250" y="193" on="1"/>
        <pt x="1400" y="439" on="1"/>
        <pt x="1550" y="193" on="1"/>
        <pt x="1550" y="1000" on="1"/>
        <pt x="1950" y="1000" on="1"/>
        <pt x="1950" y="100" on="1"/>
        <pt x="1950" y="0" on="0"/>
        <pt x="1803" y="0" on="1"/>
        <pt x="1550" y="0" on="1"/>
        <pt x="1400" y="246" on="1"/>
        <pt x="1250" y="0" on="1"/>
        <pt x="997" y="0" on="1"/>
        <pt x="850" y="0" on="0"/>
        <pt x="850" y="100" on="1"/>
        <pt x="850" y="961" on="1"/>
        <pt x="750" y="999" on="0"/>
        <pt x="750" y="1068" on="1"/>
        <pt x="750" y="1340" on="1"/>
        <pt x="750" y="1500" on="0"/>
        <pt x="1060" y="1500" on="1"/>
        <pt x="1228" y="1500" on="0"/>
        <pt x="1422" y="1450" on="0"/>
        <pt x="1540" y="1450" on="1"/>
        <pt x="1650" y="1450" on="0"/>
        <pt x="1650" y="1570" on="1"/>
        <pt x="1950" y="1570" on="1"/>
        <pt x="1950" y="1400" on="1"/>
        <pt x="1950" y="1150" on="0"/>
        <pt x="1540" y="1150" on="1"/>
        <pt x="1455" y="1150" on="0"/>
        <pt x="1177" y="1200" on="0"/>
        <pt x="1060" y="1200" on="1"/>
        <pt x="871" y="1200" on="0"/>
        <pt x="871" y="1149" on="1"/>
        <pt x="871" y="1148" on="1"/>
        <pt x="872" y="1095" on="1"/>
        <pt x="873" y="1050" on="0"/>
        <pt x="1010" y="1050" on="1"/>
        <pt x="1100" y="1050" on="1"/>
        <pt x="1250" y="1050" on="0"/>
        <pt x="1250" y="950" on="1"/>
      </contour>
      <contour>
        <pt x="150" y="945" on="1"/>
        <pt x="0" y="983" on="0"/>
        <pt x="0" y="1068" on="1"/>
        <pt x="0" y="1400" on="1"/>
        <pt x="0" y="1500" on="0"/>
        <pt x="134" y="1500" on="1"/>
        <pt x="263" y="1500" on="1"/>
        <pt x="359" y="1500" on="0"/>
        <pt x="430" y="1481" on="1"/>
        <pt x="454" y="1475" on="0"/>
        <pt x="475" y="1475" on="1"/>
        <pt x="517" y="1475" on="0"/>
        <pt x="550" y="1500" on="1"/>
        <pt x="550" y="1239" on="1"/>
        <pt x="509" y="1184" on="0"/>
        <pt x="442" y="1184" on="1"/>
        <pt x="427" y="1184" on="0"/>
        <pt x="412" y="1186" on="1"/>
        <pt x="323" y="1200" on="0"/>
        <pt x="212" y="1200" on="1"/>
        <pt x="122" y="1200" on="0"/>
        <pt x="122" y="1148" on="1"/>
        <pt x="122" y="1095" on="1"/>
        <pt x="122" y="1050" on="0"/>
        <pt x="260" y="1050" on="1"/>
        <pt x="350" y="1050" on="1"/>
        <pt x="550" y="1050" on="0"/>
        <pt x="550" y="950" on="1"/>
        <pt x="550" y="250" on="1"/>
        <pt x="550" y="150" on="0"/>
        <pt x="650" y="150" on="1"/>
        <pt x="650" y="0" on="1"/>
        <pt x="350" y="0" on="1"/>
        <pt x="150" y="0" on="0"/>
        <pt x="150" y="150" on="1"/>
      </contour>
    </TTGlyph>
    <TTGlyph name="glyph262" xMin="0" yMin="0" xMax="3350" yMax="1500">
      <contour>
        <pt x="850" y="0" on="0"/>
        <pt x="850" y="100" on="1"/>
        <pt x="850" y="961" on="1"/>
        <pt x="750" y="999" on="0"/>
        <pt x="750" y="1068" on="1"/>
        <pt x="750" y="1340" on="1"/>
        <pt x="750" y="1500" on="0"/>
        <pt x="1060" y="1500" on="1"/>
        <pt x="1650" y="1500" on="1"/>
        <pt x="1950" y="1500" on="0"/>
        <pt x="1950" y="1200" on="1"/>
        <pt x="1950" y="200" on="1"/>
        <pt x="1950" y="100" on="0"/>
        <pt x="2100" y="100" on="1"/>
        <pt x="2250" y="100" on="0"/>
        <pt x="2250" y="200" on="1"/>
        <pt x="2250" y="945" on="1"/>
        <pt x="2100" y="983" on="0"/>
        <pt x="2100" y="1068" on="1"/>
        <pt x="2100" y="1400" on="1"/>
        <pt x="2100" y="1500" on="0"/>
        <pt x="2234" y="1500" on="1"/>
        <pt x="2363" y="1500" on="1"/>
        <pt x="2459" y="1500" on="0"/>
        <pt x="2530" y="1481" on="1"/>
        <pt x="2554" y="1475" on="0"/>
        <pt x="2575" y="1475" on="1"/>
        <pt x="2617" y="1475" on="0"/>
        <pt x="2650" y="1500" on="1"/>
        <pt x="2650" y="1239" on="1"/>
        <pt x="2609" y="1184" on="0"/>
        <pt x="2542" y="1184" on="1"/>
        <pt x="2527" y="1184" on="0"/>
        <pt x="2512" y="1186" on="1"/>
        <pt x="2423" y="1200" on="0"/>
        <pt x="2312" y="1200" on="1"/>
        <pt x="2222" y="1200" on="0"/>
        <pt x="2222" y="1148" on="1"/>
        <pt x="2222" y="1095" on="1"/>
        <pt x="2222" y="1050" on="0"/>
        <pt x="2360" y="1050" on="1"/>
        <pt x="2450" y="1050" on="1"/>
        <pt x="2650" y="1050" on="0"/>
        <pt x="2650" y="950" on="1"/>
        <pt x="2650" y="200" on="1"/>
        <pt x="2650" y="100" on="0"/>
        <pt x="2800" y="100" on="1"/>
        <pt x="2950" y="100" on="0"/>
        <pt x="2950" y="200" on="1"/>
        <pt x="2950" y="945" on="1"/>
        <pt x="2800" y="983" on="0"/>
        <pt x="2800" y="1068" on="1"/>
        <pt x="2800" y="1400" on="1"/>
        <pt x="2800" y="1500" on="0"/>
        <pt x="2934" y="1500" on="1"/>
        <pt x="3063" y="1500" on="1"/>
        <pt x="3159" y="1500" on="0"/>
        <pt x="3230" y="1481" on="1"/>
        <pt x="3254" y="1475" on="0"/>
        <pt x="3275" y="1475" on="1"/>
        <pt x="3317" y="1475" on="0"/>
        <pt x="3350" y="1500" on="1"/>
        <pt x="3350" y="1239" on="1"/>
        <pt x="3309" y="1184" on="0"/>
        <pt x="3242" y="1184" on="1"/>
        <pt x="3227" y="1184" on="0"/>
        <pt x="3212" y="1186" on="1"/>
        <pt x="3123" y="1200" on="0"/>
        <pt x="3012" y="1200" on="1"/>
        <pt x="2922" y="1200" on="0"/>
        <pt x="2922" y="1148" on="1"/>
        <pt x="2922" y="1095" on="1"/>
        <pt x="2922" y="1050" on="0"/>
        <pt x="3060" y="1050" on="1"/>
        <pt x="3150" y="1050" on="1"/>
        <pt x="3350" y="1050" on="0"/>
        <pt x="3350" y="950" on="1"/>
        <pt x="3350" y="200" on="1"/>
        <pt x="3350" y="0" on="0"/>
        <pt x="3000" y="0" on="1"/>
        <pt x="1900" y="0" on="1"/>
        <pt x="1550" y="0" on="0"/>
        <pt x="1550" y="200" on="1"/>
        <pt x="1550" y="1100" on="1"/>
        <pt x="1550" y="1200" on="0"/>
        <pt x="1450" y="1200" on="1"/>
        <pt x="1060" y="1200" on="1"/>
        <pt x="871" y="1200" on="0"/>
        <pt x="871" y="1149" on="1"/>
        <pt x="871" y="1148" on="1"/>
        <pt x="872" y="1095" on="1"/>
        <pt x="873" y="1050" on="0"/>
        <pt x="1010" y="1050" on="1"/>
        <pt x="1100" y="1050" on="1"/>
        <pt x="1250" y="1050" on="0"/>
        <pt x="1250" y="950" on="1"/>
        <pt x="1250" y="500" on="1"/>
        <pt x="1400" y="500" on="0"/>
        <pt x="1400" y="250" on="1"/>
        <pt x="1400" y="0" on="0"/>
        <pt x="1250" y="0" on="1"/>
        <pt x="1000" y="0" on="1"/>
      </contour>
      <contour>
        <pt x="1250" y="370" on="1"/>
        <pt x="1250" y="130" on="1"/>
        <pt x="1300" y="130" on="0"/>
        <pt x="1300" y="250" on="1"/>
        <pt x="1300" y="370" on="0"/>
      </contour>
      <contour>
        <pt x="150" y="945" on="1"/>
        <pt x="0" y="983" on="0"/>
        <pt x="0" y="1068" on="1"/>
        <pt x="0" y="1400" on="1"/>
        <pt x="0" y="1500" on="0"/>
        <pt x="134" y="1500" on="1"/>
        <pt x="263" y="1500" on="1"/>
        <pt x="359" y="1500" on="0"/>
        <pt x="430" y="1481" on="1"/>
        <pt x="454" y="1475" on="0"/>
        <pt x="475" y="1475" on="1"/>
        <pt x="517" y="1475" on="0"/>
        <pt x="550" y="1500" on="1"/>
        <pt x="550" y="1239" on="1"/>
        <pt x="509" y="1184" on="0"/>
        <pt x="442" y="1184" on="1"/>
        <pt x="427" y="1184" on="0"/>
        <pt x="412" y="1186" on="1"/>
        <pt x="323" y="1200" on="0"/>
        <pt x="212" y="1200" on="1"/>
        <pt x="122" y="1200" on="0"/>
        <pt x="122" y="1148" on="1"/>
        <pt x="122" y="1095" on="1"/>
        <pt x="122" y="1050" on="0"/>
        <pt x="260" y="1050" on="1"/>
        <pt x="350" y="1050" on="1"/>
        <pt x="550" y="1050" on="0"/>
        <pt x="550" y="950" on="1"/>
        <pt x="550" y="250" on="1"/>
        <pt x="550" y="150" on="0"/>
        <pt x="650" y="150" on="1"/>
        <pt x="650" y="0" on="1"/>
        <pt x="350" y="0" on="1"/>
        <pt x="150" y="0" on="0"/>
        <pt x="150" y="150" on="1"/>
      </contour>
    </TTGlyph>
    <TTGlyph name="glyph263" xMin="0" yMin="-700" xMax="2650" yMax="1500">
      <contour>
        <pt x="1250" y="370" on="1"/>
        <pt x="1250" y="130" on="1"/>
        <pt x="1300" y="130" on="0"/>
        <pt x="1300" y="250" on="1"/>
        <pt x="1300" y="370" on="0"/>
      </contour>
      <contour>
        <pt x="1916" y="1380" on="1"/>
        <pt x="2047" y="1500" on="0"/>
        <pt x="2150" y="1500" on="1"/>
        <pt x="2363" y="1500" on="1"/>
        <pt x="2650" y="1500" on="0"/>
        <pt x="2650" y="1200" on="1"/>
        <pt x="2650" y="0" on="1"/>
        <pt x="2250" y="0" on="1"/>
        <pt x="2250" y="1100" on="1"/>
        <pt x="2251" y="1107" on="0"/>
        <pt x="2251" y="1113" on="1"/>
        <pt x="2251" y="1200" on="0"/>
        <pt x="2150" y="1200" on="1"/>
        <pt x="1950" y="1200" on="1"/>
        <pt x="1950" y="0" on="1"/>
        <pt x="1550" y="0" on="1"/>
        <pt x="1550" y="1100" on="1"/>
        <pt x="1550" y="1200" on="0"/>
        <pt x="1500" y="1200" on="1"/>
        <pt x="1450" y="1200" on="0"/>
        <pt x="1357" y="1085" on="1"/>
        <pt x="1253" y="1200" on="0"/>
        <pt x="1100" y="1200" on="1"/>
        <pt x="1000" y="1200" on="1"/>
        <pt x="871" y="1200" on="0"/>
        <pt x="871" y="1149" on="1"/>
        <pt x="871" y="1148" on="1"/>
        <pt x="872" y="1095" on="1"/>
        <pt x="873" y="1050" on="0"/>
        <pt x="1010" y="1050" on="1"/>
        <pt x="1100" y="1050" on="1"/>
        <pt x="1250" y="1050" on="0"/>
        <pt x="1250" y="950" on="1"/>
        <pt x="1250" y="500" on="1"/>
        <pt x="1400" y="500" on="0"/>
        <pt x="1400" y="250" on="1"/>
        <pt x="1400" y="0" on="0"/>
        <pt x="1250" y="0" on="1"/>
        <pt x="1000" y="0" on="1"/>
        <pt x="850" y="0" on="0"/>
        <pt x="850" y="100" on="1"/>
        <pt x="850" y="961" on="1"/>
        <pt x="750" y="999" on="0"/>
        <pt x="750" y="1068" on="1"/>
        <pt x="750" y="1340" on="1"/>
        <pt x="750" y="1500" on="0"/>
        <pt x="1000" y="1500" on="1"/>
        <pt x="1100" y="1500" on="1"/>
        <pt x="1245" y="1500" on="0"/>
        <pt x="1357" y="1363" on="1"/>
        <pt x="1463" y="1500" on="0"/>
        <pt x="1600" y="1500" on="1"/>
        <pt x="1700" y="1500" on="1"/>
        <pt x="1858" y="1500" on="0"/>
      </contour>
      <contour>
        <pt x="850" y="-200" on="1"/>
        <pt x="1300" y="-200" on="1"/>
        <pt x="1648" y="-200" on="0"/>
        <pt x="2004" y="-500" on="1"/>
        <pt x="2250" y="-500" on="1"/>
        <pt x="2250" y="-350" on="1"/>
        <pt x="2100" y="-350" on="1"/>
        <pt x="2100" y="-100" on="1"/>
        <pt x="2400" y="-100" on="1"/>
        <pt x="2650" y="-100" on="0"/>
        <pt x="2650" y="-300" on="1"/>
        <pt x="2650" y="-500" on="1"/>
        <pt x="2650" y="-700" on="0"/>
        <pt x="2400" y="-700" on="1"/>
        <pt x="1812" y="-700" on="1"/>
        <pt x="1547" y="-500" on="0"/>
        <pt x="1300" y="-500" on="1"/>
        <pt x="850" y="-500" on="1"/>
      </contour>
      <contour>
        <pt x="150" y="945" on="1"/>
        <pt x="0" y="983" on="0"/>
        <pt x="0" y="1068" on="1"/>
        <pt x="0" y="1400" on="1"/>
        <pt x="0" y="1500" on="0"/>
        <pt x="134" y="1500" on="1"/>
        <pt x="263" y="1500" on="1"/>
        <pt x="359" y="1500" on="0"/>
        <pt x="430" y="1481" on="1"/>
        <pt x="454" y="1475" on="0"/>
        <pt x="475" y="1475" on="1"/>
        <pt x="517" y="1475" on="0"/>
        <pt x="550" y="1500" on="1"/>
        <pt x="550" y="1239" on="1"/>
        <pt x="509" y="1184" on="0"/>
        <pt x="442" y="1184" on="1"/>
        <pt x="427" y="1184" on="0"/>
        <pt x="412" y="1186" on="1"/>
        <pt x="323" y="1200" on="0"/>
        <pt x="212" y="1200" on="1"/>
        <pt x="122" y="1200" on="0"/>
        <pt x="122" y="1148" on="1"/>
        <pt x="122" y="1095" on="1"/>
        <pt x="122" y="1050" on="0"/>
        <pt x="260" y="1050" on="1"/>
        <pt x="350" y="1050" on="1"/>
        <pt x="550" y="1050" on="0"/>
        <pt x="550" y="950" on="1"/>
        <pt x="550" y="250" on="1"/>
        <pt x="550" y="150" on="0"/>
        <pt x="650" y="150" on="1"/>
        <pt x="650" y="0" on="1"/>
        <pt x="350" y="0" on="1"/>
        <pt x="150" y="0" on="0"/>
        <pt x="150" y="150" on="1"/>
      </contour>
    </TTGlyph>
    <TTGlyph name="glyph264" xMin="0" yMin="0" xMax="1950" yMax="1570">
      <contour>
        <pt x="1250" y="193" on="1"/>
        <pt x="1400" y="439" on="1"/>
        <pt x="1550" y="193" on="1"/>
        <pt x="1550" y="1000" on="1"/>
        <pt x="1950" y="1000" on="1"/>
        <pt x="1950" y="100" on="1"/>
        <pt x="1950" y="0" on="0"/>
        <pt x="1803" y="0" on="1"/>
        <pt x="1550" y="0" on="1"/>
        <pt x="1400" y="246" on="1"/>
        <pt x="1250" y="0" on="1"/>
        <pt x="997" y="0" on="1"/>
        <pt x="850" y="0" on="0"/>
        <pt x="850" y="100" on="1"/>
        <pt x="850" y="1000" on="1"/>
        <pt x="1250" y="1000" on="1"/>
      </contour>
      <contour>
        <pt x="850" y="1500" on="1"/>
        <pt x="1350" y="1500" on="1"/>
        <pt x="1350" y="1400" on="1"/>
        <pt x="1250" y="1400" on="1"/>
        <pt x="1250" y="1300" on="1"/>
        <pt x="1550" y="1300" on="1"/>
        <pt x="1550" y="1570" on="1"/>
        <pt x="1950" y="1570" on="1"/>
        <pt x="1950" y="1300" on="1"/>
        <pt x="1950" y="1150" on="0"/>
        <pt x="1700" y="1150" on="1"/>
        <pt x="850" y="1150" on="1"/>
      </contour>
      <contour>
        <pt x="150" y="945" on="1"/>
        <pt x="0" y="983" on="0"/>
        <pt x="0" y="1068" on="1"/>
        <pt x="0" y="1400" on="1"/>
        <pt x="0" y="1500" on="0"/>
        <pt x="134" y="1500" on="1"/>
        <pt x="263" y="1500" on="1"/>
        <pt x="359" y="1500" on="0"/>
        <pt x="430" y="1481" on="1"/>
        <pt x="454" y="1475" on="0"/>
        <pt x="475" y="1475" on="1"/>
        <pt x="517" y="1475" on="0"/>
        <pt x="550" y="1500" on="1"/>
        <pt x="550" y="1239" on="1"/>
        <pt x="509" y="1184" on="0"/>
        <pt x="442" y="1184" on="1"/>
        <pt x="427" y="1184" on="0"/>
        <pt x="412" y="1186" on="1"/>
        <pt x="323" y="1200" on="0"/>
        <pt x="212" y="1200" on="1"/>
        <pt x="122" y="1200" on="0"/>
        <pt x="122" y="1148" on="1"/>
        <pt x="122" y="1095" on="1"/>
        <pt x="122" y="1050" on="0"/>
        <pt x="260" y="1050" on="1"/>
        <pt x="350" y="1050" on="1"/>
        <pt x="550" y="1050" on="0"/>
        <pt x="550" y="950" on="1"/>
        <pt x="550" y="250" on="1"/>
        <pt x="550" y="150" on="0"/>
        <pt x="650" y="150" on="1"/>
        <pt x="650" y="0" on="1"/>
        <pt x="350" y="0" on="1"/>
        <pt x="150" y="0" on="0"/>
        <pt x="150" y="150" on="1"/>
      </contour>
    </TTGlyph>
    <TTGlyph name="glyph265" xMin="0" yMin="0" xMax="1950" yMax="1570">
      <contour>
        <pt x="1550" y="961" on="1"/>
        <pt x="1400" y="999" on="0"/>
        <pt x="1400" y="1068" on="1"/>
        <pt x="1400" y="1400" on="1"/>
        <pt x="1400" y="1500" on="0"/>
        <pt x="1534" y="1500" on="1"/>
        <pt x="1600" y="1500" on="1"/>
        <pt x="1648" y="1500" on="0"/>
        <pt x="1752" y="1450" on="0"/>
        <pt x="1800" y="1450" on="1"/>
        <pt x="1870" y="1450" on="0"/>
        <pt x="1870" y="1570" on="1"/>
        <pt x="1950" y="1570" on="1"/>
        <pt x="1950" y="1400" on="1"/>
        <pt x="1950" y="1170" on="0"/>
        <pt x="1800" y="1170" on="1"/>
        <pt x="1735" y="1170" on="0"/>
        <pt x="1657" y="1200" on="0"/>
        <pt x="1580" y="1200" on="1"/>
        <pt x="1522" y="1200" on="0"/>
        <pt x="1522" y="1148" on="1"/>
        <pt x="1522" y="1095" on="1"/>
        <pt x="1522" y="1050" on="0"/>
        <pt x="1710" y="1050" on="1"/>
        <pt x="1800" y="1050" on="1"/>
        <pt x="1950" y="1050" on="0"/>
        <pt x="1950" y="950" on="1"/>
        <pt x="1950" y="200" on="1"/>
        <pt x="1950" y="0" on="0"/>
        <pt x="1600" y="0" on="1"/>
        <pt x="1200" y="0" on="1"/>
        <pt x="850" y="0" on="0"/>
        <pt x="850" y="200" on="1"/>
        <pt x="850" y="1300" on="1"/>
        <pt x="850" y="1400" on="0"/>
        <pt x="800" y="1400" on="1"/>
        <pt x="800" y="1500" on="1"/>
        <pt x="1050" y="1500" on="1"/>
        <pt x="1250" y="1500" on="0"/>
        <pt x="1250" y="1350" on="1"/>
        <pt x="1250" y="200" on="1"/>
        <pt x="1250" y="100" on="0"/>
        <pt x="1400" y="100" on="1"/>
        <pt x="1550" y="100" on="0"/>
        <pt x="1550" y="200" on="1"/>
      </contour>
      <contour>
        <pt x="150" y="945" on="1"/>
        <pt x="0" y="983" on="0"/>
        <pt x="0" y="1068" on="1"/>
        <pt x="0" y="1400" on="1"/>
        <pt x="0" y="1500" on="0"/>
        <pt x="134" y="1500" on="1"/>
        <pt x="263" y="1500" on="1"/>
        <pt x="359" y="1500" on="0"/>
        <pt x="430" y="1481" on="1"/>
        <pt x="454" y="1475" on="0"/>
        <pt x="475" y="1475" on="1"/>
        <pt x="517" y="1475" on="0"/>
        <pt x="550" y="1500" on="1"/>
        <pt x="550" y="1239" on="1"/>
        <pt x="509" y="1184" on="0"/>
        <pt x="442" y="1184" on="1"/>
        <pt x="427" y="1184" on="0"/>
        <pt x="412" y="1186" on="1"/>
        <pt x="323" y="1200" on="0"/>
        <pt x="212" y="1200" on="1"/>
        <pt x="122" y="1200" on="0"/>
        <pt x="122" y="1148" on="1"/>
        <pt x="122" y="1095" on="1"/>
        <pt x="122" y="1050" on="0"/>
        <pt x="260" y="1050" on="1"/>
        <pt x="350" y="1050" on="1"/>
        <pt x="550" y="1050" on="0"/>
        <pt x="550" y="950" on="1"/>
        <pt x="550" y="250" on="1"/>
        <pt x="550" y="150" on="0"/>
        <pt x="650" y="150" on="1"/>
        <pt x="650" y="0" on="1"/>
        <pt x="350" y="0" on="1"/>
        <pt x="150" y="0" on="0"/>
        <pt x="150" y="150" on="1"/>
      </contour>
    </TTGlyph>
    <TTGlyph name="glyph266" xMin="0" yMin="0" xMax="1950" yMax="1500">
      <contour>
        <pt x="1250" y="1100" on="1"/>
        <pt x="1250" y="1000" on="1"/>
        <pt x="1263" y="1000" on="0"/>
        <pt x="1287" y="1013" on="0"/>
        <pt x="1300" y="1037" on="0"/>
        <pt x="1300" y="1050" on="1"/>
        <pt x="1300" y="1063" on="0"/>
        <pt x="1286" y="1087" on="0"/>
        <pt x="1263" y="1100" on="0"/>
      </contour>
      <contour>
        <pt x="1550" y="75" on="1"/>
        <pt x="1463" y="0" on="0"/>
        <pt x="1340" y="0" on="1"/>
        <pt x="1200" y="0" on="1"/>
        <pt x="850" y="0" on="0"/>
        <pt x="850" y="200" on="1"/>
        <pt x="850" y="500" on="1"/>
        <pt x="850" y="602" on="0"/>
        <pt x="1250" y="737" on="1"/>
        <pt x="1400" y="804" on="1"/>
        <pt x="1550" y="872" on="0"/>
        <pt x="1550" y="1000" on="1"/>
        <pt x="1550" y="1300" on="1"/>
        <pt x="1550" y="1360" on="0"/>
        <pt x="1493" y="1360" on="1"/>
        <pt x="1455" y="1360" on="0"/>
        <pt x="1400" y="1290" on="1"/>
        <pt x="1345" y="1360" on="0"/>
        <pt x="1308" y="1360" on="1"/>
        <pt x="1250" y="1360" on="0"/>
        <pt x="1250" y="1300" on="1"/>
        <pt x="1250" y="1200" on="1"/>
        <pt x="1288" y="1200" on="0"/>
        <pt x="1359" y="1161" on="0"/>
        <pt x="1400" y="1089" on="0"/>
        <pt x="1400" y="1050" on="1"/>
        <pt x="1400" y="1011" on="0"/>
        <pt x="1360" y="940" on="0"/>
        <pt x="1289" y="900" on="0"/>
        <pt x="1250" y="900" on="1"/>
        <pt x="1033" y="900" on="1"/>
        <pt x="850" y="900" on="0"/>
        <pt x="850" y="1050" on="1"/>
        <pt x="850" y="1300" on="1"/>
        <pt x="850" y="1500" on="0"/>
        <pt x="1015" y="1500" on="1"/>
        <pt x="1180" y="1500" on="1"/>
        <pt x="1330" y="1500" on="0"/>
        <pt x="1400" y="1410" on="1"/>
        <pt x="1470" y="1500" on="0"/>
        <pt x="1620" y="1500" on="1"/>
        <pt x="1785" y="1500" on="1"/>
        <pt x="1950" y="1500" on="0"/>
        <pt x="1950" y="1300" on="1"/>
        <pt x="1950" y="1000" on="1"/>
        <pt x="1950" y="898" on="0"/>
        <pt x="1550" y="763" on="1"/>
        <pt x="1400" y="696" on="1"/>
        <pt x="1250" y="628" on="0"/>
        <pt x="1250" y="500" on="1"/>
        <pt x="1250" y="200" on="1"/>
        <pt x="1250" y="100" on="0"/>
        <pt x="1340" y="100" on="1"/>
        <pt x="1486" y="100" on="0"/>
        <pt x="1550" y="320" on="1"/>
        <pt x="1550" y="550" on="1"/>
        <pt x="1950" y="680" on="1"/>
        <pt x="1950" y="0" on="1"/>
        <pt x="1550" y="0" on="1"/>
      </contour>
      <contour>
        <pt x="150" y="945" on="1"/>
        <pt x="0" y="983" on="0"/>
        <pt x="0" y="1068" on="1"/>
        <pt x="0" y="1400" on="1"/>
        <pt x="0" y="1500" on="0"/>
        <pt x="134" y="1500" on="1"/>
        <pt x="263" y="1500" on="1"/>
        <pt x="359" y="1500" on="0"/>
        <pt x="430" y="1481" on="1"/>
        <pt x="454" y="1475" on="0"/>
        <pt x="475" y="1475" on="1"/>
        <pt x="517" y="1475" on="0"/>
        <pt x="550" y="1500" on="1"/>
        <pt x="550" y="1239" on="1"/>
        <pt x="509" y="1184" on="0"/>
        <pt x="442" y="1184" on="1"/>
        <pt x="427" y="1184" on="0"/>
        <pt x="412" y="1186" on="1"/>
        <pt x="323" y="1200" on="0"/>
        <pt x="212" y="1200" on="1"/>
        <pt x="122" y="1200" on="0"/>
        <pt x="122" y="1148" on="1"/>
        <pt x="122" y="1095" on="1"/>
        <pt x="122" y="1050" on="0"/>
        <pt x="260" y="1050" on="1"/>
        <pt x="350" y="1050" on="1"/>
        <pt x="550" y="1050" on="0"/>
        <pt x="550" y="950" on="1"/>
        <pt x="550" y="250" on="1"/>
        <pt x="550" y="150" on="0"/>
        <pt x="650" y="150" on="1"/>
        <pt x="650" y="0" on="1"/>
        <pt x="350" y="0" on="1"/>
        <pt x="150" y="0" on="0"/>
        <pt x="150" y="150" on="1"/>
      </contour>
    </TTGlyph>
    <TTGlyph name="glyph267" xMin="0" yMin="0" xMax="2650" yMax="1500">
      <contour>
        <pt x="1250" y="370" on="1"/>
        <pt x="1250" y="130" on="1"/>
        <pt x="1300" y="130" on="0"/>
        <pt x="1300" y="250" on="1"/>
        <pt x="1300" y="370" on="0"/>
      </contour>
      <contour>
        <pt x="2650" y="200" on="1"/>
        <pt x="2650" y="0" on="0"/>
        <pt x="2500" y="0" on="1"/>
        <pt x="2250" y="0" on="1"/>
        <pt x="2250" y="137" on="0"/>
        <pt x="2096" y="300" on="0"/>
        <pt x="2000" y="300" on="1"/>
        <pt x="1950" y="300" on="1"/>
        <pt x="1950" y="200" on="1"/>
        <pt x="1950" y="0" on="0"/>
        <pt x="1725" y="0" on="1"/>
        <pt x="1500" y="0" on="0"/>
        <pt x="1500" y="200" on="1"/>
        <pt x="1500" y="252" on="0"/>
        <pt x="1554" y="348" on="0"/>
        <pt x="1602" y="374" on="1"/>
        <pt x="1641" y="396" on="0"/>
        <pt x="1683" y="399" on="1"/>
        <pt x="1550" y="450" on="1"/>
        <pt x="1550" y="1100" on="1"/>
        <pt x="1550" y="1200" on="0"/>
        <pt x="1500" y="1200" on="1"/>
        <pt x="1450" y="1200" on="0"/>
        <pt x="1357" y="1085" on="1"/>
        <pt x="1253" y="1200" on="0"/>
        <pt x="1100" y="1200" on="1"/>
        <pt x="1000" y="1200" on="1"/>
        <pt x="871" y="1200" on="0"/>
        <pt x="871" y="1149" on="1"/>
        <pt x="871" y="1148" on="1"/>
        <pt x="872" y="1095" on="1"/>
        <pt x="873" y="1050" on="0"/>
        <pt x="1010" y="1050" on="1"/>
        <pt x="1100" y="1050" on="1"/>
        <pt x="1250" y="1050" on="0"/>
        <pt x="1250" y="950" on="1"/>
        <pt x="1250" y="500" on="1"/>
        <pt x="1400" y="500" on="0"/>
        <pt x="1400" y="250" on="1"/>
        <pt x="1400" y="0" on="0"/>
        <pt x="1250" y="0" on="1"/>
        <pt x="1000" y="0" on="1"/>
        <pt x="850" y="0" on="0"/>
        <pt x="850" y="100" on="1"/>
        <pt x="850" y="961" on="1"/>
        <pt x="750" y="999" on="0"/>
        <pt x="750" y="1068" on="1"/>
        <pt x="750" y="1340" on="1"/>
        <pt x="750" y="1500" on="0"/>
        <pt x="1000" y="1500" on="1"/>
        <pt x="1100" y="1500" on="1"/>
        <pt x="1245" y="1500" on="0"/>
        <pt x="1357" y="1363" on="1"/>
        <pt x="1463" y="1500" on="0"/>
        <pt x="1600" y="1500" on="1"/>
        <pt x="1700" y="1500" on="1"/>
        <pt x="1950" y="1500" on="0"/>
        <pt x="1950" y="1300" on="1"/>
        <pt x="1950" y="400" on="1"/>
        <pt x="2000" y="400" on="1"/>
        <pt x="2147" y="400" on="0"/>
        <pt x="2250" y="341" on="1"/>
        <pt x="2250" y="945" on="1"/>
        <pt x="2100" y="983" on="0"/>
        <pt x="2100" y="1068" on="1"/>
        <pt x="2100" y="1400" on="1"/>
        <pt x="2100" y="1500" on="0"/>
        <pt x="2234" y="1500" on="1"/>
        <pt x="2363" y="1500" on="1"/>
        <pt x="2459" y="1500" on="0"/>
        <pt x="2530" y="1481" on="1"/>
        <pt x="2554" y="1475" on="0"/>
        <pt x="2575" y="1475" on="1"/>
        <pt x="2617" y="1475" on="0"/>
        <pt x="2650" y="1500" on="1"/>
        <pt x="2650" y="1239" on="1"/>
        <pt x="2609" y="1184" on="0"/>
        <pt x="2542" y="1184" on="1"/>
        <pt x="2527" y="1184" on="0"/>
        <pt x="2512" y="1186" on="1"/>
        <pt x="2423" y="1200" on="0"/>
        <pt x="2312" y="1200" on="1"/>
        <pt x="2221" y="1200" on="0"/>
        <pt x="2221" y="1149" on="1"/>
        <pt x="2221" y="1148" on="1"/>
        <pt x="2222" y="1095" on="1"/>
        <pt x="2223" y="1050" on="0"/>
        <pt x="2360" y="1050" on="1"/>
        <pt x="2450" y="1050" on="1"/>
        <pt x="2650" y="1050" on="0"/>
        <pt x="2650" y="950" on="1"/>
      </contour>
      <contour>
        <pt x="150" y="945" on="1"/>
        <pt x="0" y="983" on="0"/>
        <pt x="0" y="1068" on="1"/>
        <pt x="0" y="1400" on="1"/>
        <pt x="0" y="1500" on="0"/>
        <pt x="134" y="1500" on="1"/>
        <pt x="263" y="1500" on="1"/>
        <pt x="359" y="1500" on="0"/>
        <pt x="430" y="1481" on="1"/>
        <pt x="454" y="1475" on="0"/>
        <pt x="475" y="1475" on="1"/>
        <pt x="517" y="1475" on="0"/>
        <pt x="550" y="1500" on="1"/>
        <pt x="550" y="1239" on="1"/>
        <pt x="509" y="1184" on="0"/>
        <pt x="442" y="1184" on="1"/>
        <pt x="427" y="1184" on="0"/>
        <pt x="412" y="1186" on="1"/>
        <pt x="323" y="1200" on="0"/>
        <pt x="212" y="1200" on="1"/>
        <pt x="122" y="1200" on="0"/>
        <pt x="122" y="1148" on="1"/>
        <pt x="122" y="1095" on="1"/>
        <pt x="122" y="1050" on="0"/>
        <pt x="260" y="1050" on="1"/>
        <pt x="350" y="1050" on="1"/>
        <pt x="550" y="1050" on="0"/>
        <pt x="550" y="950" on="1"/>
        <pt x="550" y="250" on="1"/>
        <pt x="550" y="150" on="0"/>
        <pt x="650" y="150" on="1"/>
        <pt x="650" y="0" on="1"/>
        <pt x="350" y="0" on="1"/>
        <pt x="150" y="0" on="0"/>
        <pt x="150" y="150" on="1"/>
      </contour>
    </TTGlyph>
    <TTGlyph name="glyph268" xMin="0" yMin="0" xMax="3350" yMax="1500">
      <contour>
        <pt x="1250" y="370" on="1"/>
        <pt x="1250" y="130" on="1"/>
        <pt x="1300" y="130" on="0"/>
        <pt x="1300" y="250" on="1"/>
        <pt x="1300" y="370" on="0"/>
      </contour>
      <contour>
        <pt x="1550" y="1100" on="1"/>
        <pt x="1550" y="1200" on="0"/>
        <pt x="1450" y="1200" on="1"/>
        <pt x="1060" y="1200" on="1"/>
        <pt x="871" y="1200" on="0"/>
        <pt x="871" y="1149" on="1"/>
        <pt x="871" y="1148" on="1"/>
        <pt x="872" y="1095" on="1"/>
        <pt x="873" y="1050" on="0"/>
        <pt x="1010" y="1050" on="1"/>
        <pt x="1100" y="1050" on="1"/>
        <pt x="1250" y="1050" on="0"/>
        <pt x="1250" y="950" on="1"/>
        <pt x="1250" y="500" on="1"/>
        <pt x="1400" y="500" on="0"/>
        <pt x="1400" y="250" on="1"/>
        <pt x="1400" y="0" on="0"/>
        <pt x="1250" y="0" on="1"/>
        <pt x="1000" y="0" on="1"/>
        <pt x="850" y="0" on="0"/>
        <pt x="850" y="100" on="1"/>
        <pt x="850" y="961" on="1"/>
        <pt x="750" y="999" on="0"/>
        <pt x="750" y="1068" on="1"/>
        <pt x="750" y="1340" on="1"/>
        <pt x="750" y="1500" on="0"/>
        <pt x="1060" y="1500" on="1"/>
        <pt x="1650" y="1500" on="1"/>
        <pt x="1950" y="1500" on="0"/>
        <pt x="1950" y="1200" on="1"/>
        <pt x="1950" y="193" on="1"/>
        <pt x="2100" y="439" on="1"/>
        <pt x="2250" y="193" on="1"/>
        <pt x="2250" y="1200" on="1"/>
        <pt x="2250" y="1500" on="0"/>
        <pt x="2560" y="1500" on="1"/>
        <pt x="3050" y="1500" on="1"/>
        <pt x="3350" y="1500" on="0"/>
        <pt x="3350" y="1200" on="1"/>
        <pt x="3350" y="0" on="1"/>
        <pt x="2950" y="0" on="1"/>
        <pt x="2950" y="1100" on="1"/>
        <pt x="2950" y="1200" on="0"/>
        <pt x="2850" y="1200" on="1"/>
        <pt x="2750" y="1200" on="1"/>
        <pt x="2650" y="1200" on="0"/>
        <pt x="2650" y="1100" on="1"/>
        <pt x="2650" y="100" on="1"/>
        <pt x="2650" y="0" on="0"/>
        <pt x="2503" y="0" on="1"/>
        <pt x="2250" y="0" on="1"/>
        <pt x="2100" y="246" on="1"/>
        <pt x="1950" y="0" on="1"/>
        <pt x="1697" y="0" on="1"/>
        <pt x="1550" y="0" on="0"/>
        <pt x="1550" y="100" on="1"/>
      </contour>
      <contour>
        <pt x="150" y="945" on="1"/>
        <pt x="0" y="983" on="0"/>
        <pt x="0" y="1068" on="1"/>
        <pt x="0" y="1400" on="1"/>
        <pt x="0" y="1500" on="0"/>
        <pt x="134" y="1500" on="1"/>
        <pt x="263" y="1500" on="1"/>
        <pt x="359" y="1500" on="0"/>
        <pt x="430" y="1481" on="1"/>
        <pt x="454" y="1475" on="0"/>
        <pt x="475" y="1475" on="1"/>
        <pt x="517" y="1475" on="0"/>
        <pt x="550" y="1500" on="1"/>
        <pt x="550" y="1239" on="1"/>
        <pt x="509" y="1184" on="0"/>
        <pt x="442" y="1184" on="1"/>
        <pt x="427" y="1184" on="0"/>
        <pt x="412" y="1186" on="1"/>
        <pt x="323" y="1200" on="0"/>
        <pt x="212" y="1200" on="1"/>
        <pt x="122" y="1200" on="0"/>
        <pt x="122" y="1148" on="1"/>
        <pt x="122" y="1095" on="1"/>
        <pt x="122" y="1050" on="0"/>
        <pt x="260" y="1050" on="1"/>
        <pt x="350" y="1050" on="1"/>
        <pt x="550" y="1050" on="0"/>
        <pt x="550" y="950" on="1"/>
        <pt x="550" y="250" on="1"/>
        <pt x="550" y="150" on="0"/>
        <pt x="650" y="150" on="1"/>
        <pt x="650" y="0" on="1"/>
        <pt x="350" y="0" on="1"/>
        <pt x="150" y="0" on="0"/>
        <pt x="150" y="150" on="1"/>
      </contour>
    </TTGlyph>
    <TTGlyph name="glyph269" xMin="0" yMin="0" xMax="1950" yMax="1500">
      <contour>
        <pt x="939" y="1067" on="1"/>
        <pt x="850" y="1115" on="0"/>
        <pt x="850" y="1198" on="1"/>
        <pt x="850" y="1400" on="1"/>
        <pt x="850" y="1500" on="0"/>
        <pt x="1034" y="1500" on="1"/>
        <pt x="1241" y="1500" on="1"/>
        <pt x="1333" y="1500" on="0"/>
        <pt x="1400" y="1460" on="1"/>
        <pt x="1467" y="1500" on="0"/>
        <pt x="1583" y="1500" on="1"/>
        <pt x="1729" y="1500" on="0"/>
        <pt x="1815" y="1481" on="1"/>
        <pt x="1844" y="1475" on="0"/>
        <pt x="1868" y="1475" on="1"/>
        <pt x="1917" y="1475" on="0"/>
        <pt x="1950" y="1500" on="1"/>
        <pt x="1950" y="1239" on="1"/>
        <pt x="1909" y="1184" on="0"/>
        <pt x="1818" y="1184" on="1"/>
        <pt x="1798" y="1184" on="0"/>
        <pt x="1777" y="1186" on="1"/>
        <pt x="1653" y="1200" on="0"/>
        <pt x="1554" y="1200" on="1"/>
        <pt x="1455" y="1200" on="0"/>
        <pt x="1400" y="1160" on="1"/>
        <pt x="1345" y="1200" on="0"/>
        <pt x="1179" y="1200" on="1"/>
        <pt x="1013" y="1200" on="0"/>
        <pt x="990" y="1178" on="1"/>
        <pt x="985" y="1172" on="0"/>
        <pt x="985" y="1166" on="1"/>
        <pt x="985" y="1145" on="0"/>
        <pt x="1042" y="1112" on="1"/>
      </contour>
      <contour>
        <pt x="1250" y="370" on="1"/>
        <pt x="1250" y="130" on="1"/>
        <pt x="1300" y="130" on="0"/>
        <pt x="1300" y="250" on="1"/>
        <pt x="1300" y="370" on="0"/>
      </contour>
      <contour>
        <pt x="850" y="850" on="1"/>
        <pt x="850" y="1050" on="0"/>
        <pt x="1200" y="1050" on="1"/>
        <pt x="1600" y="1050" on="1"/>
        <pt x="1950" y="1050" on="0"/>
        <pt x="1950" y="850" on="1"/>
        <pt x="1950" y="0" on="1"/>
        <pt x="1550" y="0" on="1"/>
        <pt x="1550" y="850" on="1"/>
        <pt x="1550" y="950" on="0"/>
        <pt x="1400" y="950" on="1"/>
        <pt x="1250" y="950" on="0"/>
        <pt x="1250" y="850" on="1"/>
        <pt x="1250" y="500" on="1"/>
        <pt x="1400" y="500" on="0"/>
        <pt x="1400" y="250" on="1"/>
        <pt x="1400" y="0" on="0"/>
        <pt x="1250" y="0" on="1"/>
        <pt x="1000" y="0" on="1"/>
        <pt x="850" y="0" on="0"/>
        <pt x="850" y="100" on="1"/>
      </contour>
      <contour>
        <pt x="150" y="945" on="1"/>
        <pt x="0" y="983" on="0"/>
        <pt x="0" y="1068" on="1"/>
        <pt x="0" y="1400" on="1"/>
        <pt x="0" y="1500" on="0"/>
        <pt x="134" y="1500" on="1"/>
        <pt x="263" y="1500" on="1"/>
        <pt x="359" y="1500" on="0"/>
        <pt x="430" y="1481" on="1"/>
        <pt x="454" y="1475" on="0"/>
        <pt x="475" y="1475" on="1"/>
        <pt x="517" y="1475" on="0"/>
        <pt x="550" y="1500" on="1"/>
        <pt x="550" y="1239" on="1"/>
        <pt x="509" y="1184" on="0"/>
        <pt x="442" y="1184" on="1"/>
        <pt x="427" y="1184" on="0"/>
        <pt x="412" y="1186" on="1"/>
        <pt x="323" y="1200" on="0"/>
        <pt x="212" y="1200" on="1"/>
        <pt x="122" y="1200" on="0"/>
        <pt x="122" y="1148" on="1"/>
        <pt x="122" y="1095" on="1"/>
        <pt x="122" y="1050" on="0"/>
        <pt x="260" y="1050" on="1"/>
        <pt x="350" y="1050" on="1"/>
        <pt x="550" y="1050" on="0"/>
        <pt x="550" y="950" on="1"/>
        <pt x="550" y="250" on="1"/>
        <pt x="550" y="150" on="0"/>
        <pt x="650" y="150" on="1"/>
        <pt x="650" y="0" on="1"/>
        <pt x="350" y="0" on="1"/>
        <pt x="150" y="0" on="0"/>
        <pt x="150" y="150" on="1"/>
      </contour>
    </TTGlyph>
    <TTGlyph name="glyph270" xMin="0" yMin="0" xMax="1950" yMax="1570">
      <contour>
        <pt x="1550" y="850" on="1"/>
        <pt x="1550" y="950" on="1"/>
        <pt x="1537" y="950" on="0"/>
        <pt x="1513" y="937" on="0"/>
        <pt x="1500" y="913" on="0"/>
        <pt x="1500" y="900" on="1"/>
        <pt x="1500" y="887" on="0"/>
        <pt x="1514" y="863" on="0"/>
        <pt x="1537" y="850" on="0"/>
      </contour>
      <contour>
        <pt x="1250" y="200" on="1"/>
        <pt x="1250" y="100" on="0"/>
        <pt x="1400" y="100" on="1"/>
        <pt x="1550" y="100" on="0"/>
        <pt x="1550" y="200" on="1"/>
        <pt x="1550" y="750" on="1"/>
        <pt x="1512" y="750" on="0"/>
        <pt x="1441" y="789" on="0"/>
        <pt x="1400" y="861" on="0"/>
        <pt x="1400" y="900" on="1"/>
        <pt x="1400" y="939" on="0"/>
        <pt x="1440" y="1010" on="0"/>
        <pt x="1511" y="1050" on="0"/>
        <pt x="1550" y="1050" on="1"/>
        <pt x="1767" y="1050" on="1"/>
        <pt x="1950" y="1050" on="0"/>
        <pt x="1950" y="900" on="1"/>
        <pt x="1950" y="200" on="1"/>
        <pt x="1950" y="0" on="0"/>
        <pt x="1600" y="0" on="1"/>
        <pt x="1200" y="0" on="1"/>
        <pt x="850" y="0" on="0"/>
        <pt x="850" y="200" on="1"/>
        <pt x="850" y="961" on="1"/>
        <pt x="750" y="999" on="0"/>
        <pt x="750" y="1068" on="1"/>
        <pt x="750" y="1340" on="1"/>
        <pt x="750" y="1500" on="0"/>
        <pt x="1060" y="1500" on="1"/>
        <pt x="1228" y="1500" on="0"/>
        <pt x="1422" y="1450" on="0"/>
        <pt x="1540" y="1450" on="1"/>
        <pt x="1650" y="1450" on="0"/>
        <pt x="1650" y="1570" on="1"/>
        <pt x="1950" y="1570" on="1"/>
        <pt x="1950" y="1400" on="1"/>
        <pt x="1950" y="1150" on="0"/>
        <pt x="1540" y="1150" on="1"/>
        <pt x="1455" y="1150" on="0"/>
        <pt x="1177" y="1200" on="0"/>
        <pt x="1060" y="1200" on="1"/>
        <pt x="871" y="1200" on="0"/>
        <pt x="871" y="1149" on="1"/>
        <pt x="871" y="1148" on="1"/>
        <pt x="872" y="1095" on="1"/>
        <pt x="873" y="1050" on="0"/>
        <pt x="1010" y="1050" on="1"/>
        <pt x="1100" y="1050" on="1"/>
        <pt x="1250" y="1050" on="0"/>
        <pt x="1250" y="950" on="1"/>
      </contour>
      <contour>
        <pt x="150" y="945" on="1"/>
        <pt x="0" y="983" on="0"/>
        <pt x="0" y="1068" on="1"/>
        <pt x="0" y="1400" on="1"/>
        <pt x="0" y="1500" on="0"/>
        <pt x="134" y="1500" on="1"/>
        <pt x="263" y="1500" on="1"/>
        <pt x="359" y="1500" on="0"/>
        <pt x="430" y="1481" on="1"/>
        <pt x="454" y="1475" on="0"/>
        <pt x="475" y="1475" on="1"/>
        <pt x="517" y="1475" on="0"/>
        <pt x="550" y="1500" on="1"/>
        <pt x="550" y="1239" on="1"/>
        <pt x="509" y="1184" on="0"/>
        <pt x="442" y="1184" on="1"/>
        <pt x="427" y="1184" on="0"/>
        <pt x="412" y="1186" on="1"/>
        <pt x="323" y="1200" on="0"/>
        <pt x="212" y="1200" on="1"/>
        <pt x="122" y="1200" on="0"/>
        <pt x="122" y="1148" on="1"/>
        <pt x="122" y="1095" on="1"/>
        <pt x="122" y="1050" on="0"/>
        <pt x="260" y="1050" on="1"/>
        <pt x="350" y="1050" on="1"/>
        <pt x="550" y="1050" on="0"/>
        <pt x="550" y="950" on="1"/>
        <pt x="550" y="250" on="1"/>
        <pt x="550" y="150" on="0"/>
        <pt x="650" y="150" on="1"/>
        <pt x="650" y="0" on="1"/>
        <pt x="350" y="0" on="1"/>
        <pt x="150" y="0" on="0"/>
        <pt x="150" y="150" on="1"/>
      </contour>
    </TTGlyph>
</ttFont>
